<?xml version="1.0" encoding="utf-8"?>
<!-- Generator: Adobe Illustrator 25.0.0, SVG Export Plug-In . SVG Version: 6.00 Build 0)  -->
<svg version="1.1"
	 id="svg2600" xmlns:cc="http://creativecommons.org/ns#" xmlns:dc="http://purl.org/dc/elements/1.1/" xmlns:inkscape="http://www.inkscape.org/namespaces/inkscape" xmlns:rdf="http://www.w3.org/1999/02/22-rdf-syntax-ns#" xmlns:sodipodi="http://sodipodi.sourceforge.net/DTD/sodipodi-0.dtd" xmlns:svg="http://www.w3.org/2000/svg"
	 xmlns="http://www.w3.org/2000/svg" xmlns:xlink="http://www.w3.org/1999/xlink" x="0px" y="0px" viewBox="0 0 625 1150.6"
	 style="enable-background:new 0 0 625 1150.6;" xml:space="preserve">
<style type="text/css">
	.st0{fill:#EEFFAA;stroke:#4A4A4A;}
</style>
<defs>
	
		<inkscape:perspective  id="perspective2608" inkscape:persp3d-origin="372.04724 : 350.78739 : 1" inkscape:vp_x="0 : 526.18109 : 1" inkscape:vp_y="0 : 1000 : 0" inkscape:vp_z="744.09448 : 526.18109 : 1" sodipodi:type="inkscape:persp3d">
		</inkscape:perspective>
	
		<inkscape:perspective  id="perspective4281" inkscape:persp3d-origin="0.5 : 0.33333333 : 1" inkscape:vp_x="0 : 0.5 : 1" inkscape:vp_y="0 : 1000 : 0" inkscape:vp_z="1 : 0.5 : 1" sodipodi:type="inkscape:persp3d">
		</inkscape:perspective>
	
		<inkscape:perspective  id="perspective3999" inkscape:persp3d-origin="0.5 : 0.33333333 : 1" inkscape:vp_x="0 : 0.5 : 1" inkscape:vp_y="0 : 1000 : 0" inkscape:vp_z="1 : 0.5 : 1" sodipodi:type="inkscape:persp3d">
		</inkscape:perspective>
	
		<inkscape:perspective  id="perspective3032" inkscape:persp3d-origin="0.5 : 0.33333333 : 1" inkscape:vp_x="0 : 0.5 : 1" inkscape:vp_y="0 : 1000 : 0" inkscape:vp_z="1 : 0.5 : 1" sodipodi:type="inkscape:persp3d">
		</inkscape:perspective>
	
		<inkscape:perspective  id="perspective3233" inkscape:persp3d-origin="372.04724 : 350.78739 : 1" inkscape:vp_x="0 : 526.18109 : 1" inkscape:vp_y="0 : 1000 : 0" inkscape:vp_z="744.09448 : 526.18109 : 1" sodipodi:type="inkscape:persp3d">
		</inkscape:perspective>
	
		<inkscape:perspective  id="perspective5378" inkscape:persp3d-origin="0.5 : 0.33333333 : 1" inkscape:vp_x="0 : 0.5 : 1" inkscape:vp_y="0 : 1000 : 0" inkscape:vp_z="1 : 0.5 : 1" sodipodi:type="inkscape:persp3d">
		</inkscape:perspective>
	
		<inkscape:perspective  id="perspective5400" inkscape:persp3d-origin="0.5 : 0.33333333 : 1" inkscape:vp_x="0 : 0.5 : 1" inkscape:vp_y="0 : 1000 : 0" inkscape:vp_z="1 : 0.5 : 1" sodipodi:type="inkscape:persp3d">
		</inkscape:perspective>
	
		<inkscape:perspective  id="perspective5400-9" inkscape:persp3d-origin="0.5 : 0.33333333 : 1" inkscape:vp_x="0 : 0.5 : 1" inkscape:vp_y="0 : 1000 : 0" inkscape:vp_z="1 : 0.5 : 1" sodipodi:type="inkscape:persp3d">
		</inkscape:perspective>
	
		<inkscape:perspective  id="perspective3831" inkscape:persp3d-origin="0.5 : 0.33333333 : 1" inkscape:vp_x="0 : 0.5 : 1" inkscape:vp_y="0 : 1000 : 0" inkscape:vp_z="1 : 0.5 : 1" sodipodi:type="inkscape:persp3d">
		</inkscape:perspective>
	
		<inkscape:perspective  id="perspective2614" inkscape:persp3d-origin="372.04724 : 350.78739 : 1" inkscape:vp_x="0 : 526.18109 : 1" inkscape:vp_y="0 : 1000 : 0" inkscape:vp_z="744.09448 : 526.18109 : 1" sodipodi:type="inkscape:persp3d">
		</inkscape:perspective>
</defs>
<sodipodi:namedview  bordercolor="#666666" borderopacity="1.0" gridtolerance="10000" guidetolerance="10" id="base" inkscape:current-layer="layer1" inkscape:cx="255.12293" inkscape:cy="774.76952" inkscape:document-units="px" inkscape:pageopacity="0.0" inkscape:pageshadow="2" inkscape:window-height="750" inkscape:window-maximized="1" inkscape:window-width="1280" inkscape:window-x="-8" inkscape:window-y="-8" inkscape:zoom="0.49497476" objecttolerance="10" pagecolor="#ffffff" showgrid="false">
	</sodipodi:namedview>
<path id="path2421" sodipodi:nodetypes="cssssssssssssssssssssssssssssssssssc" class="st0" d="M123.1,609.8l0.5,3.3l3,3l-2,4.5
	l10.1,1.5l1,2.8l2,2.8l2.5,1.3l2.5-1.5l1.3-2.5l4.5-3.5l2,1.8l4.5,1.5l0.8-2.5l3.5-4.3l-2-2l-0.8-3l-3-0.8l-1.3-2.5l-2.3-1.5l-2.8,1
	l-2-1.8l-1.8-2.5l-2.5-1.3l-3,0.8l-7.1,5.1l-3-0.8L123.1,609.8L123.1,609.8L123.1,609.8z"/>
<path id="path2792" class="st0" d="M195.7,302l-1.8,0.4l-0.2,2.3l-9.1,12.6l-1.9,4.7l0.2,3.8l-0.1,0.5l-1.2,1.6l-0.5,1.4l-2.8,1.2
	l-1,1.8l-4.7,3.2l0.1,1.4l0.5,1.2l0.1,2.1l-0.9,1l-2.4-0.8l2.8,1.3l0.5,1.2l-1,1.4l-0.9,0.8l-2.2-2.9l-0.9,0.5l-1.1,1.2l-2.2,1.2
	l0.1,1.8l-0.8,1.3l-2.8,1.6l-0.9,1.4l4.2,5.7l-0.1,1.6l-0.9,1.3l-0.4,1.5l-1-1.9l0.2-1.6l-1.5,1.6l-1.5-0.1l-0.4-1.9l0.9-1.8
	l-0.1-1.8l-1.2,1.2l-2.2,6.4l1.6,1.3l0.6,1.4l0.6,0.5l0.1-0.2l1.8,1.1v1.9l-0.6,1.5l-3.9,5.7l-1.2,0.9l-1.5,3.8l0.1,2l4.4,2l2.2,3.4
	l0.3,2.3l1.1,2.7l0.4,2.7l3.2,3.4l-1.2,1.6l-0.2,2.5l1.2,1.6l1.8,1.2h0.5l1.4,2.3l2,0.9l1.6,1.2l2.2,0.5l1.9,1.1l10.2,2.3h2.5
	l1.6,1.2l0.3,0.9v5.4l1.6,2.1l1.8,1.4v2.8l-0.9,2l1.4,7l2.5,0.2l1.6,1.4l3.6-0.4l1.1-0.7l5.7,4.8l8.9,3.2l2.2-0.6h5.3l2.5,0.6
	l1.8,1.6l2.2-0.2l4.3-1.4l6.4-6.9l3.8-9.8l3.2-3.2l4.4-1.2l1.2-1.6l-0.3-6.6l3.8-7.5l1.6-1.1l2.3,0.7l1.1,1.6l4.7,0.9l1.6,1.4v5.3
	l1.1,0.6l0.7-1.6l1.4-1.2l0.9-1.8l1.1-4.3l1.6,1.4l0.4,0.5l2.8,1.4l2.5,0.4l2.5-0.5l6.1-5.2l2.3-0.3l1.4,1.2l2.3,0.5l5.2-0.2
	l1.8-1.1l2.7-2.7l2-6.2l1.4-1.4l2.5-0.5l4.3,0.5l1.6-1.1h4.1l3.9-2l1.2-2l2-1.2l1.2-1.6l1.8-1.1l1.2-2l0.6-2.2l1.8-0.9l10.5-0.2
	l1.4-1.2l1.2-2l0.7-2l2.5-0.2l1.2-1.6l1.6-1.1l2,0.9l1.2,1.4l4.3,1.2l0.9-1.8l1.8-1.1h2.7l4.1-1.8l1.6,1.1l2.5,0.9l2-0.7l1.2-2.1
	l0.5-2.2l2.3-3.8h0.9l3.2,2.3l1.1,1.6l4.7,1.1h2.7l1.1-1.6l4.8,0.5l1.2,1.2l6.4,1.8l1.8-1.4l0.9-1.8l-0.2-2.5l3.8-1.6l1.1-1.6
	l2.7,0.2l1.4-1.2l0.6-2.3l-0.9-4.7l1.2-2l2.3-0.9l1.6-1.1l1.8-4.1l1.4-1.6h2.7l1.8-1.2l1.4-1.8l2.2-4.3l0.7-7.3l0.9-2l2.3-1.2
	l1.2-1.4l-1.2-2.1l-1.6-1.1l-1.1-1.8l-2.2-1.1l-7.1,0.9l-1.8,0.9l-2.3,0.3l-1.6,1.2l-1.2,2.3l-2.7,0.4l-1.8-0.9l-4.1-7h-4.8l-2-0.7
	l-2.7-2.7l0.9-7.2l-0.5-2.1l-0.9-1.8l-1.2-1.4l-0.4-0.2l-1.7,0.9l-0.7,1.4l-1.2,0.8l-5.8-0.1l-1.2,0.7l-6.5-0.2l-0.1,0.8l-1.8,0.9
	l-2,1.6l-1.4,1.8l-0.2,2.5l-3.4,5.5v2.7l-2.2,0.6h-2.7l-1.8-2.5l0.9-1.4l-2.7-1.1l-2,0.9l-0.7,2.2l-1.2,1.8l-2.3,0.7l-4.8,6.8
	l-2,0.7h-5.3l-1.8,1.2l-0.7,2l-0.7,0.2l-2,2.2l-0.4,2.5l-2.1,0.5l-3.4,2.8l-2.1,0.6l-5-0.6l-4.5,1.6l-5.4,6.8l-2.7,0.2l-2-1.1
	l-3.2-3l-0.4-2.5l-1.8-1.2l-2.7-3.9l-1.6,0.3h-2.5l-1.9-0.9l-5-0.3l-6.1-2.2l-4.8-0.2l-2.2,0.6l-1.4,1.4v2.7l0.9,2l0.4,5l-0.9,1.9
	l-1.8,1.4l-2.2,0.7l-10.3-0.3l-2,0.9h-5.3l-5.2-1.6l-3.2-3l-1.1-2l-1.6-1.2l-11.2-2.2l-3.4-2.8l-2.5-0.7l-1.4-2l-3.6-2l-1.4-1.6
	l-2.1-0.7l-1.2-1.6l-0.9-0.4l-3-0.3l-1.2-1.8l-3.2-2.2l-7.5-9.7h-0.7l-0.9-1.8l-4.5-1.8l-2.3-3.8l-0.4-2L195.7,302z"/>
<path id="path3635" sodipodi:nodetypes="ccssssssssscssssssssssssssssssssssssssscssssssssssssssssssssssssssscssssssssssssssssssssssscsss" class="st0" d="
	M547,76.5l0.1-1.2l-1.1-1.1l0.5-3.4l-1.8,0.1l-2.4,1.5l-2.2-2l-1.9-0.2l-0.9-0.6v-2.1l-1.6-0.4l-0.8,1.4l-1.5,0.4l-0.4-1.5h-1.3
	l0.5,1.5l1.4,2l-1.8,2.2l-2.8,2l-1.2,0.1l2.3-2.2l-0.8-1.4v-3.2l-1.5-0.1l-1.4-0.8l-1.8-0.2l-2-2h-3.9l-1.1-0.8l0.3-1.4l-0.4-0.9
	l-1.8,1.2l-2,0.7l-1.1,1.6l-2.3,0.5l-1.2,1.6l-4.1,1.8l-2.5,0.2l-2,0.7l-1.8,1.2l-4.8,0.5v2.7l1.1,2l2.3,1.1l1.4,1.6l0.2,2.5l3,6.8
	l2.3,1.6l1.6,2.1l2.3,0.5l1.4-1.2v2l1.6,1.8l7,1.8l5.4,4.6l5.2,0.4l4.6-2.3l2.5-0.2l1.1-1.8l0.7-2.1l-4.6-4.5v-4.8l-0.5-2.1l2.3-0.5
	l2.9-3l2.5,0.5l1.8,1.2l0.9,0.2l1.8-2.9l1.4-1.4L547,76.5L547,76.5L547,76.5z"/>
<path id="path2861" sodipodi:nodetypes="csssssssssscssssscssssssssssscssscsssssssscssssssssssssssssscssssscssssssscscsssssssssssssssssssssssccssssssssssssssssssssssscssssssssscssscssssssssscsssssssssssscsssssssssscsssssssssscsssssssssssssssssssssssssssssssscssssssssscsssssssssssssssssscsssssssssssssssssscsssssssssscssssssssssssscssssssssssssssscsssssssssssssssssssssssssssssssssssscsssssssssssssssssssscsssssssssssssssssssssssssssssssssssssscsssssssssssssssssssssssssssssssssssssssssssssssssssssssssssssssssssssssssscsssssssc" class="st0" d="
	M275.2,1020.1l-3,1l-2,1.8l-3.3,1.3l-2.8-4.8l-3-0.8h-4l-1.3-2.8l-2.8-1l-2.3-1.5l-4.3,0.3l-0.5-2.3l0.8-3.3l1.8-1l-2.8-1l-1-2.5
	l-4.8-2.8l1.8-2.3l2.5-1.3l-0.3-7.6l-2.5-1.5l-1.3-2.5h-2.8l-3.8-4l-3.5-1.8l4.8-14.6l6.6-1l1.3-2.8l-0.8-3.3l-2.8-2l-2.5-5.3
	l-4-2.5l-0.3-3l-1-3l4.3-3.3V935l-4-8.1l-0.5-4.3l-1.8-1l-1-3l0.5-3.5l2.8-5.1l-1.3-2.8l1.5-2.3l1-2.8l-0.3-3.5l1-2.5l2-2l0.8-3
	l1.8-2l0.3-1l4-5.6l0.3-3.5l1.8-2.3l0.3-2.5l3.3,0.5l3.5-1.8l6.1-1.3l3-6.3l11.1-0.5l2-2.3l0.3-3.5l1.8-2l0.5-9.9l2-2l-1-2.3V839
	l-1-3.3l-2.5-1.3l-3.3-0.3l-2.8-2.5l-0.8-1.5l-1-8.3l-3.8-2.5l-2.3,0.8l-0.3-1.3l-2.5-1.3l-1-0.3h-3.3l-1.5,2.3l-5.1,2.5l-1.8,2.3
	l-2.8,1.5l-2.8-1.5l-6.3-7.6l-8.6-5.3h-3.8l-3,0.8l-3.3,4.8l-3,0.8l-1,1H207l-2.8-1.3v-3.8l-1.8-2l-3-1.3l-3,0.8l-2.8,2l-3.5,0.3
	l-6.6,4.5l-1.3,0.5l-4,3.3l-0.3,1.3l-2.5,3.3l-2.3,1.8l-3.5,0.3l-6.1-1.5l-2.8,1.3h-3.8l-1.5-2.3l-4.5-0.3l-1.8-0.8l-2.5,1.3
	l-1.5,9.8l-1.3,2.5l-0.5,3.3l-1.3,2.8l0.3,15.2l-0.8,1.3l0.3,4.5l-1.8,6.8l-1.8,2.3l-2,6.1l-0.3,18.2l3.5,4.3l-2.8,16.4l-1.3,2.8
	l-2.5,2.2l-0.2,1.8l-0.8,1.1l-0.1,3.8l-0.5,1.3l0.8,1.8l0.1,9.1l2.9,0.2l2,1.9l-0.1,1.8l-0.9,0.2l1.8,2.4l5,3.7l0.9,1.2l1.4,0.6
	l0.6,0.1h-0.2l0.2,0.4l3,1.3l1.2,1.2l1.5,1l2.9,1l1.1,1l1.5,0.8l1,0.9l1.7,0.8l1.1,1l9.6,5.2l1.1,1.4l1.7,0.5l10.8,8.7l0.9,1.3
	l2,5.4l-0.4,0.8l5.4,3.7l5.8,7.3l0.5,1.5v4.8l1.8,2.9l0.8,3.4l-0.1,1.8l-0.5,1.5l0.1,1.5l4,3.4l0.9,1.2l1.3,1l0.8,1.2l1,3.5l3.3,3.4
	l-0.9,1.8v1.9l0.4,1.8l1.2,1.2l1.6,4.9l0.1,5.6l1,3.3v1.9l0.7,1.2l0.5,2.2l1.2,1.1l0.8,1.2l0.3,1.8l1.4,1.4l0.2,3.6l0.8,1.2
	l-0.1,1.9l-0.8,1.2l-5.2,1.5l0.2,1.7l1.8,0.4l0.5,1.3l-0.1,0.6l0.4,1.6l0.6,1.3l-0.6,1.2l-0.9,1l-2.5,1.5l-0.2,1.6l1,1.2l-3.8,3.5
	v3.7l1.5,0.9v1.9l1.2,1.1l-0.4,1.5l3.9,3.4l0.4,1.4l1.3,1.3l0.8,1.2l0.5,2.5l-0.9,3l0.1,5.9l-1.1,2.7l0.9,1.1l1.8,0.2l0.9,3.3l1,1.7
	l3.9,0.4l1.5-2.4l1.1-0.9l0.2-1.7l-0.8-3.2l0.6-1.4l1.4-0.6l2-2.2l1.3-0.6h1.9l0.5,1.4l4.2,2.9l0.5,0.1l2.3-0.1l1.6,0.4l0.6,1.3
	l1.5,0.4l1.4,0.9l1.9,0.6l1.9,0.1l3.8,3.8l0.1,1.8l1.9,0.6l0.9,0.8l0.6,1.2l0.1,1.8l2.7,2.5h1.9l1.3-0.9l-0.2-1.7l-1-0.9l-0.4-1.6
	l0.1-1.8l-0.5-1.4l-4.9-7.5v-7.3l0.5-1.4l-0.6-1.4l0.5-3l1-0.4l0.1-1.7l3.4-0.5l1.7-0.6l0.6-1.2l1.5-0.4l1.3-1l0.5-1.5l0.1-1.8
	l0.9-1l1.8-0.1l0.4-3.4l3.7-2.4l0.4-1.4l-2-2.5l-0.1-9.3l-1.2-1.7v-1.9l2.7-4.5l1-1.1v-1.5l-1.5-0.6l-2-2.2l-0.6-1.6l-0.2-4.8
	l0.2-0.7l0.9-0.1l0.5-0.6l0.7-0.5l0.3-0.7l-0.9-1.4l0.1-3.7l-0.8-1.3l0.2-0.6l0.5-0.6l0.3-0.6l0.2-0.8l-0.2-0.8v-1.9l-0.3-1
	l-0.4-0.6l0.1-1.1l-0.6-0.8l-0.3-0.8l0.2-1.6l1.4-1.2l0.4-0.6l0.2-0.7l0.1-1.8l-0.2-0.8v-0.7l0.2-0.5l-0.9-1l0.8-3.3l1-1.1l0.5-1.4
	l-1-1.2l-0.2-0.9"/>
<path id="path2531" class="st0" d="M450.2,71.4l-1.2,2.7l-1.2,1.2l-0.5,0.7l-1.2,1.4v2.7l-1.8,1.1l-0.4,2.3l0.7,2.3l1.8,1.2l5.7,0.7
	l3.6,3.4l1.4,2.7l0.2,8.2l-2.7,3.7l-1.8,1.6l-0.9,2l0.5,5.2l1.1,2.1l2.1-0.2l2-1.1l1.2-1.8l1.2-0.2l2.9,1.2l1.6,1.2l0.7,2v2.7
	l1.2,2.1l2.3,1.6l2.5,0.2l1.1,4.3l3.8,2.5l10,1.1l2.1-0.9h2.9l0.2-1.8l-4.8-2.3l-0.4-2.5l0.2-2.1l-1.2-4.1v-2.3l1.2-2l1.8-1.1l5,0.4
	l1.6-1.1l2.1-0.5l6.8,0.4l0.5-1.4l-1.6-0.7l-2.2,0.8l-3.9-1.8l-4.8-3.6l-0.9-2l1.2-1.6l-0.4-2l-1.4-1.4l1.1-1.2l2.3-4.8L493,88
	l-7.7-6.6l0.5-2.3l1.4-1.6l-0.5-1.8l-2.9-2.5l-1.1-1.6l-0.2-5.2l-2.9-2.9v-2.7l0.7-2v-2.7l-4.6,0.4l-2-3.6l-1.4-1.6l-2.5,3.9l-2,0.9
	l-0.9,2l-3.8,2.1l-0.9,2.3l-1.6,1.1l-2.5,0.2l-2,0.9l-3,3.6l-0.9,2.3L450.2,71.4L450.2,71.4L450.2,71.4z"/>
<path id="path3690" sodipodi:nodetypes="csssssssssssssssssssssssscsssssscsssssssssssssscsssssssssssssssssscsssssssssssssssssssssssssssscsssssssssssssssssssssssssssssssssssssscsssscsssssssssssssssssssssssssssssssssssssssssssssssssssssssssssssssssssssssssssssssssssscsssssssssssscssssssssssssscsssssssssssscssssssssssssssscsssssssssssssssssssssssssssssssssssscssssssssssssssssssssssssscssssssssssssssssssssssssscssssssssssssssscssssssssssssssssssssssssssssssc" class="st0" d="
	M449.8,225.8l-0.5,1.2l-1.6,0.5l-3.5,0.3l-1.3,0.8l-1.8,2.4l-0.6,5.1l-2.3,3l-0.4,1.5l-0.6,1.3l-0.4,1.5l-3.4,5.3l-0.3,1.6h-1.8
	l-1.4,0.6l-1.1,0.9l-0.4,0.7l-0.9,0.9l0.1,0.6l1.1,0.8l0.6,1.4l0.1,1.8l0.5,1.4l-1.3,1.1l-0.5,0.3l-0.5,0.8l-1.3,0.8l-1.4,1.5
	l-0.4,1.6l0.6,1.3l0.1,7.3l-0.8,1.8l-1.1,1.4l-1.4,1l-1.6,2.5l-1.8,1.4l-0.5,1.3l-1.4-0.1l-3.4,4.9l-1.3,0.8l-1.9-0.4l-1.4,2.8
	l-1.4,0.8l-1.1,2.9l-0.9,1.1l-1.5,1.3l-1.3,2.5l0.1,1.6l-0.7,1l1.4,1.7l0.9,1.8l0.5,2.1l-0.9,7.1l2.7,2.7l2,0.7h4.8l4.1,7l1.8,0.9
	l2.7-0.4l1.2-1.6l1.6-1.2l2.3-0.4l1.8-0.9l7.1-0.9l2.1,1.1l1.1,1.8l1.6,1.1l1.3,2.1l12,7.7h8.1l3,1.3l4,0.5l8.1,5.6l8.3,1l3-0.8
	l-3-2.5l0.8-3l3.3-0.8l2.3-1.5l2.3,1l2-1.8l-0.8-1.5l-2-1.8l0.3-3.3l2-0.8l4.3,3.8l4.8,1.5l4.5,3.5l9.1,3.8l7.3,0.5l8.1,4l4.1,0.5
	l-0.2-4l-0.8-1.2l0.1-3.7l2.5-4.8l0.4-1.5l1.5-2.5l0.5-10.9l0.5-1.6l0.9-1.2v-2.1l1-3.5l1.8-2.4l0.5-1.8l2.7-1.6l1-1.2l1.3-2.6
	l0.1-1.8l4.5-4.3l4.6-1.9h1.9l0.5-0.2l-1.4-0.8l-1-1l-0.8-1.2v-1.9l-2.5-1.5l-0.5-4.9l1.8-1.1l0.9-1.3l3.3-0.6l2.8-1.8l1.7-0.4
	l0.5-1.7l-0.1-1.5l-0.6-1.8l-0.1-1.8l-0.8-1.1l-0.3-3.5l0.8-1.1l-0.9-1.4l0.7-1.5h1.9l-0.2-1.4l-1-0.9l-0.2-0.5l1.5-0.7l-1.2,0.3
	l-1.8-0.7l-0.1-1.2l-2.4-2.2l0.4-1.6l1.8-0.1l1.5,0.9l0.2,1.8l1.8-0.1l1.5-0.8l-3.7-3.7l-3-1l-0.4-0.8l-0.5-0.2l-1.6-2.2l-0.1-1.3
	l-3.7-9.1l-0.1-3.8l-0.8-1.1l0.4-0.6v-2l-0.5-1.7l0.5-10.2l-2.9-3.2L553,208v-1.7l-1.4-1.6l-0.6-3.4l0.1-1.8l-1-1l0.5-14l0.7-2.2
	v-1.9l1.2-2.8l-0.2-3.7l1-3l0.1-1.8l2.4-5.2l0.2-1.8l1.3-2.2l1.5-0.8l1-2.9l0.9-1.1l1.4-0.5l3.8-4.4l1.3-0.6l3.2-3.7l0.2-3.5
	l0.5-1.5l2.8-1.6l1.5-0.4l1.5-2.2l1.2-0.9l1.2-0.6l2.5-3.5l0.3-1.9l1.8-1l1.8-0.2l1.2-0.5l1.1-1.1l1.7-0.2l1.2-0.8l1.9-0.1l2.7-1.2
	l-3.6-0.7l-2.5,0.2l-6.2,2.3l-5.4,0.4l-6.8,4.8l-1.4,1.6h-2.9l-2.3-0.9l-5.2-0.4l-1.8,1.4l-0.5,2.1l-0.9,1.8l4.1,5.9l-1.4,4.3
	l-5.9,3.9l-5.4-0.4l-2.3,0.4l-3,2.5l-2.5,3.2l0.5,2.3l-0.2,2.1l-1.4,1.8l-0.2,2.1l0.2,1.2l-2.5,0.5l-1.8,0.9l-7.5-1.1l-2.3,0.4
	l-2,1.1l-2.7,3.2l-4.8,2.6l-0.5,1.7l-1.8,1.6l-1.1,1.8l-2.1,0.7l-0.7,2l-1.6-1.8l-3.6,1.8l-10.5,1.2l1.4,1.2l-0.5,2.1l-2.3,1.8
	l-2.5-0.7l-1.8,1.1l-2.1,0.5l-0.9,2l0.2,2.5l-0.2,2.3l-2,1.6l0.4,2.5l1.4,1.4l0.7,2.1v2.7l-1.4,4.3l-2.3,0.4l-1.6,1.2l-1.1,1.6
	l-2.1,0.7l-2.7,0.2l-5.9,3.2l-0.5,2.5l-5.2,3.4l-4.6,0.7l-2.3,1.4L449.8,225.8L449.8,225.8L449.8,225.8z"/>
<path id="path2707" sodipodi:nodetypes="csssssssssssssssssssssssscssssssssssssssssscssssssssssscssssssssssssssssssssssssssssssssssscssssssssssssssssscssssssssssssssscsssssssssssssssssssssssssssscssscssssssssssssssssssssssssssssssssscssssssssssssssssssssssssssssscsssscssssssssssssssssscssssssssssssssssscsssssssssssssssssscssssssssssssssssssssssscsssssssssssssssssssssssssssssssc" class="st0" d="
	M449.9,225.7l-0.5,1.2l-1.6,0.5l-3.5,0.3l-1.3,0.8l-1.8,2.4l-0.6,5.1l-2.3,3l-0.4,1.5l-0.6,1.3l-0.4,1.5l-3.4,5.3l-0.3,1.6h-1.8
	l-1.4,0.6l-1.1,0.9l-1.5,1.9l-0.8,0.5l-1.8,0.4l-3.7-0.5l-1.5-0.9l-1.3-1.9h-0.9l-0.8-1l-0.5-1.5l-1.4-0.5v-3.9l0.8-1.4l0.4-1.8
	l-1.5-0.8l-1.6-0.3l-1.3-0.8l-0.1-3.8l1-1l0.1-1.9l0.5-1.5l-0.3-1.9l-1.6-0.8h-1.8l-0.6-1.3l-0.3-1.8l-0.8-1.3l-1.1-0.9l-2.3-2.9
	l-2.9-1.4l-3,1l-1.4-0.5v-3.8l1.1-1.1l0.6-1.3v-3.8l-2.1-0.4l0.1-4.4l0.5-1.4l0.9-1.3l0.4-1.6l-1.3-1.3l-0.6-1.5l-1.8-0.4l-1.3-1.3
	l-1.4-0.5l-1.8-0.1l-0.5-0.8h-0.3l-1.6-0.9l-1-1.3l-1.5-0.9l-0.4-0.6l-0.1-1.1l-0.9-2.4l-1.5-0.6l-2.1-0.4v-1.9l-1.5-0.5l-3.9,1.8
	h-1.6l-5.7-4.5l-1.4-0.6l-1.1-1.1l-2-0.8V177l-1.9-0.3l-1.8-0.6l-3.5-2.8l-0.6-0.9l-3-1.9l0.4-1.6l1.8-2.8l-0.5-5.6l-1.4-1l-11.7-1
	l-0.8-1.5l-0.3-1.9l1-0.9l-1.4-0.8l-1.3,0.9l-1.6,0.6l-1.9,0.1l-1.6-1.3l-2-0.6h-1.9l-1.3-1.4l-3-1.1l0.1-3.7l0.6-1.5l-1.1-3
	l-0.1-1.8l-1.8-0.1l-2.1-2.1l-3.7-0.3l-4.3,1.3l-2.3-1.5l-4.3,2.5l-3.1-0.8l0.5-0.8l1.2-1l3-4l0.6-1.4l1.3-1.3l1.2-0.8l1.8-1.9v-3.7
	l-0.9-1.2l0.1-1.8l3-3.8l1-2.9l1.1-0.9l2.4-3.5l4.7-4.1l3.9-1.8l1.6-0.2l1.2-1.2l1.5-0.5l2.5-1.6l1.2-1.4l1.7-1l1.8-0.5l2.8-2.2
	l1.5-0.6h2l12.1-3.2L359,91l3.5-1.6l3.7-3.7l1.7-1l2.1-0.1l8.3-3.4h1.9l1-1l3.5-0.8l1.5,0.5l2.5,2l2.4,0.1l0.8,1.9l1.2,1.4l1.2,0.4
	l1.2,1.6l5,0.5l9.3,4.5l-0.5,3.6l2,1.8l5.2,1.2h5.4l1.2,0.9l1.8,2.1l0.5,2.3v0.7l-0.9,1.8l0.4,2.3l1.2,1.4l2.3,1.6l-0.9,1.6l-2,1.2
	l-2,0.7l2.1,1.6l0.2,2.1l-1.6,1.1l-2.1,0.7l-2,3.6l-2.9,2l-11.2-0.4l-1.8,0.9l-0.5,2.1l1.1,2l-0.5,5l-1.4,1.4l-0.9,2l1.2,2.3
	l2.1,0.2l1.6,1.2l-2.1,1.4l-1.2,1.4l-0.9,2l0.9,4.3l4.5,2.7l3.4,5.2l-1.2,1.6l0.4,2.1l2.7,1.8l-1.6,1.2l-4.6,0.9L407,170l2.5,0.4
	l1.6-1.2l1.6,1.6l1.8,1.1l2.9,0.7l2.7-0.2l2-1.1l5.4-0.4l1.2,0.7l0.4,0.9l1.4,1.4l0.7,2l2.9,2.9l1.6,0.9l1.6,1.8l0.2,2.5l0.9,2.5
	l2.3,0.7v2.7l-1.6,1.1l-1.1,1.6l-3.2,2.7l-1.1,2l0.4,2.3l0.9,1.8v1.1l2,5l3.2,3l-0.5,2l2.5,1.1l0.2,1.8l2.5,0.7l1.4,2l2,1.4l0.5,5
	L449.9,225.7L449.9,225.7L449.9,225.7z"/>
<path id="path2732" sodipodi:nodetypes="csssssssssssscsssssssssssssssscsssssssssssssssssscssssssssssssssssssscssssssscscsssssssssssssssssscc" class="st0" d="
	M272.1,205.9l0.2,1.1l1.3,0.6h2l1.4-0.5l1.1-0.9l1.4,0.5l1.9,2.3l0.5,1.6v1.5l4.9,1.3l0.7-0.5l2-2.4l0.4-3.7l1.3-2.9l1.6-0.4l1-1.5
	l1.5-0.6l1.1-0.9l0.5-1.5l0.9-1.4l5.4-1.3l-0.5-1.4l1.1-1.8l1.5-0.5h1.9l7.1,7.2l1.5-1V195l-3.3-11.1l-1.9-2.6l-3.4-2.9l-3.7-0.4
	l-0.1-0.6l-0.5-1l-1.4-0.9h-1.9l-7.7-1.9l-1.9-2.7l-0.5-1.4l-1.6-1.2l-1,0.8l-1.5,0.6l-5.1,7l-1.2,1.1l0.6,3l-0.2,1l0.5,0.5l1.9,0.1
	l0.2,1.6l-0.8,1.5l-0.4,3.5l-0.8,1.1L280,194l-1.9,2.5l-0.5,1.5l1.4,1.1l-0.8,1l-0.6,1.8l-2.3,2.2l-1.8,1L272.1,205.9L272.1,205.9
	L272.1,205.9z"/>
<path id="path2726" sodipodi:nodetypes="cssssssssssscssssssssssssssssssssssssssssssssssssssssssscsssssssssssscsssssssssssssssssssssssssssssssssssssssssssssssssssscsssssssssssssssscsssssssssssssssssscssssssssssssssssssscsssssssscssssssssssscssscsssssssssssssssssssssssssssscssssssssssssssscssssssssssssssssscssssssssssssssssssssssssssssssssssscssssssssssscssssssssssssssssscsssssscsssssssssssssscssssssssssssssssssc" class="st0" d="
	M402.1,302.4l-1.7,0.9l-0.6,1.4l-1.3,0.8l-5.8-0.1l-1.3,0.6l-5.7-0.1l-0.9-1l-0.1-2.1l0.3-1.3l-0.6-0.8v-3.8l-0.9-1.3l-1.5-0.9
	l-1.1-1.3l-0.6-1.5l-2.1-2.4l-0.6-1.5l-1.5-0.8l-0.8-1.1l-1.6-0.9l-0.5-1.3l0.3-2.9l-1.1-1.5l-3.7-0.3l-1.5,0.5l-2.7,1.8h-4.3
	l-1.4,0.8h-1.9l-1.3-1.1l-7.6-0.4l-1.4,0.5l-1.5-0.4h-1.9l-2.1,1.9l-3.4,1.4l-3.4-0.8h-5.9v-2.1l-0.9-1.9v-2l0.8-1.5l2.1-2.3
	l0.5-1.5l-0.1-1.9l-1.5-2.9l-2.7-2.1l2-3.3l1.1-4.2l1.1-1.4l0.1-1.8l0.9-1.3l0.4-1.6l-1.4-0.8l-1.1-3.4l-1.9-0.5l-1.4-3.2l-0.9-0.4
	l-2,0.5l-1.5,0.9l-2.4-1.9l-0.9-1.5l-1.6-0.4l-1.3-0.9l-2-3.2l-1.8-0.3l-1.8-0.8l-0.1-1.8l-1.1-1.3l-1.8-0.3l-3.3-2.1l-0.9-1.5
	l-1.4-1.4l-1.6-2.9l-0.3-1.8l-2-0.8l0.4-1.3l0.9-1.4l0.3-1.6l1-1.3l-1.4-0.8l0.9-1.1l-3.5,0.3l-1.3,1l-1.5,0.6l-0.9-1.1h-2.9
	l-1.5-0.8l-1-1.2l2.5-3.1l0.4-3.7l1.3-2.9l1.6-0.4l1-1.5l1.5-0.6l1.1-0.9l0.5-1.5l0.9-1.4l5.4-1.3l-0.5-1.4l1.1-1.8l1.5-0.5h1.9
	l7.1,7.2l1.5-1v-3.8l-3.3-11.1l-1.9-2.6l-3.4-2.9l-3.7-0.4l-0.1-0.6l-0.5-1l-1.4-0.9h-1.9l-7.7-1.9l-1.9-2.7l-0.5-1.4l-1.6-1.3
	l0.6-1.5l2-2.5l0.5-1.8l1-0.9l0.6-3.4l5.6-6.9l-0.8-1.5l-0.4-1.9l5.5-7.9l3.1,0.8l4.3-2.5l2.3,1.5l4.3-1.3l3.7,0.3l2.1,2.1l1.8,0.1
	l0.1,1.8l1.1,3l-0.6,1.5l-0.1,3.7l3,1.1l1.3,1.4h1.9l2,0.6l1.6,1.3l1.9-0.1l1.6-0.6l1.3-0.9l1.4,0.8l-1,0.9l0.3,1.9l0.8,1.5l11.7,1
	l1.4,1l0.5,5.6l-1.8,2.8l-0.4,1.6l3,1.9l0.6,0.9l3.5,2.8l1.8,0.6l1.9,0.3v1.4l2,0.8l8.2,6.3h1.6l3.9-1.8l1.5,0.5v1.9l2.1,0.4
	l1.5,0.6l0.9,2.4l0.1,1.1l0.4,0.6l1.5,0.9l1,1.3l1.6,0.9h0.3l0.5,0.8l1.8,0.1l1.4,0.5l1.3,1.3l1.8,0.4l0.6,1.5l1.3,1.3l-0.4,1.6
	l-0.9,1.3l-0.5,1.4l-0.1,4.4l2.1,0.4v3.8l-0.6,1.3l-1.1,1.1v3.8l1.4,0.5l3-1l2.9,1.4l2.3,2.9l1.1,0.9l0.8,1.3l0.3,1.8l0.6,1.3h1.9
	l1.6,0.8l0.3,1.9l-0.5,1.5l-0.1,1.9l-1,1l0.1,3.8l1.3,0.8l1.6,0.3l1.5,0.8l-0.4,1.8l-0.8,1.4v3.9l1.4,0.5l0.5,1.5l0.8,1h0.9l1.3,1.9
	l1.5,0.9l3.7,0.5l2.6-0.7l1.4,1l0.6,1.4l0.1,1.8l0.5,1.4l-1.3,1.1l-0.5,0.3l-0.5,0.8l-1.3,0.8l-1.4,1.5l-0.4,1.6l0.6,1.3l0.1,7.3
	l-0.8,1.8l-1.1,1.4l-1.4,1l-1.6,2.5l-1.8,1.4l-0.5,1.3l-1.4-0.1l-3.4,4.9l-1.3,0.8l-1.9-0.4l-1.4,2.8l-1.4,0.8l-1.1,2.9l-0.9,1.1
	l-1.5,1.3l-1.3,2.5l-0.1,1.8L402.1,302.4"/>
<path id="path2781" class="st0" d="M288,214.8l1.5,0.8h2.9l0.9,1.1l1.5-0.6l1.3-1l3.5-0.3l-0.9,1.1l1.4,0.8l-1,1.3l-0.3,1.6
	l-0.9,1.4l-0.4,1.3l2,0.8l0.3,1.8l1.6,2.9l1.4,1.4l0.9,1.5l3.3,2.1l1.8,0.3l1.1,1.3l0.1,1.8l1.8,0.8l1.8,0.3l2,3.2l1.3,0.9l1.6,0.4
	l0.9,1.5l2.4,1.9l1.5-0.9l2-0.5l0.9,0.4l1.4,3.2l1.9,0.5l1.1,3.4l1.4,0.8l-0.4,1.6l-0.9,1.3l-0.1,1.8l-1.1,1.4l-1.1,4.2l-2,3.3
	l2.7,2.1l1.5,2.9l0.1,1.9l-0.5,1.5l-2.1,2.3l-0.8,1.5v2l0.9,1.9v2.1h5.9l3.4,0.8l3.4-1.4l2.1-1.9h1.9l1.5,0.4l1.4-0.5l7.6,0.4
	l1.3,1.1h1.9l1.4-0.8h4.3l2.7-1.8l1.5-0.5l3.7,0.3l1.1,1.5l-0.3,2.9l0.5,1.3l1.6,0.9l0.8,1.1l1.5,0.8l0.6,1.5l2.1,2.4l0.6,1.5
	l1.1,1.3l1.5,0.9l0.9,1.3v3.8l0.6,0.8l-0.3,1.3l0.1,3.9l-1.8,0.9l-2,1.6l-1.4,1.8l-0.2,2.5l-3.4,5.5v2.7l-2.1,0.5h-2.4l-1.8-2.5
	l0.9-1.4l-2.7-1.1l-2,0.9l-0.7,2.1l-1.2,1.8l-2.3,0.7l-4.8,6.8l-2,0.7h-5.4l-1.8,1.2l-0.7,2l-0.7,0.2l-2,2.1l-0.4,2.5l-2.1,0.5
	l-3.4,2.9l-2.1,0.5l-5-0.5l-4.5,1.6l-5.4,6.8l-2.7,0.2l-2-1.1l-3.2-3l-0.4-2.5l-1.8-1.2l-2.7-3.9l-1.6,0.4h-2.5l-2-0.9l-5-0.4
	l-6.1-2.1l-4.8-0.2l-2.1,0.2l-1.4,1.4v2.7l0.9,2l0.4,5l-0.9,2l-1.8,1.4l-2.1,0.7l-10.4-0.4l-2,0.9h-5.4l-5.2-1.6l-3.2-3l-1.1-2
	l-1.6-1.2l-11.2-2.1l-3.4-2.9l-2.5-0.7l-1.4-2l-3.6-2l-1.4-1.6l-2.1-0.7l-1.2-1.6l-0.9-0.4l-3-0.4l-1.2-1.8l-3.2-2.1l-7.5-9.6h-0.6
	l-0.9-1.8l-4.5-1.8l-2.3-3.8l-0.4-2l-3.8-4.7l1.6-0.7l3.8-3.2l3-3.9l0.6-1.4l5.2-6.8l1.2-3.2l1.4-1.9l9.5-28.2l2.2-2.9l0.1-0.8
	l1.2-1.2l3.2-0.8l2.7,2.3l1.1,1.7l0.4-1.5l-0.4-2l2.7-1.6h1.4l1,0.2l-0.1-1.7l-1.7-0.8l-1.5-1.1l1-0.9l0.6-3.3l3-5.3l1.7-0.2l2-2.4
	l5.6-0.2l4.4-2h2.4l3.9,1.4l1,1l2.2,0.5l1.3-0.8l-0.8-1l-1.9-0.2l-1.5-0.7l-0.8-1.6l-1.8-0.2l0.1-1.8l1-1.1l1.5-0.8l5.5-4.7l0.5-1.6
	l0.9-1.2l0.4-1.5V212l1.2-2.8l1.3-1.1l0.9-1.3l1.9-0.8l0.5,1l1.3,0.6h2l1.4-0.5l1.1-0.9l1.4,0.5l1.9,2.3l0.5,1.6v1.5l4,1.1
	L288,214.8L288,214.8L288,214.8z"/>
<path id="path2785" sodipodi:nodetypes="cssssssssssssssssssssssssssscsssssscssssssssssssssssssssssssssssssssscsssscsscssssssssssssscsssssssssscssssssssssssscsssssssscssssssssssssssssscsssssssssssssscsssssssssssssssscssssssssssssssscssssssssssssscssssssssssssssc" class="st0" d="
	M84.6,499.9l6.3,2.3l3.8,0.3l5.8,1.8l16.2-0.8l2.8-1l14.6,0.3l2.5-1.3l5.1,2.8l0.8,1.3l4.3,0.5l8.1,4l6.3,1.5l7.3-0.3l3-0.8
	l30.6,5.1l5.8-1.8l2-1.8l1.3-2.5v-3.3l-2-0.5l-2.5,1.3h-3.4l-2.5-1.3l-7.3-7.8l0.3-2.3l1.3-2.5l-1.8-2l1.5-2.5l0.5-3.3l1.3-2.5
	l1.3-9.6l-0.5-2.8l0.5-2.3l-1-5.6l1.5-2.3l2-1.8l1.3-2.5l0.3-3.5l-1.3-2.8l-1.8-2l-0.5-0.3l0.3-3.8h7.6l4-2.3l-5.8-4.8l-1.1,0.7
	l-3.6,0.4l-1.6-1.4l-2.5-0.2l-1.4-7l0.9-2V424l-1.8-1.4l-1.6-2.1v-5.4l-0.4-0.9l-1.6-1.2h-2.5l-7.5-2.1l-2.7-0.2l-2-1.1l-2.1-0.5
	l-1.7-1.1l-2-0.9l-1.4-2.3h-0.6l-1.8-1.2l-1.2-1.6l0.2-2.5l1.2-1.6l-3.2-3.4l-0.4-2.7l-1.1-2.7l-0.4-2.3l-2.1-3.4l-4.4-2l-1.5,0.4
	l0.5,1.5l0.7,0.9l-1.5,0.8l-3.2,4.2v0.1l-2.7,4.3l-1.2,0.8l-5.6,0.1l0.2,1.5l1.5,1.3l-0.1,3.7l-1,0.9l-0.6,1.4l-0.4,1.8l-0.9,1.2
	l-0.1,3.8l-0.1,0.4l-1,1.5v1.9l0.6,1.2l-0.2,1.9l-1.4,1.2l-3,1.2l-0.8,1.8l-2.3,2.4l-0.2,3.5l-0.6,1.4l-2.7,0.5l-1.4,1.1l-1.6,0.2
	l-2.4,1.8l-1.4,0.5l-0.4,1.6l-4.1,3l-0.8,3v2.2l-0.9,1.5l-0.2,1.6l-1.3,0.9l-0.6,3.3l-2.4,0.2l-1.9-0.4l-1.4,1.2l-1,4.9l0.4,1.2h3.8
	v0.9l-4.8,7.2l-0.2-0.1l-0.4,2l-0.9,1.1l-0.4,1.5l-1,1l-1.3,4.8l-2.1,2.4l-0.5,1.8l-1.9,2.5l-0.6,1.5l-0.9,1l-0.2,2.2l-1.2,0.7
	l-1.1,1l-1.4,0.8l-0.9,1.3l-1.4,0.8v1.4l0.9,1.3l-0.7,0.5H86l-0.9,1.2l-0.3,3.7l-0.4,1"/>
<path id="path2812" sodipodi:nodetypes="csssssssssssssssssscssssssssssssssscsssssscssssssssssssssssssssssssssscssssssssssssscsssssssssssssssssssscsssssssssssssssssssssssssssssssssssssssssssssssssssscssssssssssssssssssssssssssssssssssssssssssssssscssssssssssssssssssssssssssssssc" class="st0" d="
	M226,573.4v-3l-2.3-2l-3.3-0.5l-1,2.8l-2.8,0.5l-3.3-0.8l-0.8,3l-3,0.5l-3.5-0.3l-2.3-1.5l-1.5-2.8l-0.8-3l-4.8,3.5l-0.3-7.3l2-5.8
	l0.3-0.3l1.8-4l0.5-3.3l-0.3-3.5l-1.5-2.5l-0.3-7.3l0.8-3l2.8,0.5l0.5-7.1l-5.1-10.9l-20.7-3l-3.8-1.5l-2-0.3l-10.4,1l-14.4-5.6
	l-4.3-0.5l-0.8-1.3l-5.1-2.8l-2.5,1.3l-14.6-0.3l-7.6,2l-11.4-0.3l-5.8-1.8l-3.8-0.3l-6.4-2.2l-3.9,0.1l-1.2-0.7l-1.4-0.2l-0.5,1.5
	l-1.8,0.1l-6.1,10.8l-0.1,0.7l-2.2-0.1l-1.3,0.8l-2,2.4l-0.6,1.6l-0.2,3.8l-1,1.2l-0.2,1.6l1.7,2.4l-0.2,1.8l-1.7,2.4l-3.2,0.1
	l-0.4,1.5v1.9l-2.2,1.2v2.4l-0.1-0.1l-0.5,0.2l-0.4,1.6v1.9l0.5,1.4l1.9,0.1l1.4,2l-2.3,2.8l-1.4,2.8l-0.4,1.5l-1.9,3.2l-1,3.5
	l-1.3,1.9l-2.6,7.4l0.2,7.5l-0.4,1.5l0.1,1.4l1.8,0.9l-0.1,1.7l-1.5,0.6l-2.2,1.6l0.5,2.2l1.1,0.6l1.5,0.2l0.1,1.9l-1,1.2v3.8
	l1.2,0.9l2,2.8l1.4,1.1l-1.2,0.8l-0.9,1.7l-1.8,0.1l-0.5-1.4l-1-0.9l-1.5,0.9l-2.2,2.5l3.9,0.1l5.8,2.3h3.8l1.5,2.3H62l2.8-1.3
	l6.3,2.3l3.8,0.5l2.3-1.8l1.8-2.3l0.3-3.5l-0.8-3l2-2h3.3v3.3l3.5,1.3l1-2.8l4.8-2.8l0.8-3.5l1.8-2l6.3-2.5l2.8,1.5l1.8-6.1l1.5-2.5
	l4,0.3l2.5-1.3l1-3l5.8-1.8l1-2.8l2.3-1.8l1.8-2.3l2.8,1.3l2.3,1.8l2.8,1l5.8-2.3h7.6l5.3-2.8l5.1,1.3l1.5,5.1l4.3,3.5l1.5,2.3
	l2.5,1.5l3.5,0.3l2.3,1.8l3,1l13.9,1.5l2.8-1.5l1.8-2l5.6,0.3l-0.5,3.8l2,3.3l2-2l3.3-0.8l2,2l3-0.3l2.8-1l3.5,0.3l2.8,1.5l3.5,0.5
	l1.3-2.5V581l-0.8-3l-1.5-2.3L226,573.4L226,573.4L226,573.4z"/>
<path id="path2843" sodipodi:nodetypes="csssssssssssscsssscssssssscsssssssssssssssssssssssssssssscsssssscssssssscsssssssssscsssssscsscssssssssssssssssscsssssssssssssssscssssssssssssssssssssssssssscssssssssssssssssssssscssssssssssscsssssssssssscssssssscsssssssssssscssssssssssssssssssssssssssscssssssssssssssssssssssssssssssssssssssccsssssssssssssssscsssssssssssssssssssssssssssssssssssssssssssssssssssssssssssssssscssssssssssssssssssssssssssssssssssssssssssssssssssssssssssssssssscsssssssssssssssssssssssssssssssssssssssssssscssssssssssssssssssssc" class="st0" d="
	M455.4,632.4l-3.4-0.9l-2.3-1.8l-3-0.8h-3.8l-2.8,1l-4.3,3.5l-7.3,13.1l-0.3,0.3l0.5,4.5l2,2.3l3.3,1.8v0.3l-12.1,18.4l-0.5,8.8
	l-1.8,2.3l-2.3,1.5l-1.3,2.5l-1.5,6.1l-2.3,1.8v3.8l-1.5,2.8l-0.3,2.8l-3,5.8l-4.3,3.5l-1,2.8l0.8,3.5v11.4l-1,2.8l-9.8,1.5
	l-2.5,1.8l-2-0.3l-0.3-3.5l-1.8-3.3l-2-1.8l-4.5-0.3l-1-0.8l-1.8-2.3l-3-1l-2.5-1.5V722l-3.8-5.3v-4.3l-1.3-2.8l-1.8-2.3l-5.1-3.3
	l-5.3,2.5l-0.5,1.3h-1l-2.8-1.3l-1.3-2.5l-3.5-4l-3.5-0.3l-5.3-3.3h-4.2l-1.3-2.5l-0.8-0.8l-3.8-9.1l0.3-3.8l-3.8-4.8l-0.8-2.5
	l0.8-3l-0.3-3.5L306.3,656l-3-0.8l1-3.5l1.8-2.5l3.3-1l-0.5-2.3l1.5-2.3l3.3-0.5l1.5-2.3v-7.1l-2.3-1.5l-0.5-1.6l1.3-1.1l3-0.8l3-2
	l3-0.8l0.8-3.5l-1-3l-2.3-1.8l1.8-2l0.8-3.3l2-2.3l2.3-1.5l0.8-3l2.3-1.5l3.5,0.3l2.8-1.3h3.8l1.3-0.5l2.5,1.5l3,0.8l4.8-4v-7.6
	l0.8-3l2.3-1.5l-2.3-6.3l2.5-1.3l3.8,1l2.8-1.3l1.5-2.3l3.3-1.5l4.5-0.3l3.8-8.3l1.3-10.4l1.3-2.5v-3.8l2-5.6v-9.3l-2.5-2.3
	l-0.3-3.5l0.8-2.8l-8.1-5.8l0.3-3.5l3.3-0.8l3-2.3v-1.5l-0.8-3l0.5-3.5l2.3-1.5l1-3.3l0.3-3.8l1-3l2-2.5l0.3-3.8l2.3-2.3l3-0.8
	l-0.5-5.6l-1.8-3l4.3-3.8l-0.3-3l-1-3.3v-3.8l0.8-2v-7.6l-2-2.5l-1-0.3v-3.5l6.1-12.9l0.3-7.3l2.3-2.3l2.5-1.3l1.5-2.5l2.5-1.3
	l2-3.5l0.8-2.5l0.3-3.5l-1.5-2.3l-3.5-0.5l-1-2.8l-1.8-2l-3.8-1.3l-0.8-1l-0.3-6.3l2.8-6.6l3-0.8l2-1.8l2.8-1.3l3.8-3.8h3.8l1.5-2.3
	l-1.8-5.6l2-1.5l0.9-1.8l-0.2-2.5l3.8-1.6l1.1-1.6l2.7,0.2l1.4-1.2l0.5-2.3l-0.9-4.6l1.2-2l2.3-0.9l1.6-1.1l1.8-4.1l1.4-1.6h2.7
	l1.8-1.2l1.4-1.8l2.1-4.3l0.7-7.3l0.9-2l2.3-1.2l1.3-1.5l12,7.7h8.1l3,1.3l4,0.5l8.1,5.6l8.3,1l3-0.8l-3-2.5l0.8-3l3.3-0.8l2.3-1.5
	l2.3,1l2-1.8l-0.8-1.5l-2-1.8l0.3-3.3l2-0.8l4.3,3.8l4.8,1.5l4.5,3.5l9.1,3.8l7.3,0.5l8.1,4l4.2,0.5l-0.1,1.3l-0.6,1.2l-1.5,0.7
	l-0.9,1.5l-2.2,2l-2.7,3.9l-0.1,5.6l-1.2,0.9l-1.1,2.7l-1.5,0.6l-0.8,1.9l-0.2,0.1l-3.5,0.4l-3,5.4l-1.2,1l-1.7,0.2l-3.3,2.9
	l-1.5,0.4l-0.9,1.1l-1.2,0.8l-3.9,5.3l-1,3.3v5.7l2.4,4.3l-0.8,0.8l-0.5,5.2l-0.2,0.5l-0.4-0.2l-1.4,2.4l-1.4,0.5l-3.2,3.7l-1.5,0.8
	l-4.3,4.7l-0.6,1.4l0.1,11.9l0.6,1.2l0.5,3.3l7.2,7.5v1.9l-1,3.4l-1.4-0.4l-0.4,1.7l0.7,1.2l-1.5,0.5l-1.1,2.5h1.6l-0.8,3l-1.9,0.1
	l-0.8-1.1H493l-1,0.9l-0.6,1.7l-1.1,1.1l-1,3l1.4,3l0.1,5.6l-1,3.4l-0.1,5.3l-0.5,1.7l-0.1,5.6l-0.6,1.2l-0.4,3.4l-1.9,4.3v1.9
	l-0.6,1.4l-0.2,1.6l-1.9,3.9l-0.3,1.8l-3.3,4.8l-0.6,2.1v10.5l0.5,1.4l-1.4,6.4l-3.5,5.4l-1.7,1.1v1.8l-0.6,1.4l-0.1,1.8l0.9,0.6
	l0.8,2.5l-0.9,1.1l-0.2,1.7l-0.6,1.2l-0.9,6.9l-0.9,1l0.1,1.2l0.8,1.2l-1,1.1l-1.5,0.6l-0.5,3.4l-1.3,1.5l-0.1,12.8l-0.9,1.8
	l-0.1,3.9l-0.9,3l-1.4,1.2l-0.4,1.7l-1.6,2.4l-0.2,1.9l-1.2,3.3l-0.1,3.7l-0.9,1.4l-0.2,2.1l0.5,0.4l0.6,1.7v3.8l1.7,2.5l-0.1,3.7
	l-0.5,1.5l-1,1.1l-1.5,0.6l-2.7,0.4l0.4,0.5l1.7,1l-0.8,1.5v1.9l-0.9,3.3v1.9l-0.6,1.5L455.4,632.4L455.4,632.4L455.4,632.4z"/>
<path id="path2425" sodipodi:nodetypes="csssssssssssssscsssssssssssssssssscsssssssssscsssssssssssssssssssssscsscsssscsssssssssssssssscssssssssssssssssssssssssssscssssssssssssssssssssscssssssssssscsssssssssssscssssssscsssssssssssscsssssssssssscssssssssssssssssssssssssssssssssssscssssssssssssssssssssssssscssssssssssssssssssssssssssssssssssssssssssssssssccsssscsssssssssssssssssssssssssssssssssz" class="st0" d="
	M198,515.3l5.1,10.9l-0.5,7.1l-2.8-0.5l-0.8,3l0.3,7.3l1.5,2.5l0.3,3.5l-1.5,6.1l-0.8,1.3l-0.3,0.3l-2,5.8l0.3,7.3l4.8-3.5l0.8,3
	l1.5,2.8l2.3,1.5l3.5,0.3l3-0.5l0.8-3l3.3,0.8l2.8-0.5l1-2.8l3.3,0.5l2.3,2l0.1,3l6.5-0.7l11.6,4.3h3.8l3.3,0.8l1.3,2.5l0.3,8.6
	l-0.8,3.3l-2.8,2.3v3.8l1.5,2.5l2.3,2l0.5,7.3l2.5,5.8l2,2.3l11.4,1.3l5.6-2.3l11.1,1l2.8,1l11.9,0.8l6.3,2.3h0.5l2.5,1.8l1.3,6.3
	l1,0.5l1.3-1.3l3-0.8l3-2l3-0.8l0.8-3.5l-1-3l-2.3-1.8l1.8-2l0.8-3.3l2-2.3l2.3-1.5l0.8-3l2.3-1.5l3.5,0.3l2.8-1.3h3.8l1.3-0.5
	l2.5,1.5l3,0.8l4.8-4v-7.6l0.8-3l2.3-1.5l-2.3-6.3l2.5-1.3l3.8,1l2.8-1.3l1.5-2.3l3.3-1.5l4.5-0.3l3.8-8.3l1.3-10.4l1.3-2.5v-3.8
	l2-5.6V537l-2.5-2.3l-0.3-3.5l0.8-2.8l-8.1-5.8l0.3-3.5l3.3-0.8l3-2.3v-1.5l-0.8-3l0.5-3.5l2.3-1.5l1-3.3l0.3-3.8l1-3l2-2.5l0.3-3.8
	l2.3-2.3l3-0.8l-0.5-5.6l-1.8-3l4.3-3.8l-0.3-3l-1-3.3v-3.8l0.8-2v-7.6l-2-2.5l-1-0.3v-3.5l6.1-12.9l0.3-7.3l2.3-2.3l2.5-1.3
	l1.5-2.5l2.5-1.3l2-3.5l0.8-2.5l0.3-3.5l-1.5-2.3l-3.5-0.5l-1-2.8l-1.8-2l-3.8-1.3l-0.8-1l-0.3-6.3l2.8-6.6l3-0.8l2-1.8l2.8-1.3
	l3.8-3.8h3.8l1.5-2.3l-1.7-5.6l-1.4-0.8l-4.8-1.1l-1.2-1.2l-4.8-0.5l-1.1,1.6l-5.2-0.4l-2.1-0.7l-1.1-1.6l-3.2-2.3h-0.9l-2.3,3.8
	l-0.5,2.1l-1.2,2.1l-2,0.7l-2.5-0.9l-1.6-1.1l-4.1,1.8h-2.7l-1.8,1.1l-0.9,1.8l-4.3-1.2l-1.2-1.4l-2-0.9l-1.6,1.1l-1.2,1.6l-2.5,0.2
	l-0.7,2l-1.2,2l-1.4,1.2l-10.5,0.2l-1.8,0.9l-0.5,2.1l-1.2,2l-1.8,1.1l-1.2,1.6l-2,1.2l-1.2,2l-3.9,2h-4.1l-1.6,1.1l-4.3-0.5
	l-2.5,0.5l-1.4,1.4l-2,6.3l-2.7,2.7l-1.8,1.1l-5.2,0.2l-2.3-0.5l-1.4-1.2l-2.3,0.4l-6.1,5.2l-2.5,0.5L282,412l-2.9-1.4l-0.4-0.5
	l-1.6-1.4L276,413l-0.9,1.8l-1.4,1.2l-0.7,1.6l-1.1-0.5v-5.4l-1.6-1.4l-4.6-0.9l-1.1-1.6l-2.3-0.7l-1.6,1.1l-3.8,7.5l0.4,6.6
	l-1.2,1.6l-4.5,1.2l-3.2,3.2l-3.8,9.8l-6.4,7l-4.3,1.4l-2.1,0.2l-1.8-1.6l-2.5-0.5h-5.4l-2.1,0.5l-9-3.3l-3.9,2.3h-7.6l-0.3,3.8
	l0.5,0.3l1.8,2l1.3,2.8l-0.3,3.5l-1.3,2.5l-2,1.8l-1.5,2.3l1,5.6l-0.5,2.3l0.5,2.8l-1.3,9.6l-1.3,2.5l-0.5,3.3l-1.5,2.5l1.8,2
	l-1.3,2.5l-0.3,2.3l7.3,7.8l2.5,1.3h3.3l2.5-1.3l2,0.5v3.3l-1.3,2.5l-2,1.8l-5.8,1.8L198,515.3L198,515.3L198,515.3z"/>
<path id="path2856" sodipodi:nodetypes="cssscsssssssscsssssssssssssssssssssssssssssssssssssssscssssssssssssssssssssssssssssssssscssscssssssssssssssssssssssssssscsssssssssssssssssssssssssssssssssssssssssssssssscsssssssssssssssssssscssssssssssssssssssssssssssssssscssssssssssssssssssssssssssssssssssssssssssssssssssssssscsssssssssssssssssssssssssccsssssssssscssssscssssssssssscssscsssssssscssssssssssssssssscssssscssssssscscssssssssssssssssssssssscsssssssssssssssssssssscssssssssssscsssssssssssscsssssscsssssssssscssssssscsssssscsssssssssssssssssssssssssssssscssssssscsssscssssssssssssc" class="st0" d="
	M455.3,632.5l-2.2,6.8v1.9l-1.4,0.9l-1.8,7l-0.1,5.8l-1.8,3.8l0.1,5.5l-1.1,5.6l-1.5,1h-1.9l-1.5,0.4l-1.2,1l-1.1,3.2l-0.8,1.2
	l-1.4,1.3l-0.6,1.4l-0.1,1.7l-1.2,1.1l-0.4,4.1l-1,1.2l-2.4,9.7l0.9,1.1l0.5,1.4l-0.8,1.2L431,702l-1.4-0.2l-0.9-1.4l-1.1,0.5l1,1
	l0.1,1.4l-3,2l0.3,7.9l1.9,3.8l0.4,1.8l-0.2,3.7l-1.4,1.4l0.1,5.4l3,3.2l-0.9,2.9l-3.7,0.1l-1.2,1l-2.2,4.2l-1.3,0.6l-3.8,0.1
	l-0.9,1.2l-1.4,0.8v1.9l-0.8,1.2v1.9l-2,2.9l-1.4,4.9l-1,1.4l-0.9,5.7l-1.2,1.7l-0.2,1.6l-1.1,0.8l-1,1.1l-1,2.9l-1,1.6l-1.3,5.1
	l-0.8,0.9l-0.5,1.5v1.9l-3.3,3.4l-0.5,1.4l-1.8,0.1l-1.1,1l-0.9,1.5l-0.7,0.2l-0.2,3.2l-3.4,7.4l-2.2,2L384,807l-0.6,3.2l-1.2,1
	l-1.5,0.4l-2.4,2.5l-0.1,3l-3.2-0.8l-1.4,0.5l-3.4,0.5l-5.8,4.8l-0.8,1.2l-0.2,1.6l0.6,1.3l1.8,2l0.4,1.3h-1.9l-0.8,1.2l0.6,1.2
	l1.3,0.7l1,1.1l-0.4,1.8l1.1,2.8l-0.5,1.7l-2.1,1.9l-1.7,0.2l-1.4,1.4l-1.3,8l-2.2,2l-2.8,1.2l-1.2,1l-0.8,1.2l-2.5,2l-0.8,1.1
	l-1.1,0.8l-1.5,0.6l-3.8,4.5l-2.7,1.5l-1.5,0.4l-1,0.9l-1.4,0.6l-1.9,0.3l-1,1l-1.8,0.1l-0.9,1.1l-2.4,1.4l-1,1l-2.7,1.2l-0.4,1.5
	l-1,1.2l-1.8,0.1l-1.1,1l-4.1,1.8l-1.1,1l-1.7,2.6l-0.9,3.2l-1.1,1.3l-0.2,1.6l-0.9,1.2l-0.1,1.8l-0.8,1.5l0.1,1.8l-0.2,0.6
	l-0.2,5.2l-0.8,1.5l-0.1,1.4l-2,2.8l-3.5,3.2l-0.9,1.3l-1.7,0.9l-0.8,1.2l-0.2,1.7l-0.9,1.2l-0.1,1.8l-0.7,1.6v1.9l-1.2,0.8v2.5
	l-2.9,6.8v1.9l-0.9,0.9v3.8l-2.2,4.2l0.1,2.1l-1.2,1.7l-0.5,3.5l-0.9,1.1l-0.2,3.5l-1,1.3l-0.4,1.8l-1.9,2.5l-0.5,1.4l-0.9,1.1
	l-3.6,10.1l-0.9,1.3l-0.5,5l-2.5,2.5l-2.9,9.1v3.5l-0.6,1.4l0.2,5.4l1.3,1.7v7.8l0.9,3.2l0.1,4.6l-3.5,1.2l-2,1.8l-3.3,1.3l-2.8-4.8
	l-3-0.8h-4l-1.3-2.8l-2.8-1l-2.3-1.5l-4.3,0.3l-0.5-2.3l0.8-3.3l1.8-1l-2.8-1l-1-2.5l-4.8-2.8l1.8-2.3l2.5-1.3l-0.3-7.6l-2.5-1.5
	l-1.3-2.5h-2.8l-3.8-4l-3.5-1.8l4.8-14.6l6.6-1l1.3-2.8l-0.8-3.3l-2.8-2l-2.5-5.3l-4-2.5l-0.3-3l-1-3l4.3-3.3V935l-4-8.1l-0.5-4.3
	l-1.8-1l-1-3l0.5-3.5l2.8-5.1l-1.3-2.8l1.5-2.3l1-2.8l-0.3-3.5l1-2.5l2-2l0.8-3l1.8-2l0.3-1l4-5.6l0.3-3.5l1.8-2.3l0.3-2.5l3.3,0.5
	l3.5-1.8l6.1-1.3l3-6.3l11.1-0.5l2-2.3l0.3-3.5l1.8-2l0.5-9.9l2-2l-1-2.3V839l-1-3.3l-2.5-1.3l-3.3-0.3l-2.8-2.5l-0.8-1.5l-0.8-3
	v-3.8l0.5-1l0.7-6.8l-2.9-3.9l-5.4-0.4l-2.9-8.6l0.4-5l-1.4-1.4l-1.8-3.9v-5.4l1.1-4.3l10-12.9l0.7-1.8V764l6.4-4.6l-1.4-4.3
	l-2.5-2.5l1.8-4.3l3.6-3.9l-1.1-22.5l3.2-2.1l2.1-5l3.6-1.8l-1.1-3.9v-3.9l1.4-3.9l-0.4-1.8l-1.1-0.7l2.9-3.6l3.6-1.4l6.8-5.7l5-6.4
	h3.9l7.9-2.1l2.9-2.9l8.4-3.6l0.9,2.5l3.8,4.8l-0.3,3.8l3.8,9.1l0.8,0.8l1.3,2.5h4.3l5.3,3.3l3.5,0.3l3.5,4l1.3,2.5l2.8,1.3h1
	l0.5-1.3l5.3-2.5l5.1,3.3l1.8,2.3l1.3,2.8v4.3l3.8,5.3v2.8l2.5,1.5l3,1l1.8,2.3l1,0.8l4.5,0.3l2,1.8l1.8,3.3l0.3,3.5l2,0.3l2.5-1.8
	l9.8-1.5l1-2.8v-11.4l-0.8-3.5l1-2.8l4.3-3.5l3-5.8l0.3-2.8l1.5-2.8v-3.8l2.3-1.8l1.5-6.1l1.3-2.5l2.3-1.5l1.8-2.3l0.5-8.8
	l12.1-18.4v-0.3l-3.3-1.8l-2-2.3l-0.5-4.5l0.3-0.3l7.3-13.1l4.3-3.5l2.8-1h3.8l3,0.8l2.3,1.8L455.3,632.5L455.3,632.5L455.3,632.5z"
	/>
<path id="path2905" sodipodi:nodetypes="cccccccccccccccccccccccccccccccccccccccccccccccccccccccccccccccccccccccccccccccccccccccccccccccccccccccccccccccccccccccccccccccccccccccccccccccccccccccccccccccccccccccccccccccccccccccccccccccccccccccccccc" class="st0" d="
	M137.6,637.8l-0.2,0.5l-2.3,1.5l-3.3,0.2l-2-2l-3.3,0.5l-5.3,2.5h-7.6l-6,3.5l-0.3,0.2l-1.5,2.5l-6.3-0.3l0.2,3l-7.1,0.5l-0.5,3.3
	l-1.2,2.5l-1.8,1.5l-2.5-1.5l-2,2l1,2.8l-0.5,1.8l-9.6,4.8l-0.8,3l-3.3,4.8l-3,1.2l-4.6-1.2l-1.2-2v2.8l-2.5-0.2l-2.3-2l-1-3
	l-3.8-0.8l-2.8-1.8l-0.8-1l-7.2-1.3l-3.9,6.8l0.6,1.3l1,0.1l-0.6,1.9l-1.3,0.9l-0.2,1.8l2.8,1.7l1.2,0.2l1.6-0.5l-2.2,3.2l-3.4,1.2
	l-0.9,1.3l0.2,1.8l0.8,1.5l-2.5,2.4l-0.4,1.7l-0.8,1.4l-2.4-0.6l-0.6,1.3l-0.8,3.4l0.1,3.8l-4.9,9.2l-0.5,3.5l-1.5,2.5l1.1-1.4
	l1.5-0.6l1.5-0.1l0.6,8l1.2,0.9l1.5,0.6l-0.9,5.3l-3.3,1.4h-0.2l-3.5,1.2l-3.2,2.9l-3.3,1.5l-0.2,3.5l0.2,0.5l0.2,3.7l0.8,0.9h1.9
	l-0.1,5.9l0.8,2.4l2.1,2.5l0.3,0.8l1.9-0.7l1.3-0.9l1-1.1l0.3,1.6l-0.2,1.8l4.7,2.8l0.9,0.2l1.8,1.6l3.2,1.7l3.9,4.2l1.5,0.8
	l5.3,4.9l0.1,0.5l3.4,3.3l2.4,3.7l1.6-0.4l2.3-2.1l1.4-0.8l-1,2.2l-0.9,1.1v1.3l3.3,0.9l-1.7,1.4l-1.9-0.1l-1-1.4l-0.9-0.5l0.8,1.9
	l1.2,1.5l0.5,1.7l-0.5,9.6l-0.5,1.4l1,2l1.3-0.8l2-2l1.5-0.6h0.1l8.5,3.1l2.5-1.3l1.8,1l3.8,4h3.5l0.5-0.8l2.8,1.2l2,0.2l1.5-2
	l17.9,4.1l3.8-0.2l6.3-5.8l1.8-2.5l3-1l3.5-0.2l2.5,1.5h3l1.5-6.3l1.5-0.8l1-1.3l0.5-3.3l3.8-8.8l3-0.8l1-3l0.2-3.5l5.6-0.2l0.2-3.5
	l9.1-6.6l3.5-5.6l10.4-7.1l2.2-2.5l3.8-2.3l0.5-3l0.2-0.2l1.2-0.8l0.5-3.5l1.3-2.5l0.2-3.5l5.6-6.8l1.8-0.2l8.1-10.9l0.2-3.8l4-5.1
	l0.8-3l-2.2-1.8l-0.3-0.5l-1,0.8l-2.5-1.2l-6.3,1.2l-3-1l-3.5-2.5l-3.8,5.6l-3,0.8l-3.3-0.2l-4.3-3l-6.1-1.8l-1-2.5l3.3-4.8
	l-0.8-2.5l-2-3.3l-0.5-2.5l1.3-2.5l-1-2.8l-0.2-3.5l1.5-2.8l2.3-1.8l0.2-3l-1-2.8l-3.5-0.2l-3.8-1.2l-1-2.3l2.5-1.8l-0.2-3.3
	l-7.8-0.5v-3.3l2.5-1.8l1.5-2.3l-2-1.8l-2.2,1.3l-3-0.8l-2.5-2l-3.3-1l-1.8-2.3L137.6,637.8L137.6,637.8z M71.7,747.9l6.3,2.8l0,0
	L71.7,747.9L71.7,747.9z"/>
<path id="path3082" sodipodi:nodetypes="cccccccccccccccccccccccccccccccccccccccccccccccccccccccccccccccccccccccccccccccccccccccccccccccccccccccccccccccccccccccccccccccccccccccccccccccccccccccccccccccccccccccccccccccccccccccccccccccccccccccccccccccccccccccccccccccccccccccccccccccccccccccccccccccccccccccc" class="st0" d="
	M113.4,932.9l6.8,5.6l1.8,0.8l2.8,2.5l5.4,1.6l0.2-0.6l-0.9-14.5l0.9-2.9l0.9-1.1l1.8,0.4l2.5-2.2l2-5.8l0.3-3.5l1.8-6.1v-3.8
	l-3.5-4.3l0.3-18.2l2-6.1l1.8-2.3l1.8-6.8l-0.3-4.5l0.8-1.3l-0.3-15.2l1.3-2.8l0.5-3.3l1.3-2.5l1.5-9.8l2.5-1.3l1.8,0.8l4.5,0.3
	l1.5,2.3h3.8l2.8-1.3l6.1,1.5l3.5-0.3l2.3-1.8l2.5-3.3l0.3-1.3l4-3.3l1.3-0.5l6.6-4.5l3.5-0.3l2.8-2l3-0.8l3,1.3l1.8,2v3.8l2.8,1.3
	h2.8l1-1l3-0.8l3.3-4.8l3-0.8h3.8l8.6,5.3l6.3,7.6l2.8,1.5l2.8-1.5l1.8-2.3l5.1-2.5l1.5-2.3h3.3l1,0.3l2.5,1.3l0.3,1.3l2.3-0.8
	l4.5,3l0.7-6.8l-2.9-3.9l-5.4-0.4l-2.9-8.6l0.4-5l-1.4-1.4l-1.8-3.9v-5.4l1.1-4.3l10-12.9l0.7-1.8V764l6.4-4.6l-1.4-4.3l-2.5-2.5
	l1.8-4.3l3.6-3.9l-1.1-22.5l3.2-2.1l2.1-5l3.6-1.8l-1.1-3.9v-3.9l1.4-3.9l-0.4-1.8l-1.1-0.7l2.9-3.6l3.6-1.4l6.8-5.7l5-6.4h3.9
	l7.9-2.1l2.9-2.9l8.5-3.6l0.8-3l-0.3-3.5L306.3,656l-3-0.8l1-3.5l1.8-2.5l3.3-1l-0.5-2.3l1.5-2.3l3.3-0.5l1.5-2.3v-7.1l-2.3-1.5
	l-0.6-1.7l-0.9-0.3l-1.3-6.3l-2.5-1.8h-0.5l-9.9-2.8l-1,0.3l-2.5,1.3l-6.6,1l-2.3,1.5l-6.3,1.3l-4.3,3.5l-1.5,2.5l-2.8,1.3l-2.3,1.8
	l-3.3,0.5l-2.3,2.5l-1.8,4.3l-1.8,1.5l-1,2.8l-1.8,2l-0.3,3.5l-2.8,1h-3.8l-2,2l-1.5,2.5l-4,4l-6.9,0.6l-2.3,5.8l-5.1,2.5l-1,2.8
	l-6.6,0.5l-1.3,6.6l-8.1-0.3l-2.3-2l-7.8-0.3l-1.3,11.6l1.3,2.8l2,2.5v3.8l-1.1,1.1l0,0l0.3,0.4l2.3,1.8l-0.8,3l-4,5.1l-0.3,3.8
	l-8.1,10.9l-1.8,0.3l-5.6,6.8l-0.3,3.5l-1.3,2.5l-0.5,3.5l-1.3,0.8l-0.3,0.3l-0.5,3L162.6,756l-3.5,5.6l-9.1,6.6l-0.3,3.5l-5.6,0.3
	l-0.3,3.5l-1,3l-3,0.8l-3.8,8.8l-0.5,3.3l-1,1.3l-1.5,0.8l-1.5,6.3h-3l-2.5-1.5l-3.5,0.3l-3,1l-8.1,8.3l-3.8,0.3l-10.1-3.3l-7.8-0.8
	l-1.5,2l-2-0.3l-2.8-1.3l-0.5,0.8h-3.6l-3.8-4l-1.8-1l-2.5,1.3l-8.4-3.2l-1.7,0.7l-3.2,3l1.2,1.4l0.8,4.2l3,6.3v1.9h0.7l0.2-1.6
	l0.6-1.3l1.9-0.1l2.1,5.1l-0.2,1.6l-1.9,0.2l-1.4-0.9l-0.8-1.2l-0.4,0.9l0.1,1.8l0.8,2.2l0.1,1.8l1.8,3.4v1.4l8.9,21.1l0.2,1.8
	l1.5,3.4l1.4,1.8l3.1,6.6l1.7,3.8l4.5,5.6l-2.1,2.5l-3.9-3.9l2.5,6.1l-4,3.9l-0.2,4.2l-0.5,1.6l0.5,1.8l2.8,2.5l0.9,1.4v1.9l0.9,1
	l-0.1,1.9l-1.1,0.8l0.8,1.1l1.5,0.8l1.2,3.4l2.7,2.6l0.6,1.4l1.3,1.8l1.1,0.8l1,1.1l0.7,1.4l1,1l2.8,4.5l-2.9,0.1l-0.5,0.7v0.6
	l1.6,0.4l3.3-0.1l0.6,0.1l3.3,3.5l1.4,0.8l2.3,2.5l0.6,1.4l3.9,3.3L113.4,932.9"/>
<path id="path4308" sodipodi:nodetypes="cssssssssssssssssssssssssssssssssssc" class="st0" d="M123.4,610l0.5,3.3l3,3l-2,4.5
	l10.1,1.5l1,2.8l2,2.8l2.5,1.3l2.5-1.5l1.3-2.5l4.5-3.5l2,1.8l4.5,1.5l0.8-2.5l3.5-4.3l-2-2l-0.8-3l-3-0.8l-1.3-2.5l-2.3-1.5l-2.8,1
	l-2-1.8l-1.8-2.5l-2.5-1.3l-3,0.8l-7.1,5.1l-3-0.8L123.4,610L123.4,610L123.4,610z"/>
<path class="st0" d="M604.6,113.4l-1.4,0.1l-1.1,1l-1.2-2.2l-1.4-0.5l-0.9-1l-1.5-0.3l-1.8,0.1l-0.8,0.8l-1.7,1.1l-4-0.4l-4.9-4
	l-0.4-1.4V101l-0.6-0.8l1.4-1l-0.2-0.6l-4.2-4.2l-1.3-3l1.5-4.5l1.5-1l0.4-1.5l-0.6-1.2l-1-0.9l-0.6-0.9l0.8-1.2l1.2-0.8v-1.9
	l-1.8-0.1l-1.7,0.4l-1,1l-3.4,1.2H572l-5.9-1.3l-1.5,0.6l-1.4-0.6l-4.4-0.1l-2.9-0.9l-1.4,0.8l-1.3,1.2h-1.6l-1-1.2l0.4-1.6l0.8-1.3
	l0.6-0.6h-1.9l-1.6,0.6h-1.8v1.2l-0.9,2.1l-1.4,1.4l-1.8,2.9l-0.9-0.2l-1.8-1.2l-2.5-0.5l-2.9,3l-2.3,0.5l0.5,2.1v4.8l4.6,4.5
	l-0.7,2.1l-1.1,1.8l-2.5,0.2l-4.6,2.3l-5.2-0.4l-5.4-4.6l-7-1.8l-1.6-1.8v-2l-1.4,1.2l-2.3-0.5l-1.6-2.1L502,89l-3-6.8l-0.2-2.5
	l-1.5-1.7l-2.3-0.7l-1.1-2v-2.7l4.8-0.5l1.8-1.2l2-0.7L505,70l4.1-1.8l1.2-1.6l2.3-0.5l1.1-1.6l2-0.7l1.5-1.1l-2.9-2.1l-1.5-0.5
	l-1.6-1.1l-0.5-1.3l0.7-1.5l2.9-1.4L514,54l-1.1-1l1-1.1l1.4-0.8l1.2-1.1l-0.4-1.1l-4.5,3.9l-6.3,0.4l-5-5.2l-0.2-1.2l1.2-1.3
	l-0.6-1.2h-2l-1.4-0.6l-2-2l0.5-3.8l-0.4-1.8l-0.7-1.2l-1.1-1l-3.7-5.2l-3.2-1l-1.8-2.3l-1.4-0.8h-1.9l-1.4-0.9l-1-1.1l-1.2-0.8
	l-0.4-0.1l-1.3,0.2l-1,1.1l-0.5,1.5h-6.1l-1.9-2l-1.1,0.8v1.9l-1.1,0.8l-5.1,0.8l-0.6-1.6l-0.6,0.6l-0.2,1.8l-1.4,1.1l-3.4,0.9
	l-1.4,1l-1.7,0.5l-3.5,7.4l-0.6,0.1l-3.8-0.6l-1.2,1l-0.1,1.8l-1,1.1l-0.4,1.5l-1.3,2.6l-0.2,1.9l-0.9,1.3l-1.3,0.8l-2.1,2.2
	l-0.2,1.9l-2,3.9l-1.9,0.5l-1.1-0.1l0.2,1.1l3.4,3.2l1.9,0.1l3.5,1.7l1.5,2.6l1.4,1l1,1.2l2.2,4.4l0.2,7.6l-0.9,0.8l-0.2-1.6
	l-0.8-1.7l-0.2-1.6l-2-2.7l-0.1-1.8l-0.7-1.8l-2.2-2.3l-5.8-3.8h-1.9l-1.1,1l-0.6,2.4l-3.7,3.5l-1.6,0.5l-2.8,1.7l-1.5,0.4l-4.2,2.8
	l-5.2,1.6l-1.3,0.9l-12,0.1l-2.4,2.3l-1,1.4l1.8,2.5l1.2,0.4l1.2,1.6l5,0.5l9.3,4.5l-0.5,3.6l2,1.8l5.2,1.2h5.4l1.2,0.9l1.8,2.1
	l0.5,2.3v0.7l-0.9,1.8l0.4,2.3l1.2,1.4l2.3,1.6l-0.9,1.6l-2,1.2l-2,0.7l2.1,1.6l0.2,2.1l-1.6,1.1l-2.1,0.7l-2,3.6l-2.9,2l-11.2-0.4
	l-1.8,0.9l-0.5,2.1l1.1,2l-0.5,5l-1.4,1.4l-0.9,2l1.2,2.3l2.1,0.2l1.6,1.2l-2.1,1.4l-1.2,1.4l-0.9,2l0.9,4.3l4.5,2.7l3.4,5.2
	l-1.2,1.6l0.4,2.1l0.2,0.2l2.5,1.6l-1.6,1.2l-4.6,0.9l-0.2,2.1l2.5,0.4l1.6-1.2l1.6,1.6l1.8,1.1l2.9,0.7l2.7-0.2l2-1.1l5.4-0.4
	l1.2,0.7l0.4,0.9l1.4,1.4l0.7,2l2.9,2.9l1.6,0.9l1.6,1.8l0.2,2.5l0.9,2.5l2.3,0.7v2.7l-1.6,1.1l-1.1,1.6l-3.2,2.7l-1.1,2l0.4,2.3
	l0.9,1.8v1.1l2,5l3.2,3l-0.5,2l2.5,1.1l0.2,1.8l2.5,0.7l1.4,2l2,1.4l0.5,5l1.5,0.6l4.8,0.3l2.3-1.4l4.6-0.7l5.2-3.4l0.5-2.5l5.9-3.2
	l2.7-0.2l2.1-0.7l1.1-1.6l1.6-1.2l2.3-0.4l1.4-4.3v-2.7l-0.7-2.1l-1.4-1.4l-0.4-2.5l2-1.6l0.4-2.3l-0.2-2.5l0.9-2l2.1-0.5l1.8-1.1
	l2.5,0.7l2.3-1.8l0.5-2.1l-1.4-1.2l10.5-1.2l3.6-1.8l1.6,1.8l0.7-2l2.1-0.7l1.1-1.8l1.8-1.6l0.5-1.7l4.8-2.6l2.7-3.2l2-1.1l2.3-0.4
	l7.5,1.1l1.8-0.9l2.5-0.5l-0.2-1.2l0.2-2.1l1.4-1.8l0.2-2.1l-0.5-2.3l2.5-3.2l3-2.5l2.3-0.4l5.4,0.4l5.9-3.9l1.4-4.3l-4.1-5.9
	l0.9-1.8l0.5-2.1l1.8-1.4l5.2,0.4l2.3,0.9h2.9l1.4-1.6l6.8-4.8l5.4-0.4l6.2-2.3l2.5-0.2l3.7,0.7l0,0l1.1-0.5l0.8-1.5l1.8-0.1
	l0.8-1.1l2.8-1.3l0.8-1.3l1.9-0.2l0.7-1.4l0.1-1.5L604.6,113.4z M503.7,112.5l-6.8-0.4l-2.1,0.5l-1.6,1.1l-5-0.4l-1.8,1.1l-1.2,2
	v2.3l1.2,4.1l-0.2,2.1l0.4,2.5l4.8,2.3l-0.2,1.8h-2.9l-2.1,0.9l-10-1.1l-3.8-2.5l-1.1-4.3l-2.5-0.2l-2.3-1.6l-1.2-2.1V118l-0.7-2
	l-1.6-1.2l-2.9-1.2l-1.2,0.2l-1.2,1.8l-2,1.1l-2.1,0.2l-1.1-2.1l-0.5-5.2l0.9-2l1.8-1.6l2.7-3.8l-0.2-8.2l-1.4-2.7l-3.6-3.4
	l-5.7-0.7l-1.8-1.2l-0.7-2.3l0.4-2.3l1.8-1.1v-2.7l1.1-1.6l0.4-0.7l1.2-1.2l1.2-2.7l0,0l2.3-0.7l0.9-2.3l3-3.6l2-0.9l2.5-0.2
	l1.6-1.1l0.9-2.3l3.8-2.1l0.9-2l2-0.9l2.5-3.9l1.4,1.6l2,3.6l4.6-0.4v2.7l-0.7,2v2.7l2.9,2.9l0.2,5.2l1.1,1.6l2.9,2.5l0.5,1.8
	l-1.4,1.6l-0.5,2.3l7.7,6.6l0.5,4.6l-2.3,4.8l-1.1,1.2l1.4,1.4l0.4,2l-1.2,1.6l0.9,2l4.8,3.6l3.9,1.8l2.3-0.7l1.6,0.7L503.7,112.5z"
	/>
<path id="path4308_2_" sodipodi:nodetypes="cssssssssssssssssssssssssssssssssssc" class="st0" d="M-363.1,631l-3-0.8"/>
<path class="st0" d="M288.4,619.8l-2.8-1l-11.1-1l-5.6,2.3l-11.4-1.3l-2-2.3l-2.5-5.8l-0.5-7.3l-2.3-2l-1.5-2.5v-3.8l2.8-2.3
	l0.8-3.3l-0.3-8.6l-1.3-2.5l-3.3-0.8h-3.8l-11.6-4.3l-6.4,0.6l-1.6,2.4l1.5,2.3l0.8,3v3.6l-1.3,2.5l-3.5-0.5l-2.8-1.5l-3.5-0.3
	l-2.8,1l-3,0.3l-2-2l-3.3,0.8l-2,2l-2-3.3l0.5-3.8l-5.6-0.3l-1.8,2l-2.8,1.5l-13.9-1.5l-3-1l-2.3-1.8l-3.5-0.3l-2.5-1.5l-1.5-2.3
	l-4.3-3.5l-1.5-5.1l-5.1-1.3l-5.3,2.8h-7.6l-5.8,2.3l-2.8-1l-2.3-1.8l-2.8-1.3l-1.8,2.3l-2.3,1.8l-1,2.8l-5.8,1.8l-1,3l-2.5,1.3
	l-4-0.3l-1.5,2.5l-1.8,6.1l-2.8-1.5l-6.3,2.5l-1.8,2l-0.8,3.5l-4.8,2.8l-1,2.8l-3.5-1.3v-3.3h-3.2l-2,2l0.8,3l-0.3,3.5l-1.8,2.3
	l-2.3,1.8l-3.8-0.5l-6.3-2.3l-2.8,1.3H58l-1.5-2.3h-3.8l-5.8-2.3l-3.9-0.1l-1.6,0.9l-0.4,9.1l0.9,1.5l1.8,0.6l5.7-0.4l1.4,0.6v1.9
	l-0.8,1.4l-0.5,1.8l-0.9,1.1v2l-0.8,1.5l0.4,2l1.6,0.9h1.7l-2.2,4.2l-0.1,1.8l1.5,0.4v1.7l-1,3.2l0.1,1.9l0.8,1.5l1.2,1l1.4-1.2
	l0.6,0.9l0.2,3.5l-1,1.7l-1.3,5l-3.7,1.5l-1.4-0.1l-3,6.9l-0.2,5.1l0.4,1.5h3.8l1.6,0.6l0.2,1.7l2.4,1.5l3.8,0.8l1,3l2.3,2l2.5,0.3
	V674l1.3,2l4.5,1.3l3-1.3l3.3-4.8l0.8-3l9.6-4.8l0.5-1.8l-1-2.8l2-2l2.5,1.5l1.8-1.5l1.3-2.5l0.5-3.3l7.1-0.5l-0.3-3l6.3,0.3
	l1.5-2.5l0.3-0.3l6.1-3.5h7.6l5.3-2.5l3.3-0.5l2,2l3.3-0.3l2.3-1.5l0.3-0.5l3.8,1l1.8,2.3l3.3,1l2.5,2l3,0.8l2.3-1.3l2,1.8l-1.5,2.3
	l-2.5,1.9v3.3l7.8,0.5l0.3,3.3l-2.5,1.8l1,2.3l3.8,1.3l3.5,0.3l1,2.8l-0.3,3l-2.3,1.8l-1.5,2.8l0.3,3.5l1,2.8l-1.3,2.5l0.5,2.5
	l2,3.3l0.8,2.5l-3.3,4.8l1,2.5l6.1,1.8l4.3,3l3.3,0.3l3-0.8l3.8-5.6l3.5,2.5l3,1l6.3-1.3l2.5,1.3l2-1.8v-3.8l-2-2.5l-1.3-2.8
	l1.3-11.6l7.8,0.3l2.3,2l8.1,0.3l1.3-6.6l6.6-0.5l1-2.8l5.1-2.5l2.3-5.8l7.4-0.5l4-4l1.5-2.5l2-2h3.8l2.8-1l0.3-3.5l1.8-2l1-2.8
	l1.8-1.5l1.8-4.3l2.3-2.5l3.3-0.5l2.3-1.8l2.8-1.3l1.5-2.5l4.3-3.5l6.3-1.3l2.3-1.5l6.6-1l2.5-1.3l1.2-0.3L288.4,619.8z
	 M155.2,623.2l-0.8,2.5l-4.5-1.5l-2-1.8l-4.5,3.5l-1.3,2.5l-2.5,1.5l-2.5-1.3l-2-2.8l-1-2.8l-10.1-1.5l2-4.5l-3-3l-0.5-3.3l4.6-1.1
	l3,0.8l7.1-5.1l3-0.8l2.5,1.3l1.8,2.5l2,1.8l2.8-1l2.3,1.5l1.3,2.5l3,0.8l0.8,3l2,2L155.2,623.2z"/>
</svg>
