<svg id="圖層_1" data-name="圖層 1" xmlns="http://www.w3.org/2000/svg" viewBox="0 0 1912.5 1074.37"><defs><style>.cls-1{fill:#fff;}</style></defs><path id="path2" class="cls-1" d="M235.29,175.72a2,2,0,0,1,2.73.72l0,0,1,1.5.5,2c.33,1.33.42,2.08.25,2.25a46.8,46.8,0,0,1-4.75,2.25,66.35,66.35,0,0,0-8.5,4.5,70.89,70.89,0,0,0-6.5,4.5q-2.5,2-4.5,3.5t-9.25,9.25Q199,214,197.54,216t-3.5,4.5c-1.33,1.67-2.67,3.5-4,5.5s-2.67,3.83-4,5.5-2.67,3.5-4,5.5a71.12,71.12,0,0,1-5.5,7,68.83,68.83,0,0,0-5.5,7,71.75,71.75,0,0,1-5.75,7.25q-3.75,4.25-5.75,6.75a22.94,22.94,0,0,1-4,4q-2,1.5-8.5,7.5a91.79,91.79,0,0,1-9.5,8l-4.5,3c-1,.66-2.17,1.5-3.5,2.5l-4,3q-2,1.5-12,7a162.27,162.27,0,0,1-17.5,8.5q-7.5,3-10.5,4T73,316q-9.5,2.49-18.5,4t-20,2.5q-11,1-21,1.25c-6.67.16-10.08-.25-10.25-1.25L3,321l.25-2.5q.25-2.5,18.25-3.25a253.56,253.56,0,0,0,30-2.75q12-2,22-4.5a115.41,115.41,0,0,0,17-5.5q7-3,11.5-5t9-4.5q4.5-2.5,10.5-6a66,66,0,0,0,10-7c2.67-2.34,4.67-4,6-5s3.42-2.75,6.25-5.25a45.93,45.93,0,0,0,5.75-5.75q1.5-2,9-10t10-12q2.51-4,4-6c1-1.34,2.17-3,3.5-5a68.83,68.83,0,0,1,5.5-7q3.5-4,5-6t3.5-4.5a28.76,28.76,0,0,0,3.25-5,6.83,6.83,0,0,1,2.75-3.25q1.5-.75,9.5-8.25t11-9.5l4.5-3q1.5-1,6.5-4A63.08,63.08,0,0,0,233,177,7.89,7.89,0,0,1,235.29,175.72Z" transform="translate(-3.04 -2.93)"/><path id="path4" class="cls-1" d="M46.54,195.22l1-.25,1.25,3c.83,2,1.92,4.67,3.25,8a142.57,142.57,0,0,1,4.5,14q2.51,9,3,12t0,15A102.09,102.09,0,0,1,57,267a80.47,80.47,0,0,1-4,12.5,87.74,87.74,0,0,1-5,9.5,65.1,65.1,0,0,1-5.75,8.25c-1.83,2.16-3,3.5-3.5,4L38,302l.5-9q.49-9,2.5-40l2-31-1.5,7.5Q40,237,36,262t-5.5,30.5L29,298l-2.5-6A114.74,114.74,0,0,1,22,279q-2-7-2.5-9.5t0-15.5q.5-13,2-18.5a69.29,69.29,0,0,1,3.5-10,109.14,109.14,0,0,1,5.5-10.5,67.81,67.81,0,0,1,8.5-11.5,75.33,75.33,0,0,0,5.75-6.75A3,3,0,0,1,46.54,195.22Z" transform="translate(-3.04 -2.93)"/><path id="path6" class="cls-1" d="M54,328.47a80.52,80.52,0,0,1,16,2,65.12,65.12,0,0,1,15.5,5,60.46,60.46,0,0,1,8,4.5l4,3c1.33,1,2.83,2.16,4.5,3.5a12.4,12.4,0,0,0,3.5,2.25,1.18,1.18,0,0,1,1,1.25c0,.67.5,1.25,1.5,1.75s3.75,3,8.25,7.5,6.83,7.08,7,7.75a1.18,1.18,0,0,0,1.25,1c.67,0,1.25.5,1.75,1.5A47,47,0,0,0,129,374c1.33,2,2.5,3.66,3.5,5a10.14,10.14,0,0,1,1.75,3l.25,1-1.5.25q-1.5.24-18-.25t-22.5-2A77,77,0,0,1,79,376a89.56,89.56,0,0,1-10.5-5.5,68.78,68.78,0,0,1-6.5-5c-2.33-2-3.83-3.09-4.5-3.25a1.18,1.18,0,0,1-1-1.25.88.88,0,0,0-.74-1,.57.57,0,0,0-.26,0,.88.88,0,0,1-1-.74,1.13,1.13,0,0,1,0-.26c0-.67-.42-1.17-1.25-1.5a7.27,7.27,0,0,1-2.75-2.5c-1-1.34-2.33-3-4-5a31.35,31.35,0,0,1-4-6c-1-2-1.42-3.42-1.25-4.25s1.75-.58,4.75.75,9.17,4.17,18.5,8.5,15.67,7.33,19,9,7.5,3.67,12.5,6,8.33,3.83,10,4.5a11.52,11.52,0,0,0,3.5,1h1l-2.5-2a103.73,103.73,0,0,0-11.5-7q-9-5-11-6.5t-11-6.5q-9-5-10.5-6t-9.5-5.5q-8-4.5-9-5.5l-1-1L46,329Q47.54,328.48,54,328.47Z" transform="translate(-3.04 -2.93)"/><path id="path8" class="cls-1" d="M107.29,188.47l1.25-2.5,2,.75a6.81,6.81,0,0,1,3.25,2.5Q115,191,119,200a76.91,76.91,0,0,1,5.5,17q1.5,8,2,13t-1,15.5a85.1,85.1,0,0,1-3.5,16,95.21,95.21,0,0,1-6.5,13.5q-4.5,8-5,8.5l-.5.5-.5-38-.5-38-1,9.5q-1,9.5-3,35t-2.75,26.75c-.5.83-1.17.67-2-.5a52.36,52.36,0,0,1-3.75-7.25A79.51,79.51,0,0,1,92,258a111.6,111.6,0,0,1-2.5-12,76.72,76.72,0,0,1,0-12.5,79.57,79.57,0,0,1,2-14.5,53.24,53.24,0,0,1,4-11q2.5-5,5-9t4-6A29.6,29.6,0,0,0,107.29,188.47Z" transform="translate(-3.04 -2.93)"/><path id="path10" class="cls-1" d="M152.54,297.47a81.88,81.88,0,0,1,15,1,74.24,74.24,0,0,1,12.5,4q7.5,3,9.5,4.5c1.33,1,3,2.16,5,3.5s3.83,2.67,5.5,4,3.17,2.5,4.5,3.5a91.89,91.89,0,0,1,7.5,7l5.5,5.5-5,2a72.14,72.14,0,0,1-13,3.5,91.1,91.1,0,0,1-20,1q-12-.51-19-3t-11.5-4.5a50.39,50.39,0,0,1-7.5-4q-3-2-9.25-8.75t-6.5-7.75q-.26-1,20.25,3.75T172,319a103.93,103.93,0,0,0,12.5,2.5l7,1-.5-.5q-.49-.51-31.75-10.75t-31.5-10.5l-.25-.25,1-.5q1-.51,7.5-1.5A111,111,0,0,1,152.54,297.47Z" transform="translate(-3.04 -2.93)"/><path id="path12" class="cls-1" d="M163,147l1-1,2.5,3a44.77,44.77,0,0,1,5.5,9.5,77.71,77.71,0,0,1,4.5,12,69.72,69.72,0,0,1,2,9.5,100.25,100.25,0,0,1,0,14.5,74,74,0,0,1-3,18.5q-1.6,5.46-3.75,10.75-1.24,2.75-2.25,3T167.29,200q-1.24-27-1.75-29.5L165,168l-.5,8q-.49,8-1.5,30l-1,22-1-1.5a74.76,74.76,0,0,1-4-8.5,80.4,80.4,0,0,1-4.5-13.5,86.75,86.75,0,0,1-2-12.5,68.29,68.29,0,0,1,.5-14,73.52,73.52,0,0,1,3-14,54.82,54.82,0,0,1,5-11A42.3,42.3,0,0,1,163,147Z" transform="translate(-3.04 -2.93)"/><path id="path14" class="cls-1" d="M206,239a56,56,0,0,1,13,.5,76.85,76.85,0,0,1,12.5,3,73.24,73.24,0,0,1,13,6,74.43,74.43,0,0,1,10,6.5c2,1.66,3.67,3,5,4a38,38,0,0,1,4,3.5l2,2-4,1.5a78.7,78.7,0,0,1-11.5,3,118,118,0,0,1-14,2,79.15,79.15,0,0,1-15-.5,58.5,58.5,0,0,1-15.25-3.75Q199,264,196.54,262c-1.67-1.33-2.58-2.08-2.75-2.25a3,3,0,0,0-1.25-.5,3,3,0,0,1-1.75-1.75,16,16,0,0,0-3-3.75c-1.5-1.5-.42-2.09,3.25-1.75s11.5,1.5,23.5,3.5,19.33,3,22,3h4l-2.5-1q-2.5-1-25.5-6.5T188,245l-1.5-.5,1.5-1a28.65,28.65,0,0,1,6.5-2.5A54,54,0,0,1,206,239Z" transform="translate(-3.04 -2.93)"/><path id="path16" class="cls-1" d="M213,114.47l2-2.5,1,1.5a58.76,58.76,0,0,1,3.5,7.5,52.94,52.94,0,0,1,3,8.5q.5,2.5,0,16.5t-2,19.5a96,96,0,0,1-4,11.5l-2.5,6-.5-1q-.49-1,0-23l.5-22-.5.5q-.49.48-2.5,23t-2.75,24.25c-.5,1.17-1.17,1.17-2,0s-2.08-4.08-3.75-8.75a83.73,83.73,0,0,1-3-9.5q-.49-2.5,0-12.5a62,62,0,0,1,2.5-16,128.53,128.53,0,0,1,5.5-13.5Q211,117,213,114.47Z" transform="translate(-3.04 -2.93)"/><path id="path18" class="cls-1" d="M240.54,194.47a65.92,65.92,0,0,1,16,2,70.28,70.28,0,0,1,17,7q9,5,12.25,7.75c2.17,1.83,3.33,3.08,3.5,3.75a3,3,0,0,0,1.75,1.75,8.67,8.67,0,0,1,2.25,1.5,4.81,4.81,0,0,1,1,2.75l.25,2-5.5.75q-5.51.75-19.5.25t-20-2.5a55.38,55.38,0,0,1-11-5,63.11,63.11,0,0,1-9.25-6.75c-2.83-2.5-4.33-4.09-4.5-4.75l-.25-1,8,1.75q8,1.74,15.5,3.75t11.5,3a28,28,0,0,0,6.5,1h2.5l-5-2q-5-2-11-4l-12-4q-6-2-11.25-4.25c-3.5-1.5-5.17-2.34-5-2.5a23.28,23.28,0,0,1,4.25-1.25A53.08,53.08,0,0,1,240.54,194.47Z" transform="translate(-3.04 -2.93)"/><path id="path20" class="cls-1" d="M283,143a167.9,167.9,0,0,1,18.5,0q12,.48,15.5.75l3.5.25-.75,1.5a24.24,24.24,0,0,1-2.25,3.5l-3,4a45.93,45.93,0,0,1-5.75,5.75,71.75,71.75,0,0,1-7.25,5.75q-3,2-5,3.5t-9,4.5a69,69,0,0,1-11.5,4q-4.5,1-13.5.5t-11-.75l-2-.25v-1q0-1,3-2.25c2-.83,4.67-1.92,8-3.25s8-3.17,14-5.5,11.17-4.5,15.5-6.5l6.5-3-3,.5q-3,.48-24,7.5T247,169.72q-1.5.25-.5-3a17.37,17.37,0,0,1,3-5.75q2-2.52,4.5-5.5a29.41,29.41,0,0,1,7.5-6,44.08,44.08,0,0,1,10-4.5A54,54,0,0,1,283,143Z" transform="translate(-3.04 -2.93)"/><path id="path2-2" data-name="path2" class="cls-1" d="M1653.16,305.11a2.61,2.61,0,0,1-.94,3.56l0,0-2,1.3-2.6.65c-1.73.43-2.71.55-2.93.33a61.21,61.21,0,0,1-2.93-6.18,87.17,87.17,0,0,0-5.85-11.06,92.34,92.34,0,0,0-5.86-8.46q-2.6-3.25-4.55-5.85t-12-12q-10.1-9.44-12.69-11.38c-1.73-1.3-3.69-2.82-5.85-4.56s-4.56-3.47-7.16-5.2-5-3.47-7.16-5.2-4.55-3.48-7.15-5.21a91.27,91.27,0,0,1-9.11-7.15,89.92,89.92,0,0,0-9.11-7.16,93,93,0,0,1-9.43-7.48q-5.53-4.89-8.78-7.48a29.2,29.2,0,0,1-5.21-5.21q-1.95-2.59-9.76-11.06a120.46,120.46,0,0,1-10.41-12.36l-3.9-5.85q-1.3-2-3.25-4.56l-3.9-5.2q-2-2.61-9.11-15.61a212.42,212.42,0,0,1-11.06-22.77q-3.9-9.76-5.21-13.67T1470.68,94q-3.26-12.35-5.2-24.07t-3.26-26q-1.29-14.31-1.62-27.32t1.62-13.34l2-.33,3.26.33q3.25.33,4.23,23.74a327.18,327.18,0,0,0,3.57,39q2.61,15.61,5.86,28.62a147.81,147.81,0,0,0,7.15,22.12q3.91,9.1,6.51,15t5.86,11.71q3.24,5.87,7.8,13.66a84.47,84.47,0,0,0,9.11,13c3,3.47,5.2,6.07,6.51,7.8s3.57,4.45,6.83,8.13a58.81,58.81,0,0,0,7.48,7.49q2.6,1.95,13,11.71t15.61,13q5.2,3.24,7.81,5.2t6.5,4.55a92.85,92.85,0,0,1,9.11,7.16q5.2,4.56,7.81,6.51t5.85,4.55a37.63,37.63,0,0,0,6.51,4.23,9,9,0,0,1,4.23,3.58q1,1.95,10.73,12.36t12.36,14.31l3.9,5.85c.87,1.31,2.61,4.12,5.21,8.46a79.44,79.44,0,0,0,4.55,7.16A10.36,10.36,0,0,1,1653.16,305.11Z" transform="translate(-3.04 -2.93)"/><path id="path4-2" data-name="path4" class="cls-1" d="M1627.79,59.53l.32,1.3-3.9,1.63c-2.6,1.08-6.08,2.5-10.41,4.23a188.19,188.19,0,0,1-18.21,5.85q-11.71,3.27-15.62,3.91t-19.51,0a132,132,0,0,1-26-3.26,103.24,103.24,0,0,1-16.26-5.2,112.83,112.83,0,0,1-12.36-6.51A83,83,0,0,1,1495.08,54q-4.23-3.55-5.21-4.55l-1-1,11.71.65q11.7.65,52,3.26L1593,55,1583.23,53q-9.76-2-42.29-7.16t-39.68-7.16l-7.16-2,7.81-3.25a152.17,152.17,0,0,1,16.91-5.86c6.08-1.73,10.19-2.82,12.36-3.25s8.89-.43,20.17,0,19.29,1.3,24.07,2.6a91.2,91.2,0,0,1,13,4.56,145.27,145.27,0,0,1,13.66,7.15,89,89,0,0,1,15,11.06,94.85,94.85,0,0,0,8.79,7.48A3.93,3.93,0,0,1,1627.79,59.53Z" transform="translate(-3.04 -2.93)"/><path id="path6-2" data-name="path6" class="cls-1" d="M1454.42,69.29a104.33,104.33,0,0,1-2.61,20.82,84.49,84.49,0,0,1-6.5,20.16,78.71,78.71,0,0,1-5.86,10.41l-3.9,5.21q-2,2.6-4.55,5.85a16.16,16.16,0,0,0-2.93,4.56,1.54,1.54,0,0,1-1.63,1.3c-.87,0-1.62.65-2.27,2s-3.91,4.88-9.76,10.73-9.21,8.89-10.09,9.11A1.54,1.54,0,0,0,1403,161c0,.87-.65,1.62-2,2.27a63.53,63.53,0,0,0-5.85,3.58c-2.61,1.74-4.77,3.26-6.51,4.56a13,13,0,0,1-3.9,2.27l-1.3.33-.33-1.95q-.33-2,.33-23.42t2.6-29.28a100.07,100.07,0,0,1,6.5-17.56,115.23,115.23,0,0,1,7.16-13.66,87.58,87.58,0,0,1,6.51-8.46q3.9-4.55,4.22-5.86a1.54,1.54,0,0,1,1.63-1.3,1.14,1.14,0,0,0,1.3-1,1,1,0,0,0,0-.34,1.15,1.15,0,0,1,1-1.3.92.92,0,0,1,.33,0c.87,0,1.52-.55,2-1.63a9.48,9.48,0,0,1,3.26-3.57q2.6-1.95,6.5-5.21a40.06,40.06,0,0,1,7.81-5.2c2.6-1.3,4.45-1.85,5.53-1.63s.75,2.28-1,6.18-5.42,11.93-11.06,24.07-9.53,20.39-11.71,24.72-4.77,9.76-7.8,16.27-5,10.83-5.86,13a15,15,0,0,0-1.3,4.55v1.3l2.6-3.25a135.05,135.05,0,0,0,9.11-15q6.51-11.72,8.46-14.32T1429.7,96q6.49-11.7,7.8-13.66t7.16-12.36q5.85-10.41,7.15-11.71l1.31-1.3.65,2Q1454.4,60.83,1454.42,69.29Z" transform="translate(-3.04 -2.93)"/><path id="path8-2" data-name="path8" class="cls-1" d="M1636.57,138.57l3.25,1.63-1,2.6a8.92,8.92,0,0,1-3.26,4.23q-2.27,1.64-14,6.83a100.12,100.12,0,0,1-22.12,7.16q-10.41,1.95-16.92,2.6t-20.16-1.3a110.68,110.68,0,0,1-20.82-4.55,122.77,122.77,0,0,1-17.56-8.46c-6.94-3.91-10.63-6.07-11.06-6.51l-.65-.65,49.44-.65,49.44-.65-12.36-1.3q-12.36-1.31-45.54-3.9t-34.8-3.58c-1.08-.65-.88-1.52.65-2.6a66.79,66.79,0,0,1,9.43-4.88,102.83,102.83,0,0,1,17.56-5.86,145.77,145.77,0,0,1,15.62-3.25,100.31,100.31,0,0,1,16.26,0,104.38,104.38,0,0,1,18.87,2.6,69.65,69.65,0,0,1,14.31,5.21q6.51,3.24,11.71,6.5t7.81,5.21A36.74,36.74,0,0,0,1636.57,138.57Z" transform="translate(-3.04 -2.93)"/><path id="path10-2" data-name="path10" class="cls-1" d="M1494.75,197.45a107.25,107.25,0,0,1-1.3,19.52,97.73,97.73,0,0,1-5.21,16.26q-3.9,9.75-5.85,12.36t-4.55,6.5c-1.73,2.61-3.48,5-5.21,7.16s-3.25,4.13-4.55,5.86a120,120,0,0,1-9.11,9.75l-7.16,7.16-2.6-6.51a92.41,92.41,0,0,1-4.55-16.91,118.07,118.07,0,0,1-1.3-26q.65-15.62,3.9-24.72t5.86-15a66.52,66.52,0,0,1,5.2-9.75q2.6-3.91,11.38-12t10.09-8.46q1.31-.31-4.88,26.35t-8.13,33.83a134.45,134.45,0,0,0-3.26,16.26l-1.3,9.11.65-.65q.66-.64,14-41.31t13.66-41l.33-.33.65,1.3q.64,1.31,2,9.76A145.37,145.37,0,0,1,1494.75,197.45Z" transform="translate(-3.04 -2.93)"/><path id="path12-2" data-name="path12" class="cls-1" d="M1690.57,211.11l1.3,1.3-3.91,3.25a57.94,57.94,0,0,1-12.36,7.16,100.78,100.78,0,0,1-15.61,5.86,91.08,91.08,0,0,1-12.36,2.6,132,132,0,0,1-18.87,0,95.93,95.93,0,0,1-24.07-3.91,146.33,146.33,0,0,1-14-4.88c-2.39-1.08-3.69-2.06-3.91-2.92s11.39-1.85,34.81-2.93,36.21-1.84,38.38-2.28l3.25-.65-10.41-.65q-10.39-.65-39-1.95l-28.62-1.3,2-1.3a96.11,96.11,0,0,1,11.06-5.21,105.48,105.48,0,0,1,17.56-5.85,113.18,113.18,0,0,1,16.27-2.6,88.73,88.73,0,0,1,18.21.65,96,96,0,0,1,18.22,3.9,71.83,71.83,0,0,1,14.31,6.51A55.79,55.79,0,0,1,1690.57,211.11Z" transform="translate(-3.04 -2.93)"/><path id="path14-2" data-name="path14" class="cls-1" d="M1570.86,267.06a73.06,73.06,0,0,1-.65,16.91,100.09,100.09,0,0,1-3.9,16.27,94.21,94.21,0,0,1-7.81,16.91,95.93,95.93,0,0,1-8.45,13q-3.25,3.9-5.21,6.51a48.81,48.81,0,0,1-4.55,5.2l-2.6,2.6-2-5.2a101.56,101.56,0,0,1-3.91-15,153.38,153.38,0,0,1-2.6-18.22,101.9,101.9,0,0,1,.65-19.52,76.33,76.33,0,0,1,4.88-19.84q3.57-8.78,6.18-12c1.73-2.18,2.71-3.36,2.93-3.58a4.14,4.14,0,0,0,.65-1.63,3.86,3.86,0,0,1,2.27-2.27,20.73,20.73,0,0,0,4.88-3.91c2-1.95,2.71-.54,2.28,4.23s-2,15-4.55,30.58-3.91,25.15-3.91,28.62V312l1.3-3.26q1.31-3.26,8.46-33.18t7.81-31.87l.65-1.95,1.3,1.95a37.67,37.67,0,0,1,3.25,8.45A71.13,71.13,0,0,1,1570.86,267.06Z" transform="translate(-3.04 -2.93)"/><path id="path16-2" data-name="path16" class="cls-1" d="M1732.85,276.17l3.25,2.6-1.95,1.3a74.58,74.58,0,0,1-9.76,4.55,68.41,68.41,0,0,1-11.05,3.91q-3.27.64-21.47,0t-25.37-2.61a123.23,123.23,0,0,1-15-5.2l-7.8-3.25,1.3-.65q1.31-.66,29.92,0l28.63.65-.65-.65q-.65-.66-29.93-3.26T1641.45,270q-2.28-1,0-2.61t11.38-4.88a109.37,109.37,0,0,1,12.36-3.9q3.25-.64,16.27,0a80.72,80.72,0,0,1,20.82,3.25,166.08,166.08,0,0,1,17.56,7.16Q1729.61,273.57,1732.85,276.17Z" transform="translate(-3.04 -2.93)"/><path id="path18-2" data-name="path18" class="cls-1" d="M1628.76,312a85.36,85.36,0,0,1-2.6,20.81,91.7,91.7,0,0,1-9.11,22.12q-6.49,11.72-10.08,15.94c-2.38,2.82-4,4.33-4.88,4.55a3.94,3.94,0,0,0-2.28,2.28,11.26,11.26,0,0,1-2,2.93,6.19,6.19,0,0,1-3.58,1.3l-2.6.33-1-7.16q-1-7.16-.33-25.37t3.25-26a71.66,71.66,0,0,1,6.51-14.32,80.88,80.88,0,0,1,8.78-12q4.88-5.54,6.18-5.86l1.3-.32-2.27,10.41q-2.28,10.41-4.88,20.16t-3.91,15a36.54,36.54,0,0,0-1.3,8.45v3.26l2.61-6.51q2.6-6.51,5.2-14.31l5.2-15.61q2.61-7.81,5.53-14.64c2-4.56,3-6.72,3.26-6.51a31.3,31.3,0,0,1,1.62,5.53A68.8,68.8,0,0,1,1628.76,312Z" transform="translate(-3.04 -2.93)"/><path id="path20-2" data-name="path20" class="cls-1" d="M1695.77,367.24a219.62,219.62,0,0,1,0,24.07q-.63,15.62-1,20.17l-.32,4.55-2-1a30.75,30.75,0,0,1-4.56-2.93l-5.2-3.9a59.39,59.39,0,0,1-7.48-7.48,90.63,90.63,0,0,1-7.48-9.44q-2.61-3.9-4.56-6.5t-5.85-11.71a89.94,89.94,0,0,1-5.21-15q-1.29-5.85-.65-17.56t1-14.31l.32-2.6h1.31c.86,0,1.84,1.3,2.92,3.9s2.5,6.07,4.23,10.41,4.13,10.41,7.16,18.21,5.85,14.54,8.45,20.17l3.91,8.46-.65-3.91q-.65-3.9-9.76-31.22T1661,320.4q-.35-1.95,3.9-.65a22.32,22.32,0,0,1,7.48,3.91q3.27,2.59,7.16,5.85a38.55,38.55,0,0,1,7.8,9.76,57.21,57.21,0,0,1,5.86,13A71,71,0,0,1,1695.77,367.24Z" transform="translate(-3.04 -2.93)"/><path id="path2-3" data-name="path2" class="cls-1" d="M1683.29,869.72a2,2,0,0,0-2.74.72v0l-1,1.5-.5,2c-.33,1.33-.42,2.08-.25,2.25a45.8,45.8,0,0,0,4.75,2.25,67,67,0,0,1,8.5,4.5,70.89,70.89,0,0,1,6.5,4.5q2.51,2,4.5,3.5t9.25,9.25q7.24,7.74,8.75,9.75t3.5,4.5c1.33,1.67,2.67,3.5,4,5.5s2.67,3.83,4,5.5,2.67,3.5,4,5.5a71.12,71.12,0,0,0,5.5,7,68.83,68.83,0,0,1,5.5,7,70.36,70.36,0,0,0,5.75,7.25q3.75,4.24,5.75,6.75a22.6,22.6,0,0,0,4,4q2,1.5,8.5,7.5a90.75,90.75,0,0,0,9.5,8l4.5,3c1,.66,2.17,1.5,3.5,2.5l4,3q2,1.5,12,7a162.27,162.27,0,0,0,17.5,8.5q7.5,3,10.5,4t12.5,3.5q9.49,2.49,18.5,4t20,2.5q11,1,21,1.25c6.67.16,10.08-.25,10.25-1.25l.25-1.5-.25-2.5q-.26-2.51-18.25-3.25a253.17,253.17,0,0,1-30-2.75q-12-2-22-4.5a115,115,0,0,1-17-5.5q-7-3-11.5-5t-9-4.5q-4.5-2.51-10.5-6a65.47,65.47,0,0,1-10-7c-2.67-2.34-4.67-4-6-5s-3.42-2.75-6.25-5.25A45.27,45.27,0,0,1,1769,958q-1.5-2-9-10t-10-12q-2.51-4-4-6c-1-1.34-2.17-3-3.5-5a68.83,68.83,0,0,0-5.5-7q-3.49-4-5-6t-3.5-4.5a28.19,28.19,0,0,1-3.25-5,6.83,6.83,0,0,0-2.75-3.25q-1.5-.75-9.5-8.25t-11-9.5l-4.5-3q-1.5-1-6.5-4a61.61,61.61,0,0,1-5.5-3.5A7.89,7.89,0,0,0,1683.29,869.72Z" transform="translate(-3.04 -2.93)"/><path id="path4-3" data-name="path4" class="cls-1" d="M1872,889.22l-1-.25-1.25,3c-.83,2-1.92,4.67-3.25,8a142.57,142.57,0,0,0-4.5,14q-2.51,9-3,12t0,15a102.09,102.09,0,0,0,2.5,20,79.42,79.42,0,0,0,4,12.5,87.74,87.74,0,0,0,5,9.5,65.1,65.1,0,0,0,5.75,8.25c1.83,2.16,3,3.5,3.5,4l.75.75-.5-9q-.49-9-2.5-40l-2-31,1.5,7.5q1.5,7.5,5.5,32.5t5.5,30.5l1.5,5.5,2.5-6a116.74,116.74,0,0,0,4.5-13c1.33-4.67,2.17-7.83,2.5-9.5s.33-6.83,0-15.5-1-14.83-2-18.5a69.29,69.29,0,0,0-3.5-10A111.44,111.44,0,0,0,1888,909a67.81,67.81,0,0,0-8.5-11.5,75.33,75.33,0,0,1-5.75-6.75A3,3,0,0,0,1872,889.22Z" transform="translate(-3.04 -2.93)"/><path id="path6-3" data-name="path6" class="cls-1" d="M1864.54,1022.47a80.52,80.52,0,0,0-16,2,65,65,0,0,0-15.5,5,59.83,59.83,0,0,0-8,4.5l-4,3c-1.33,1-2.83,2.16-4.5,3.5a12.54,12.54,0,0,1-3.5,2.25,1.18,1.18,0,0,0-1,1.25c0,.67-.5,1.25-1.5,1.75s-3.75,3-8.25,7.5-6.83,7.08-7,7.75a1.18,1.18,0,0,1-1.25,1c-.67,0-1.25.5-1.75,1.5a47,47,0,0,1-2.75,4.5c-1.33,2-2.5,3.66-3.5,5a9.93,9.93,0,0,0-1.75,3l-.25,1,1.5.25q1.5.24,18-.25t22.5-2a77,77,0,0,0,13.5-5,90.36,90.36,0,0,0,10.5-5.5,71.45,71.45,0,0,0,6.5-5c2.33-2,3.83-3.09,4.5-3.25a1.18,1.18,0,0,0,1-1.25.88.88,0,0,1,.74-1,.57.57,0,0,1,.26,0,.88.88,0,0,0,1-.74,1.13,1.13,0,0,0,0-.26c0-.67.42-1.17,1.25-1.5a7.35,7.35,0,0,0,2.75-2.5c1-1.34,2.33-3,4-5a31.35,31.35,0,0,0,4-6c1-2,1.42-3.42,1.25-4.25s-1.75-.58-4.75.75-9.17,4.17-18.5,8.5-15.67,7.33-19,9-7.5,3.67-12.5,6-8.33,3.83-10,4.5a11.6,11.6,0,0,1-3.5,1h-1l2.5-2a103.73,103.73,0,0,1,11.5-7q9-5,11-6.5t11-6.5q9-5,10.5-6t9.5-5.5q8-4.5,9-5.5l1-1-1.5-.5Q1871,1022.47,1864.54,1022.47Z" transform="translate(-3.04 -2.93)"/><path id="path8-3" data-name="path8" class="cls-1" d="M1811.29,882.47,1810,880l-2,.75a6.81,6.81,0,0,0-3.25,2.5q-1.24,1.74-5.25,10.75a76.91,76.91,0,0,0-5.5,17q-1.5,8-2,13t1,15.5a85.1,85.1,0,0,0,3.5,16A94.14,94.14,0,0,0,1803,969q4.5,8,5,8.5l.5.5.5-38,.5-38,1,9.5q1,9.49,3,35t2.75,26.75c.5.83,1.17.67,2-.5a52.36,52.36,0,0,0,3.75-7.25,79.51,79.51,0,0,0,4.5-13.5,111.6,111.6,0,0,0,2.5-12,76.72,76.72,0,0,0,0-12.5,79.57,79.57,0,0,0-2-14.5,53.83,53.83,0,0,0-4-11q-2.51-5-5-9t-4-6A29.6,29.6,0,0,1,1811.29,882.47Z" transform="translate(-3.04 -2.93)"/><path id="path10-3" data-name="path10" class="cls-1" d="M1766,991.47a81.88,81.88,0,0,0-15,1,74,74,0,0,0-12.5,4q-7.5,3-9.5,4.5c-1.33,1-3,2.16-5,3.5s-3.83,2.67-5.5,4-3.17,2.5-4.5,3.5a91.89,91.89,0,0,0-7.5,7l-5.5,5.5,5,2a71.92,71.92,0,0,0,13,3.5,91.1,91.1,0,0,0,20,1q12-.51,19-3t11.5-4.5a50.89,50.89,0,0,0,7.5-4q3-2,9.25-8.75t6.5-7.75q.26-1-20.25,3.75t-26,6.25a104.32,104.32,0,0,1-12.5,2.5l-7,1,.5-.5q.49-.51,31.75-10.75t31.5-10.5l.25-.25-1-.5q-1-.51-7.5-1.5A111,111,0,0,0,1766,991.47Z" transform="translate(-3.04 -2.93)"/><path id="path12-3" data-name="path12" class="cls-1" d="M1755.54,841l-1-1-2.5,3a44.35,44.35,0,0,0-5.5,9.5,77.71,77.71,0,0,0-4.5,12,68.24,68.24,0,0,0-2,9.5,100.25,100.25,0,0,0,0,14.5,74,74,0,0,0,3,18.5q1.61,5.46,3.75,10.75,1.24,2.74,2.25,3t2.25-26.75q1.24-27,1.75-29.5l.5-2.5.5,8q.49,8,1.5,30l1,22,1-1.5a74.76,74.76,0,0,0,4-8.5,80.4,80.4,0,0,0,4.5-13.5,88.16,88.16,0,0,0,2-12.5,69,69,0,0,0-.5-14,74.29,74.29,0,0,0-3-14,55.38,55.38,0,0,0-5-11A42.3,42.3,0,0,0,1755.54,841Z" transform="translate(-3.04 -2.93)"/><path id="path14-3" data-name="path14" class="cls-1" d="M1712.54,933a56,56,0,0,0-13,.5,76.6,76.6,0,0,0-12.5,3,72.92,72.92,0,0,0-13,6,73.81,73.81,0,0,0-10,6.5c-2,1.66-3.67,3-5,4a38,38,0,0,0-4,3.5l-2,2,4,1.5a78.7,78.7,0,0,0,11.5,3,118,118,0,0,0,14,2,79.17,79.17,0,0,0,15-.5,58.5,58.5,0,0,0,15.25-3.75q6.75-2.76,9.25-4.75c1.67-1.33,2.58-2.08,2.75-2.25a3,3,0,0,1,1.25-.5,3,3,0,0,0,1.75-1.75,16,16,0,0,1,3-3.75c1.5-1.5.42-2.09-3.25-1.75s-11.5,1.5-23.5,3.5-19.33,3-22,3h-4l2.5-1q2.51-1,25.5-6.5t24.5-6l1.5-.5-1.5-1a28.65,28.65,0,0,0-6.5-2.5A54.12,54.12,0,0,0,1712.54,933Z" transform="translate(-3.04 -2.93)"/><path id="path16-3" data-name="path16" class="cls-1" d="M1705.54,808.47l-2-2.5-1,1.5a57.43,57.43,0,0,0-3.5,7.5,52.94,52.94,0,0,0-3,8.5q-.49,2.5,0,16.5t2,19.5a94.26,94.26,0,0,0,4,11.5l2.5,6,.5-1q.49-1,0-23l-.5-22,.5.5q.49.48,2.5,23t2.75,24.25c.5,1.17,1.17,1.17,2,0s2.08-4.08,3.75-8.75a83.73,83.73,0,0,0,3-9.5q.49-2.51,0-12.5a62,62,0,0,0-2.5-16,128.53,128.53,0,0,0-5.5-13.5Q1707.55,811,1705.54,808.47Z" transform="translate(-3.04 -2.93)"/><path id="path18-3" data-name="path18" class="cls-1" d="M1678,888.47a65.86,65.86,0,0,0-16,2,70.28,70.28,0,0,0-17,7q-9,5-12.25,7.75c-2.17,1.83-3.33,3.08-3.5,3.75a3,3,0,0,1-1.75,1.75,8.67,8.67,0,0,0-2.25,1.5,4.81,4.81,0,0,0-1,2.75l-.25,2,5.5.75q5.51.75,19.5.25t20-2.5a55.38,55.38,0,0,0,11-5,63.11,63.11,0,0,0,9.25-6.75c2.83-2.5,4.33-4.09,4.5-4.75l.25-1-8,1.75q-8,1.74-15.5,3.75t-11.5,3a28,28,0,0,1-6.5,1H1650l5-2q5-2,11-4l12-4q6-2,11.25-4.25c3.5-1.5,5.17-2.34,5-2.5a23.52,23.52,0,0,0-4.25-1.25A53.13,53.13,0,0,0,1678,888.47Z" transform="translate(-3.04 -2.93)"/><path id="path20-3" data-name="path20" class="cls-1" d="M1635.54,837a167.9,167.9,0,0,0-18.5,0q-12,.48-15.5.75l-3.5.25.75,1.5A23.42,23.42,0,0,0,1601,843l3,4a45.27,45.27,0,0,0,5.75,5.75,71.75,71.75,0,0,0,7.25,5.75q3,2,5,3.5t9,4.5a68.66,68.66,0,0,0,11.5,4q4.5,1,13.5.5t11-.75l2-.25v-1q0-1-3-2.25c-2-.83-4.67-1.92-8-3.25s-8-3.17-14-5.5-11.17-4.5-15.5-6.5l-6.5-3,3,.5q3,.48,24,7.5t22.5,7.25q1.5.25.5-3a17.37,17.37,0,0,0-3-5.75q-2-2.52-4.5-5.5a29.58,29.58,0,0,0-7.5-6,44.08,44.08,0,0,0-10-4.5A54.12,54.12,0,0,0,1635.54,837Z" transform="translate(-3.04 -2.93)"/><path id="path2-4" data-name="path2" class="cls-1" d="M517.59,611.55a3.63,3.63,0,0,1,5-1.34l.05,0,2.92,1.45,2.6,2.69c1.72,1.8,2.54,2.9,2.43,3.32a82.72,82.72,0,0,1-5.43,7.83,121.73,121.73,0,0,0-9.3,14.77,129,129,0,0,0-6.15,13q-2.13,5.4-3.91,9.58t-6.18,22.91q-4.4,18.75-4.94,23.25t-1.43,10.25c-.58,3.83-1,7.92-1.32,12.27s-.73,8.43-1.31,12.26-1,7.92-1.31,12.27A128.86,128.86,0,0,1,487,772a128.43,128.43,0,0,0-2.32,16,127.49,127.49,0,0,1-2.48,16.61q-2.06,10.08-2.93,15.82a40.62,40.62,0,0,1-2.68,9.91q-1.79,4.15-6.58,19.48a164.36,164.36,0,0,1-7.7,21.18l-4.36,8.79q-1.45,2.93-3.24,7.1l-3.58,8.33q-1.79,4.17-12.54,21.87a294.44,294.44,0,0,1-19.83,29.2q-9.07,11.51-12.89,15.79t-16.49,16.82q-12.68,12.51-25.48,23t-29.19,22q-16.4,11.52-31.9,21t-17.25,7.31l-1.75-2.13-1.87-4.16q-1.84-4.17,25.76-21.62a457.19,457.19,0,0,0,44.7-31.47q17.06-14,30.52-27a205.67,205.67,0,0,0,21.76-24q8.3-11.05,13.56-18.27t10.09-15.22q4.82-8,11.08-18.93a117.8,117.8,0,0,0,9.39-20.06q3.13-9.12,4.92-13.29c1.18-2.78,2.89-7.42,5.07-13.91a82,82,0,0,0,3.84-14.25q.56-4.5,5.11-23.87t4.87-27.92q.31-8.55.86-13t1-11a128.32,128.32,0,0,1,2.32-16c1.25-6.3,2.07-11,2.43-14s.85-6.42,1.43-10.24a50.81,50.81,0,0,0,.59-10.81,12.48,12.48,0,0,1,1.39-7.6q1.68-2.54,7.47-21.57T498.74,647l4.36-8.79q1.45-2.93,6.6-12.17a106.45,106.45,0,0,0,5.48-10.48A14.66,14.66,0,0,1,517.59,611.55Z" transform="translate(-3.04 -2.93)"/><path id="path4-4" data-name="path4" class="cls-1" d="M238.39,813l1.35-1.3,4.68,3.58c3.12,2.4,7.25,5.61,12.35,9.65a261.92,261.92,0,0,1,19.74,17.94q12.11,11.88,15.58,16.16t13.57,23.59a184.63,184.63,0,0,1,14.17,33.71,144.76,144.76,0,0,1,5,23.28,160.21,160.21,0,0,1,.73,19.47A116.49,116.49,0,0,1,324,977.25c-.91,5.06-1.54,8.22-1.88,9.46l-.51,1.86L314.26,974q-7.38-14.6-32.26-65.17l-24.91-50.56,4.43,13.15q4.43,13.15,20.76,56.09t18.94,52.94l2.62,10-9.36-7.17a211.11,211.11,0,0,1-18.84-16.38q-9.48-9.21-12.53-12.67t-14-24.38q-11-20.9-13.59-30.9A127.67,127.67,0,0,1,232,880a200.13,200.13,0,0,1-.85-21.49,124.1,124.1,0,0,1,3-25.77A133,133,0,0,0,237,816.94,5.42,5.42,0,0,1,238.39,813Z" transform="translate(-3.04 -2.93)"/><path id="path6-4" data-name="path6" class="cls-1" d="M370.75,1015.77a145.09,145.09,0,0,1,27-11.33,118,118,0,0,1,28.9-6.17,111.49,111.49,0,0,1,16.65-.16l9,1.1q4.5.56,10.24,1.43a22.47,22.47,0,0,0,7.54.38,2.12,2.12,0,0,1,2.7,1.06c.61,1,1.92,1.51,4,1.39s8.61,1.33,19.76,4.33,17.14,5,18,5.86a2.15,2.15,0,0,0,2.87.44q1.57-.92,4.11.77a84.21,84.21,0,0,0,8.39,4.59q5.86,2.91,10,4.7a18.38,18.38,0,0,1,5.47,3.13l1.3,1.35-2.14,1.75q-2.13,1.75-28.53,15.89t-37.2,17.22a139.42,139.42,0,0,1-25.75,4.35,162.4,162.4,0,0,1-21.49.85,122.08,122.08,0,0,1-14.75-2q-8.19-1.56-10-1a2.16,2.16,0,0,1-2.71-1.06,1.6,1.6,0,0,0-2.07-.91,1.63,1.63,0,0,0-.4.24,1.6,1.6,0,0,1-2.25-.26,1.5,1.5,0,0,1-.23-.41q-.92-1.58-3.33-1.23a13.18,13.18,0,0,1-6.58-1.44q-4.17-1.78-10.82-4.24a56.41,56.41,0,0,1-11.72-5.82q-5.07-3.36-5.81-5.55t8.15-3.12q8.88-.93,36.79-3.37t38-3q10.13-.59,25.09-1.87t19.8-2a20.53,20.53,0,0,0,6.4-1.59l1.58-.9-5.74-.89a187.81,187.81,0,0,0-24.42-.6q-18.69.28-23.18-.27t-23.18-.27q-18.69.29-21.95.06t-19.91-.05q-16.65.17-19.13-.51l-2.48-.66,1.91-2.15Q360.54,1021.66,370.75,1015.77Z" transform="translate(-3.04 -2.93)"/><path id="path8-4" data-name="path8" class="cls-1" d="M327.83,747.41l-.3-5.06,3.82-.63a12.49,12.49,0,0,1,7.38,1q3.54,1.62,18,12.16a139.46,139.46,0,0,1,24,21.76q9.6,11.22,14.91,18.63t12.45,25.28a153.69,153.69,0,0,1,9,28.33,170.91,170.91,0,0,1,2,27.11q.15,16.66-.18,17.9l-.33,1.23-35.17-59.3L348.22,776.5l7,15.84q7,15.85,26.95,57.76t19.87,44.56c0,1.75-1.23,2.11-3.59,1a94.65,94.65,0,0,1-12.46-8,143.52,143.52,0,0,1-19.29-17.16,200.9,200.9,0,0,1-14.79-16.61,138.9,138.9,0,0,1-11.31-19.66,145.48,145.48,0,0,1-10-24.61A97.06,97.06,0,0,1,327,788.71q-.58-10.12-.28-18.68t.86-13A52.78,52.78,0,0,0,327.83,747.41Z" transform="translate(-3.04 -2.93)"/><path id="path10-4" data-name="path10" class="cls-1" d="M497.61,877.89a150.23,150.23,0,0,1,24.5-12,136,136,0,0,1,23.28-5q14.5-2.07,19-1.52t11,1c4.35.29,8.44.74,12.27,1.32s7.24,1.06,10.24,1.43a167.81,167.81,0,0,1,18.13,4.22L629.7,871l-6.06,7.67a129.87,129.87,0,0,1-17.28,17.26,164.83,164.83,0,0,1-30.54,19.67q-19.34,10.08-32.6,12.48t-22.16,3.32a92.24,92.24,0,0,1-15.41.5q-6.52-.43-22.47-5.39T466,920.18q-1.31-1.35,35.24-12.42t46.54-13.7a187.51,187.51,0,0,0,21.92-7.38l11.92-4.76-1.24-.33q-1.25-.35-59.66,11.82t-59,12l-.62-.17,1.12-1.69q1.13-1.69,10.44-9.15A202.66,202.66,0,0,1,497.61,877.89Z" transform="translate(-3.04 -2.93)"/><path id="path12-4" data-name="path12" class="cls-1" d="M378,631.7l.67-2.47,6.65,2.45a81.18,81.18,0,0,1,17.24,10,140.49,140.49,0,0,1,17.94,14.8,125,125,0,0,1,11.74,13.13,183.45,183.45,0,0,1,13.12,22.8,134.09,134.09,0,0,1,12,31.81q2.42,10,3.83,20.3.52,5.46-.83,6.75t-27.74-40q-26.4-41.33-29.44-44.81l-3-3.48,6.45,13q6.45,13,24.79,48.54L449.67,760l-2.93-1.46a134.91,134.91,0,0,1-14-9.75,145.54,145.54,0,0,1-19.29-17.16A157.74,157.74,0,0,1,399,713.78a123.76,123.76,0,0,1-11.88-22.47,134,134,0,0,1-7.95-24.73,99.29,99.29,0,0,1-2.09-21.82A78.18,78.18,0,0,1,378,631.7Z" transform="translate(-3.04 -2.93)"/><path id="path14-4" data-name="path14" class="cls-1" d="M528.82,737.48a102.35,102.35,0,0,1,20.9-11,139.34,139.34,0,0,1,22.37-6.6A132.09,132.09,0,0,1,598,717.59a135.73,135.73,0,0,1,21.61,1.17q7,1.22,11.48,1.77a70.36,70.36,0,0,1,9.46,1.88l5,1.34-4.94,6a141.58,141.58,0,0,1-15.37,15.12A212.79,212.79,0,0,1,605,760.66a141.62,141.62,0,0,1-24,12.79,106.24,106.24,0,0,1-27.37,7.9q-13.11,1.78-18.85.9c-3.83-.58-5.94-.94-6.36-1a5.55,5.55,0,0,0-2.42.34,5.42,5.42,0,0,1-4.33-1.16,29,29,0,0,0-8.12-3.19q-5.57-1.5,3.53-5.69t40.13-15.76q31-11.57,37.31-15.19l6.29-3.62-4.84.69q-4.83.69-46,12.85t-44,12.74l-2.81.57,1.45-2.93a52.58,52.58,0,0,1,8-9.82A100.11,100.11,0,0,1,528.82,737.48Z" transform="translate(-3.04 -2.93)"/><path id="path16-4" data-name="path16" class="cls-1" d="M427.18,535.35l.88-5.74,2.93,1.45a105.12,105.12,0,0,1,12.29,8.63,94.83,94.83,0,0,1,12.41,10.66q3.06,3.49,14.93,25.95t14.5,32.47a172,172,0,0,1,4.12,21.71l1.49,11.7L489,641.05q-1.69-1.11-20.81-36.17l-19.12-35-.33,1.24q-.34,1.23,16.88,38.43t17.61,40.63c.28,2.29-.78,2.9-3.14,1.81s-7-4.54-13.82-10.37A150.91,150.91,0,0,1,453,629.35q-3-3.48-11.31-19.66a112.34,112.34,0,0,1-10.55-27.43,233.58,233.58,0,0,1-3.56-26.2Q426.29,541.09,427.18,535.35Z" transform="translate(-3.04 -2.93)"/><path id="path18-4" data-name="path18" class="cls-1" d="M542.81,636.28a120,120,0,0,1,27-11.33,128.15,128.15,0,0,1,33.06-4.37q18.69-.29,26.28,1.1c5.07.92,8,1.83,8.9,2.73a5.44,5.44,0,0,0,4.34,1.17,15.47,15.47,0,0,1,4.89.33,8.59,8.59,0,0,1,4.06,3.42l2.2,2.91-8,6.16q-8,6.15-30.44,18T581.4,670.6a99.44,99.44,0,0,1-21.83,2.09,114.57,114.57,0,0,1-20.65-2.24q-10.08-2.06-11.38-3.4l-1.29-1.35,14.16-4.49q14.16-4.49,27.77-8.12T589,647.4a50.51,50.51,0,0,0,11.13-4.31l3.93-2.26-9.67,1.38q-9.68,1.38-20.92,3.66L551,650.44q-11.25,2.28-21.54,3.49t-10.13.59a43.63,43.63,0,0,1,5.56-5.81A96.17,96.17,0,0,1,542.81,636.28Z" transform="translate(-3.04 -2.93)"/><path id="path20-4" data-name="path20" class="cls-1" d="M563.05,516.84a305.25,305.25,0,0,1,29.1-16.74q19.32-10.1,25.05-12.85l5.73-2.77.18,3a42.26,42.26,0,0,1-.37,7.54l-1.1,9a82.62,82.62,0,0,1-3.84,14.25,126.92,126.92,0,0,1-6.2,15.6q-2.91,5.87-4.69,10t-10.09,15.22a124.92,124.92,0,0,1-14.46,16.69q-6.18,5.65-20.78,13t-18,8.77l-3.37,1.42-.91-1.58c-.6-1.05.29-3.13,2.69-6.25s5.6-7.24,9.64-12.35,9.71-12.22,17-21.32,13.49-17.18,18.49-24.24l7.51-10.6-4.27,3.5q-4.26,3.48-30.95,33.51t-28.83,31.76c-1.41,1.18-2.58-.25-3.5-4.27a31.4,31.4,0,0,1-.48-11.75q.87-5.76,2.1-12.73a53.72,53.72,0,0,1,6.36-16.22,80.07,80.07,0,0,1,11.66-16.12A98.61,98.61,0,0,1,563.05,516.84Z" transform="translate(-3.04 -2.93)"/></svg>