<svg id="圖層_1" data-name="圖層 1" xmlns="http://www.w3.org/2000/svg" viewBox="0 0 317.5 271.33">
	<path id="path2" class="cls-1" d="M232.25,63.75a2,2,0,0,1,2.75.75l1,1.5.5,2c.33,1.33.42,2.08.25,2.25A45.77,45.77,0,0,1,232,72.5a67.86,67.86,0,0,0-8.5,4.5,71.31,71.31,0,0,0-6.5,4.5q-2.5,2-4.5,3.5t-9.25,9.25Q196,102,194.5,104t-3.5,4.5c-1.33,1.67-2.67,3.5-4,5.5s-2.67,3.83-4,5.5-2.67,3.5-4,5.5a70.35,70.35,0,0,1-5.5,7,70.35,70.35,0,0,0-5.5,7,70.38,70.38,0,0,1-5.75,7.25q-3.75,4.25-5.75,6.75a22.52,22.52,0,0,1-4,4q-2,1.5-8.5,7.5a90.82,90.82,0,0,1-9.5,8l-4.5,3q-1.5,1-3.5,2.5l-4,3q-2,1.5-12,7A162.25,162.25,0,0,1,93,196.5q-7.5,3-10.5,4T70,204q-9.49,2.5-18.5,4t-20,2.5q-11,1-21,1.25T.25,210.5L0,209l.25-2.5q.26-2.5,18.25-3.25a251.69,251.69,0,0,0,30-2.75q12-2,22-4.5a114,114,0,0,0,17-5.5q7-3,11.5-5t9-4.5q4.5-2.5,10.5-6a65,65,0,0,0,10-7q4-3.5,6-5c1.33-1,3.42-2.75,6.25-5.25A45.52,45.52,0,0,0,146.5,152q1.5-2,9-10t10-12q2.5-4,4-6t3.5-5a70.35,70.35,0,0,1,5.5-7q3.5-4,5-6t3.5-4.5a28.32,28.32,0,0,0,3.25-5A6.87,6.87,0,0,1,193,93.25q1.5-.75,9.5-8.25t11-9.5l4.5-3q1.5-1,6.5-4A59.36,59.36,0,0,0,230,65,8.09,8.09,0,0,1,232.25,63.75Z" />
	<path id="path4" class="cls-1" d="M43.5,83.25l1-.25,1.25,3c.83,2,1.92,4.67,3.25,8a143.54,143.54,0,0,1,4.5,14q2.51,9,3,12t0,15A101.67,101.67,0,0,1,54,155a79.69,79.69,0,0,1-4,12.5,87.4,87.4,0,0,1-5,9.5,64.06,64.06,0,0,1-5.75,8.25q-2.74,3.25-3.5,4L35,190l.5-9q.49-9,2.5-40l2-31-1.5,7.5Q37,125,33,150t-5.5,30.5L26,186l-2.5-6A116.73,116.73,0,0,1,19,167c-1.33-4.67-2.17-7.83-2.5-9.5s-.33-6.83,0-15.5,1-14.83,2-18.5a70.23,70.23,0,0,1,3.5-10A110.3,110.3,0,0,1,27.5,103,68.31,68.31,0,0,1,36,91.5a74.31,74.31,0,0,0,5.75-6.75A3,3,0,0,1,43.5,83.25Z" />
	<path id="path6" class="cls-1" d="M51,216.5a80.27,80.27,0,0,1,16,2,65,65,0,0,1,15.5,5,60.89,60.89,0,0,1,8,4.5l4,3q2,1.5,4.5,3.5a12.43,12.43,0,0,0,3.5,2.25,1.18,1.18,0,0,1,1,1.25c0,.67.5,1.25,1.5,1.75s3.75,3,8.25,7.5,6.83,7.08,7,7.75a1.18,1.18,0,0,0,1.25,1c.67,0,1.25.5,1.75,1.5A48,48,0,0,0,126,262q2,3,3.5,5a10.06,10.06,0,0,1,1.75,3l.25,1-1.5.25q-1.5.25-18-.25t-22.5-2A76.53,76.53,0,0,1,76,264a89,89,0,0,1-10.5-5.5,67.77,67.77,0,0,1-6.5-5q-3.49-3-4.5-3.25a1.18,1.18,0,0,1-1-1.25.88.88,0,0,0-1-1,.88.88,0,0,1-1-1c0-.67-.42-1.17-1.25-1.5A7.29,7.29,0,0,1,47.5,243q-1.5-2-4-5a31.15,31.15,0,0,1-4-6c-1-2-1.42-3.42-1.25-4.25s1.75-.58,4.75.75,9.17,4.17,18.5,8.5,15.67,7.33,19,9,7.5,3.67,12.5,6,8.33,3.83,10,4.5a11.36,11.36,0,0,0,3.5,1h1l-2.5-2a103.63,103.63,0,0,0-11.5-7q-9-5-11-6.5t-11-6.5q-9-5-10.5-6T51.5,224q-8-4.5-9-5.5l-1-1L43,217Q44.5,216.51,51,216.5Z" />
	<path id="path8" class="cls-1" d="M104.25,76.5,105.5,74l2,.75a6.86,6.86,0,0,1,3.25,2.5Q112,79,116,88a77,77,0,0,1,5.5,17q1.5,8,2,13t-1,15.5a84.84,84.84,0,0,1-3.5,16,94.36,94.36,0,0,1-6.5,13.5q-4.5,8-5,8.5l-.5.5-.5-38L106,96l-1,9.5q-1,9.5-3,35t-2.75,26.75c-.5.83-1.17.67-2-.5a52.1,52.1,0,0,1-3.75-7.25A79.33,79.33,0,0,1,89,146a111.45,111.45,0,0,1-2.5-12,76.49,76.49,0,0,1,0-12.5,79.73,79.73,0,0,1,2-14.5,53.31,53.31,0,0,1,4-11q2.5-5,5-9t4-6A28.8,28.8,0,0,0,104.25,76.5Z" />
	<path id="path10" class="cls-1" d="M149.5,185.5a82.48,82.48,0,0,1,15,1,74.93,74.93,0,0,1,12.5,4q7.5,3,9.5,4.5t5,3.5c2,1.33,3.83,2.67,5.5,4s3.17,2.5,4.5,3.5a92.24,92.24,0,0,1,7.5,7l5.5,5.5-5,2a71.44,71.44,0,0,1-13,3.5,90.86,90.86,0,0,1-20,1q-12-.5-19-3T146,217.5a51,51,0,0,1-7.5-4q-3-2-9.25-8.75t-6.5-7.75q-.25-1,20.25,3.75T169,207a104,104,0,0,0,12.5,2.5l7,1-.5-.5q-.5-.5-31.75-10.75t-31.5-10.5l-.25-.25,1-.5q1-.5,7.5-1.5A111.34,111.34,0,0,1,149.5,185.5Z" />
	<path id="path12" class="cls-1" d="M160,35l1-1,2.5,3a44.71,44.71,0,0,1,5.5,9.5,77.59,77.59,0,0,1,4.5,12,69.44,69.44,0,0,1,2,9.5,101,101,0,0,1,0,14.5,73.69,73.69,0,0,1-3,18.5,113.52,113.52,0,0,1-3.75,10.75q-1.25,2.75-2.25,3T164.25,88Q163,61,162.5,58.5L162,56l-.5,8q-.5,8-1.5,30l-1,22-1-1.5a74.08,74.08,0,0,1-4-8.5,80.31,80.31,0,0,1-4.5-13.5,87.7,87.7,0,0,1-2-12.5,68.54,68.54,0,0,1,.5-14,73.85,73.85,0,0,1,3-14,55,55,0,0,1,5-11A42.65,42.65,0,0,1,160,35Z" />
	<path id="path14" class="cls-1" d="M203,127a56.65,56.65,0,0,1,13,.5,76.76,76.76,0,0,1,12.5,3,72.92,72.92,0,0,1,13,6,74.66,74.66,0,0,1,10,6.5q3,2.5,5,4a37.93,37.93,0,0,1,4,3.5l2,2-4,1.5a78.55,78.55,0,0,1-11.5,3,117.18,117.18,0,0,1-14,2,78.45,78.45,0,0,1-15-.5,58.64,58.64,0,0,1-15.25-3.75Q196,152,193.5,150c-1.67-1.33-2.58-2.08-2.75-2.25a3.08,3.08,0,0,0-1.25-.5,3,3,0,0,1-1.75-1.75,16.09,16.09,0,0,0-3-3.75Q182.5,139.5,188,140t23.5,3.5q18,3,22,3h4l-2.5-1q-2.5-1-25.5-6.5T185,133l-1.5-.5,1.5-1a28.84,28.84,0,0,1,6.5-2.5A54.61,54.61,0,0,1,203,127Z" />
	<path id="path16" class="cls-1" d="M210,2.5,212,0l1,1.5A58,58,0,0,1,216.5,9a52.9,52.9,0,0,1,3,8.5q.5,2.51,0,16.5t-2,19.5a94.23,94.23,0,0,1-4,11.5L211,71l-.5-1q-.5-1,0-23l.5-22-.5.5q-.5.49-2.5,23t-2.75,24.25c-.5,1.17-1.17,1.17-2,0s-2.08-4.08-3.75-8.75a83.11,83.11,0,0,1-3-9.5Q196,52,196.5,42A61.88,61.88,0,0,1,199,26a128.59,128.59,0,0,1,5.5-13.5Q208,5,210,2.5Z" />
	<path id="path18" class="cls-1" d="M237.5,82.5a65.91,65.91,0,0,1,16,2,70.75,70.75,0,0,1,17,7q9,5,12.25,7.75c2.17,1.83,3.33,3.08,3.5,3.75a3,3,0,0,0,1.75,1.75,8.72,8.72,0,0,1,2.25,1.5,4.78,4.78,0,0,1,1,2.75l.25,2-5.5.75q-5.5.75-19.5.25t-20-2.5a55,55,0,0,1-11-5,62.69,62.69,0,0,1-9.25-6.75Q222,94,221.75,93l-.25-1,8,1.75q8,1.75,15.5,3.75t11.5,3a27.92,27.92,0,0,0,6.5,1h2.5l-5-2q-5-2-11-4l-12-4q-6-2-11.25-4.25t-5-2.5a23.68,23.68,0,0,1,4.25-1.25A53.15,53.15,0,0,1,237.5,82.5Z" />
	<path id="path20" class="cls-1" d="M280,31a169.16,169.16,0,0,1,18.5,0q12,.49,15.5.75l3.5.25-.75,1.5A23.65,23.65,0,0,1,314.5,37l-3,4a45.52,45.52,0,0,1-5.75,5.75,70.38,70.38,0,0,1-7.25,5.75q-3,2-5,3.5t-9,4.5a68.9,68.9,0,0,1-11.5,4q-4.5,1-13.5.5t-11-.75l-2-.25V63q0-1,3-2.25c2-.83,4.67-1.92,8-3.25s8-3.17,14-5.5,11.17-4.5,15.5-6.5l6.5-3-3,.5q-3,.49-24,7.5T244,57.75q-1.5.26-.5-3a17.32,17.32,0,0,1,3-5.75q2-2.51,4.5-5.5a29.55,29.55,0,0,1,7.5-6,44.09,44.09,0,0,1,10-4.5A54.61,54.61,0,0,1,280,31Z" />
</svg>
