<?xml version="1.0" encoding="utf-8"?>
<!-- Generator: Adobe Illustrator 25.0.0, SVG Export Plug-In . SVG Version: 6.00 Build 0)  -->
<svg version="1.1" id="圖層_1" xmlns="http://www.w3.org/2000/svg" xmlns:xlink="http://www.w3.org/1999/xlink" x="0px" y="0px"
	 viewBox="0 0 317.5 271.3" style="enable-background:new 0 0 317.5 271.3;" xml:space="preserve">
<style type="text/css">
	.st0{fill-rule:evenodd;clip-rule:evenodd;}
</style>
<path id="path2" class="st0" d="M232.2,63.8c1.2-0.5,2.1-0.2,2.8,0.8l1,1.5l0.5,2c0.3,1.3,0.4,2.1,0.2,2.2s-1.8,0.9-4.8,2.2
	s-5.8,2.8-8.5,4.5s-4.8,3.2-6.5,4.5s-3.2,2.5-4.5,3.5s-4.4,4.1-9.2,9.2s-7.8,8.4-8.8,9.8s-2.2,2.8-3.5,4.5s-2.7,3.5-4,5.5
	s-2.7,3.8-4,5.5s-2.7,3.5-4,5.5s-3.2,4.3-5.5,7s-4.2,5-5.5,7s-3.2,4.4-5.8,7.2s-4.4,5.1-5.8,6.8s-2.7,3-4,4s-4.2,3.5-8.5,7.5
	s-7.5,6.7-9.5,8s-3.5,2.3-4.5,3s-2.2,1.5-3.5,2.5s-2.7,2-4,3s-5.3,3.3-12,7S98,194.5,93,196.5s-8.5,3.3-10.5,4s-6.2,1.8-12.5,3.5
	s-12.5,3-18.5,4s-12.7,1.8-20,2.5s-14.3,1.1-21,1.2s-10.1-0.2-10.2-1.2L0,209l0.2-2.5c0.2-1.7,6.2-2.8,18.2-3.2s22-1.4,30-2.8
	s15.3-2.8,22-4.5s12.3-3.5,17-5.5s8.5-3.7,11.5-5s6-2.8,9-4.5s6.5-3.7,10.5-6s7.3-4.7,10-7s4.7-4,6-5s3.4-2.8,6.2-5.2
	s4.8-4.4,5.8-5.8s4-4.7,9-10s8.3-9.3,10-12s3-4.7,4-6s2.2-3,3.5-5s3.2-4.3,5.5-7c2.3-2.7,4-4.7,5-6s2.2-2.8,3.5-4.5s2.4-3.3,3.2-5
	s1.8-2.8,2.8-3.2s4.2-3.2,9.5-8.2s9-8.2,11-9.5s3.5-2.3,4.5-3s3.2-2,6.5-4c3.3-2,5.2-3.2,5.5-3.5S231.1,64.2,232.2,63.8z"/>
<path id="path4" class="st0" d="M43.5,83.2l1-0.2l1.2,3c0.8,2,1.9,4.7,3.2,8s2.8,8,4.5,14s2.7,10,3,12s0.3,7,0,15s-1.2,14.7-2.5,20
	s-2.7,9.5-4,12.5s-3,6.2-5,9.5s-3.9,6.1-5.8,8.2s-3,3.5-3.5,4L35,190l0.5-9c0.3-6,1.2-19.3,2.5-40l2-31l-1.5,7.5
	c-1,5-2.8,15.8-5.5,32.5c-2.7,16.7-4.5,26.8-5.5,30.5L26,186l-2.5-6c-1.7-4-3.2-8.3-4.5-13s-2.2-7.8-2.5-9.5s-0.3-6.8,0-15.5
	s1-14.8,2-18.5s2.2-7,3.5-10s3.2-6.5,5.5-10.5s5.2-7.8,8.5-11.5c3.3-3.7,5.2-5.9,5.8-6.8S42.8,83.4,43.5,83.2z"/>
<path id="path6" class="st0" d="M51,216.5c4.3,0,9.7,0.7,16,2s11.5,3,15.5,5s6.7,3.5,8,4.5s2.7,2,4,3s2.8,2.2,4.5,3.5
	c1.7,1.3,2.8,2.1,3.5,2.2s1,0.6,1,1.2s0.5,1.2,1.5,1.8s3.8,3,8.2,7.5s6.8,7.1,7,7.8s0.6,1,1.2,1s1.2,0.5,1.8,1.5s1.4,2.5,2.8,4.5
	s2.5,3.7,3.5,5s1.6,2.3,1.8,3l0.2,1l-1.5,0.2c-1,0.2-7,0.1-18-0.2s-18.5-1-22.5-2s-8.5-2.7-13.5-5s-8.5-4.2-10.5-5.5s-4.2-3-6.5-5
	s-3.8-3.1-4.5-3.2s-1-0.6-1-1.2s-0.3-1-1-1s-1-0.3-1-1s-0.4-1.2-1.2-1.5s-1.8-1.2-2.8-2.5s-2.3-3-4-5s-3-4-4-6s-1.4-3.4-1.2-4.2
	s1.8-0.6,4.8,0.8s9.2,4.2,18.5,8.5c9.3,4.3,15.7,7.3,19,9s7.5,3.7,12.5,6s8.3,3.8,10,4.5s2.8,1,3.5,1h1l-2.5-2
	c-1.7-1.3-5.5-3.7-11.5-7s-9.7-5.5-11-6.5s-5-3.2-11-6.5s-9.5-5.3-10.5-6s-4.2-2.5-9.5-5.5s-8.3-4.8-9-5.5l-1-1L43,217
	C44,216.7,46.7,216.5,51,216.5z"/>
<path id="path8" class="st0" d="M104.2,76.5l1.2-2.5l2,0.8c1.3,0.5,2.4,1.3,3.2,2.5S113.3,82,116,88s4.5,11.7,5.5,17s1.7,9.7,2,13
	s0,8.5-1,15.5s-2.2,12.3-3.5,16s-3.5,8.2-6.5,13.5s-4.7,8.2-5,8.5L107,172l-0.5-38L106,96l-1,9.5c-0.7,6.3-1.7,18-3,35
	s-2.2,25.9-2.8,26.8s-1.2,0.7-2-0.5s-2.1-3.6-3.8-7.2s-3.2-8.2-4.5-13.5s-2.2-9.3-2.5-12s-0.3-6.8,0-12.5s1-10.5,2-14.5
	s2.3-7.7,4-11s3.3-6.3,5-9s3-4.7,4-6S103.4,78.2,104.2,76.5z"/>
<path id="path10" class="st0" d="M149.5,185.5c6.7,0,11.7,0.3,15,1s7.5,2,12.5,4s8.2,3.5,9.5,4.5s3,2.2,5,3.5s3.8,2.7,5.5,4
	s3.2,2.5,4.5,3.5s3.8,3.3,7.5,7l5.5,5.5l-5,2c-3.3,1.3-7.7,2.5-13,3.5s-12,1.3-20,1s-14.3-1.3-19-3s-8.5-3.2-11.5-4.5
	s-5.5-2.7-7.5-4s-5.1-4.2-9.2-8.8s-6.3-7.1-6.5-7.8s6.6,0.6,20.2,3.8s22.3,5.2,26,6.2s7.8,1.8,12.5,2.5l7,1L188,210
	c-0.3-0.3-10.9-3.9-31.8-10.8s-31.3-10.3-31.5-10.5l-0.2-0.2l1-0.5c0.7-0.3,3.2-0.8,7.5-1.5S142.8,185.5,149.5,185.5z"/>
<path id="path12" class="st0" d="M160,35l1-1l2.5,3c1.7,2,3.5,5.2,5.5,9.5s3.5,8.3,4.5,12s1.7,6.8,2,9.5s0.3,7.5,0,14.5
	s-1.3,13.2-3,18.5s-2.9,8.9-3.8,10.8c-0.8,1.8-1.6,2.8-2.2,3s-1.4-8.8-2.2-26.8s-1.4-27.8-1.8-29.5L162,56l-0.5,8
	c-0.3,5.3-0.8,15.3-1.5,30l-1,22l-1-1.5c-0.7-1-2-3.8-4-8.5s-3.5-9.2-4.5-13.5s-1.7-8.5-2-12.5s-0.2-8.7,0.5-14s1.7-10,3-14
	s3-7.7,5-11S159.3,35.7,160,35z"/>
<path id="path14" class="st0" d="M203,127c4.3-0.3,8.7-0.2,13,0.5s8.5,1.7,12.5,3s8.3,3.3,13,6s8,4.8,10,6.5s3.7,3,5,4
	s2.7,2.2,4,3.5l2,2l-4,1.5c-2.7,1-6.5,2-11.5,3s-9.7,1.7-14,2s-9.3,0.2-15-0.5s-10.8-1.9-15.2-3.8s-7.6-3.4-9.2-4.8
	s-2.6-2.1-2.8-2.2s-0.6-0.3-1.2-0.5s-1.2-0.8-1.8-1.8s-1.5-2.2-3-3.8s-0.4-2.1,3.2-1.8s11.5,1.5,23.5,3.5s19.3,3,22,3h4l-2.5-1
	c-1.7-0.7-10.2-2.8-25.5-6.5s-23.5-5.7-24.5-6l-1.5-0.5l1.5-1c1-0.7,3.2-1.5,6.5-2.5S198.7,127.3,203,127z"/>
<path id="path16" class="st0" d="M210,2.5l2-2.5l1,1.5c0.7,1,1.8,3.5,3.5,7.5s2.7,6.8,3,8.5c0.3,1.7,0.3,7.2,0,16.5s-1,15.8-2,19.5
	s-2.3,7.5-4,11.5l-2.5,6l-0.5-1c-0.3-0.7-0.3-8.3,0-23l0.5-22l-0.5,0.5c-0.3,0.3-1.2,8-2.5,23s-2.2,23.1-2.8,24.2s-1.2,1.2-2,0
	s-2.1-4.1-3.8-8.8s-2.7-7.8-3-9.5s-0.3-5.8,0-12.5s1.2-12,2.5-16s3.2-8.5,5.5-13.5S208.7,4.2,210,2.5z"/>
<path id="path18" class="st0" d="M237.5,82.5c5.3,0,10.7,0.7,16,2s11,3.7,17,7s10.1,5.9,12.2,7.8s3.3,3.1,3.5,3.8s0.8,1.2,1.8,1.8
	s1.8,1,2.2,1.5s0.8,1.4,1,2.8l0.2,2l-5.5,0.8c-3.7,0.5-10.2,0.6-19.5,0.2c-9.3-0.3-16-1.2-20-2.5s-7.7-3-11-5s-6.4-4.2-9.2-6.8
	c-2.8-2.5-4.3-4.1-4.5-4.8l-0.2-1l8,1.8c5.3,1.2,10.5,2.4,15.5,3.8s8.8,2.3,11.5,3s4.8,1,6.5,1h2.5l-5-2c-3.3-1.3-7-2.7-11-4
	s-8-2.7-12-4s-7.8-2.8-11.2-4.2s-5.2-2.3-5-2.5s1.6-0.6,4.2-1.2C228.2,82.8,232.2,82.5,237.5,82.5z"/>
<path id="path20" class="st0" d="M280,31c4.3-0.3,10.5-0.3,18.5,0s13.2,0.6,15.5,0.8l3.5,0.2l-0.8,1.5c-0.5,1-1.2,2.2-2.2,3.5
	s-2,2.7-3,4s-2.9,3.2-5.8,5.8s-5.2,4.4-7.2,5.8s-3.7,2.5-5,3.5s-4.3,2.5-9,4.5s-8.5,3.3-11.5,4s-7.5,0.8-13.5,0.5s-9.7-0.6-11-0.8
	l-2-0.2v-1c0-0.7,1-1.4,3-2.2s4.7-1.9,8-3.2s8-3.2,14-5.5s11.2-4.5,15.5-6.5l6.5-3l-3,0.5c-2,0.3-10,2.8-24,7.5S245,57.6,244,57.8
	s-1.2-0.8-0.5-3s1.7-4.1,3-5.8c1.3-1.7,2.8-3.5,4.5-5.5s4.2-4,7.5-6s6.7-3.5,10-4.5S275.7,31.3,280,31z"/>
</svg>
