<?xml version="1.0" encoding="UTF-8" standalone="no"?>
<!-- Created with clker.com Crayon tracing tool http://www.clker.com) -->
<svg xmlns="http://www.w3.org/2000/svg" width="396" height="337.5">
	<path style="opacity:1;fill-rule:evenodd;stroke:#000000;stroke-width:0px;stroke-linecap:butt;stroke-linejoin:miter;stroke-opacity:1" d="M 260.75 79.75 Q 262.5 79  263.5 80.5 L 264.5 82 L 265 84 Q 265.5 86  265.25 86.25 Q 265 86.5  260.5 88.5 Q 256 90.5  252 93 Q 248 95.5  245.5 97.5 Q 243 99.5  241 101 Q 239 102.5  231.75 110.25 Q 224.5 118  223 120 Q 221.5 122  219.5 124.5 Q 217.5 127  215.5 130 Q 213.5 133  211.5 135.5 Q 209.5 138  207.5 141 Q 205.5 144  202 148 Q 198.5 152  196.5 155 Q 194.5 158  190.75 162.25 Q 187 166.5  185 169 Q 183 171.5  181 173 Q 179 174.5  172.5 180.5 Q 166 186.5  163 188.5 Q 160 190.5  158.5 191.5 Q 157 192.5  155 194 Q 153 195.5  151 197 Q 149 198.5  139 204 Q 129 209.5  121.5 212.5 Q 114 215.5  111 216.5 Q 108 217.5  98.5 220 Q 89 222.5  80 224 Q 71 225.5  60 226.5 Q 49 227.5  39 227.75 Q 29 228  28.75 226.5 L 28.5 225 L 28.75 222.5 Q 29 220  47 219.25 Q 65 218.5  77 216.5 Q 89 214.5  99 212 Q 109 209.5  116 206.5 Q 123 203.5  127.5 201.5 Q 132 199.5  136.5 197 Q 141 194.5  147 191 Q 153 187.5  157 184 Q 161 180.5  163 179 Q 165 177.5  169.25 173.75 Q 173.5 170  175 168 Q 176.5 166  184 158 Q 191.5 150  194 146 Q 196.5 142  198 140 Q 199.5 138  201.5 135 Q 203.5 132  207 128 Q 210.5 124  212 122 Q 213.5 120  215.5 117.5 Q 217.5 115  218.75 112.5 Q 220 110  221.5 109.25 Q 223 108.5  231 101 Q 239 93.5  242 91.5 Q 245 89.5  246.5 88.5 Q 248 87.5  253 84.5 Q 258 81.5  258.5 81 Q 259 80.5  260.75 79.75  Z  " id="path2" />
	<path style="opacity:1;fill-rule:evenodd;stroke:#000000;stroke-width:0px;stroke-linecap:butt;stroke-linejoin:miter;stroke-opacity:1" d="M 72 99.25 L 73 99 L 74.25 102 Q 75.5 105  77.5 110 Q 79.5 115  82 124 Q 84.5 133  85 136 Q 85.5 139  85 151 Q 84.5 163  82.5 171 Q 80.5 179  78.5 183.5 Q 76.5 188  73.5 193 Q 70.5 198  67.75 201.25 Q 65 204.5  64.25 205.25 L 63.5 206 L 64 197 Q 64.5 188  66.5 157 L 68.5 126 L 67 133.5 Q 65.5 141  61.5 166 Q 57.5 191  56 196.5 L 54.5 202 L 52 196 Q 49.5 190  47.5 183 Q 45.5 176  45 173.5 Q 44.5 171  45 158 Q 45.5 145  47 139.5 Q 48.5 134  50.5 129.5 Q 52.5 125  56 119 Q 59.5 113  64.5 107.5 Q 69.5 102  70.25 100.75 Q 71 99.5  72 99.25  Z  " id="path4" />
	<path style="opacity:1;fill-rule:evenodd;stroke:#000000;stroke-width:0px;stroke-linecap:butt;stroke-linejoin:miter;stroke-opacity:1" d="M 79.5 232.5 Q 86 232.5  95.5 234.5 Q 105 236.5  111 239.5 Q 117 242.5  119 244 Q 121 245.5  123 247 Q 125 248.5  127.5 250.5 Q 130 252.5  131 252.75 Q 132 253  132 254 Q 132 255  133.5 255.75 Q 135 256.5  141.75 263.25 Q 148.5 270  148.75 271 Q 149 272  150 272 Q 151 272  151.75 273.5 Q 152.5 275  154.5 278 Q 156.5 281  158 283 Q 159.5 285  159.75 286 L 160 287 L 158.5 287.25 Q 157 287.5  140.5 287 Q 124 286.5  118 285 Q 112 283.5  104.5 280 Q 97 276.5  94 274.5 Q 91 272.5  87.5 269.5 Q 84 266.5  83 266.25 Q 82 266  82 265 Q 82 264  81 264 Q 80 264  80 263 Q 80 262  78.75 261.5 Q 77.5 261  76 259 Q 74.5 257  72 254 Q 69.5 251  68 248 Q 66.5 245  66.75 243.75 Q 67 242.5  71.5 244.5 Q 76 246.5  90 253 Q 104 259.5  109 262 Q 114 264.5  121.5 268 Q 129 271.5  131.5 272.5 Q 134 273.5  135 273.5 L 136 273.5 L 133.5 271.5 Q 131 269.5  122 264.5 Q 113 259.5  111 258 Q 109 256.5  100 251.5 Q 91 246.5  89.5 245.5 Q 88 244.5  80 240 Q 72 235.5  71 234.5 L 70 233.5 L 71.5 233 Q 73 232.5  79.5 232.5  Z  " id="path6" />
	<path style="opacity:1;fill-rule:evenodd;stroke:#000000;stroke-width:0px;stroke-linecap:butt;stroke-linejoin:miter;stroke-opacity:1" d="M 132.75 92.5 L 134 90 L 136 90.75 Q 138 91.5  139.25 93.25 Q 140.5 95  144.5 104 Q 148.5 113  150 121 Q 151.5 129  152 134 Q 152.5 139  151 149.5 Q 149.5 160  147.5 165.5 Q 145.5 171  141 179 Q 136.5 187  136 187.5 L 135.5 188 L 135 150 L 134.5 112 L 133.5 121.5 Q 132.5 131  130.5 156.5 Q 128.5 182  127.75 183.25 Q 127 184.5  125.75 182.75 Q 124.5 181  122 175.5 Q 119.5 170  117.5 162 Q 115.5 154  115 150 Q 114.5 146  115 137.5 Q 115.5 129  117 123 Q 118.5 117  121 112 Q 123.5 107  126 103 Q 128.5 99  130 97 Q 131.5 95  132.75 92.5  Z  " id="path8" />
	<path style="opacity:1;fill-rule:evenodd;stroke:#000000;stroke-width:0px;stroke-linecap:butt;stroke-linejoin:miter;stroke-opacity:1" d="M 178 201.5 Q 188 201.5  193 202.5 Q 198 203.5  205.5 206.5 Q 213 209.5  215 211 Q 217 212.5  220 214.5 Q 223 216.5  225.5 218.5 Q 228 220.5  230 222 Q 232 223.5  237.5 229 L 243 234.5 L 238 236.5 Q 233 238.5  225 240 Q 217 241.5  205 241 Q 193 240.5  186 238 Q 179 235.5  174.5 233.5 Q 170 231.5  167 229.5 Q 164 227.5  157.75 220.75 Q 151.5 214  151.25 213 Q 151 212  171.5 216.75 Q 192 221.5  197.5 223 Q 203 224.5  210 225.5 L 217 226.5 L 216.5 226 Q 216 225.5  184.75 215.25 Q 153.5 205  153.25 204.75 L 153 204.5 L 154 204 Q 155 203.5  161.5 202.5 Q 168 201.5  178 201.5  Z  " id="path10" />
	<path style="opacity:1;fill-rule:evenodd;stroke:#000000;stroke-width:0px;stroke-linecap:butt;stroke-linejoin:miter;stroke-opacity:1" d="M 188.5 51 L 189.5 50 L 192 53 Q 194.5 56  197.5 62.5 Q 200.5 69  202 74.5 Q 203.5 80  204 84 Q 204.5 88  204 98.5 Q 203.5 109  201 117 Q 198.5 125  197.25 127.75 Q 196 130.5  195 130.75 Q 194 131  192.75 104 Q 191.5 77  191 74.5 L 190.5 72 L 190 80 Q 189.5 88  188.5 110 L 187.5 132 L 186.5 130.5 Q 185.5 129  182.5 122 Q 179.5 115  178 108.5 Q 176.5 102  176 96 Q 175.5 90  176.5 82 Q 177.5 74  179.5 68 Q 181.5 62  184.5 57 Q 187.5 52  188.5 51  Z  " id="path12" />
	<path style="opacity:1;fill-rule:evenodd;stroke:#000000;stroke-width:0px;stroke-linecap:butt;stroke-linejoin:miter;stroke-opacity:1" d="M 231.5 143 Q 238 142.5  244.5 143.5 Q 251 144.5  257 146.5 Q 263 148.5  270 152.5 Q 277 156.5  280 159 Q 283 161.5  285 163 Q 287 164.5  289 166.5 L 291 168.5 L 287 170 Q 283 171.5  275.5 173 Q 268 174.5  261.5 175 Q 255 175.5  246.5 174.5 Q 238 173.5  231.25 170.75 Q 224.5 168  222 166 Q 219.5 164  219.25 163.75 Q 219 163.5  218 163.25 Q 217 163  216.25 161.5 Q 215.5 160  213.25 157.75 Q 211 155.5  216.5 156 Q 222 156.5  240 159.5 Q 258 162.5  262 162.5 L 266 162.5 L 263.5 161.5 Q 261 160.5  238 155 Q 215 149.5  213.5 149 L 212 148.5 L 213.5 147.5 Q 215 146.5  220 145 Q 225 143.5  231.5 143  Z  " id="path14" />
	<path style="opacity:1;fill-rule:evenodd;stroke:#000000;stroke-width:0px;stroke-linecap:butt;stroke-linejoin:miter;stroke-opacity:1" d="M 238.5 18.5 L 240.5 16 L 241.5 17.5 Q 242.5 19  245 25 Q 247.5 31  248 33.5 Q 248.5 36  248 50 Q 247.5 64  246 69.5 Q 244.5 75  242 81 L 239.5 87 L 239 86 Q 238.5 85  239 63 L 239.5 41 L 239 41.5 Q 238.5 42  236.5 64.5 Q 234.5 87  233.75 88.75 Q 233 90.5  231.75 88.75 Q 230.5 87  228 80 Q 225.5 73  225 70.5 Q 224.5 68  225 58 Q 225.5 48  227.5 42 Q 229.5 36  233 28.5 Q 236.5 21  238.5 18.5  Z  " id="path16" />
	<path style="opacity:1;fill-rule:evenodd;stroke:#000000;stroke-width:0px;stroke-linecap:butt;stroke-linejoin:miter;stroke-opacity:1" d="M 266 98.5 Q 274 98.5  282 100.5 Q 290 102.5  299 107.5 Q 308 112.5  311.25 115.25 Q 314.5 118  314.75 119 Q 315 120  316.5 120.75 Q 318 121.5  318.75 122.25 Q 319.5 123  319.75 125 L 320 127 L 314.5 127.75 Q 309 128.5  295 128 Q 281 127.5  275 125.5 Q 269 123.5  264 120.5 Q 259 117.5  254.75 113.75 Q 250.5 110  250.25 109 L 250 108 L 258 109.75 Q 266 111.5  273.5 113.5 Q 281 115.5  285 116.5 Q 289 117.5  291.5 117.5 L 294 117.5 L 289 115.5 Q 284 113.5  278 111.5 Q 272 109.5  266 107.5 Q 260 105.5  254.75 103.25 Q 249.5 101  249.75 100.75 Q 250 100.5  254 99.5 Q 258 98.5  266 98.5  Z  " id="path18" />
	<path style="opacity:1;fill-rule:evenodd;stroke:#000000;stroke-width:0px;stroke-linecap:butt;stroke-linejoin:miter;stroke-opacity:1" d="M 308.5 47 Q 315 46.5  327 47 Q 339 47.5  342.5 47.75 L 346 48 L 345.25 49.5 Q 344.5 51  343 53 Q 341.5 55  340 57 Q 338.5 59  334.25 62.75 Q 330 66.5  327 68.5 Q 324 70.5  322 72 Q 320 73.5  313 76.5 Q 306 79.5  301.5 80.5 Q 297 81.5  288 81 Q 279 80.5  277 80.25 L 275 80 L 275 79 Q 275 78  278 76.75 Q 281 75.5  286 73.5 Q 291 71.5  300 68 Q 309 64.5  315.5 61.5 L 322 58.5 L 319 59 Q 316 59.5  295 66.5 Q 274 73.5  272.5 73.75 Q 271 74  272 70.75 Q 273 67.5  275 65 Q 277 62.5  279.5 59.5 Q 282 56.5  287 53.5 Q 292 50.5  297 49 Q 302 47.5  308.5 47  Z  " id="path20" />
</svg>