<svg width="179" height="156" xmlns="http://www.w3.org/2000/svg" xmlns:xlink="http://www.w3.org/1999/xlink" overflow="hidden"><defs><clipPath id="clip0"><rect x="641" y="209" width="179" height="156"/></clipPath><clipPath id="clip1"><rect x="651" y="269" width="159" height="75"/></clipPath><clipPath id="clip2"><rect x="651" y="269" width="159" height="75"/></clipPath></defs><g clip-path="url(#clip0)" transform="translate(-641 -209)"><g clip-path="url(#clip1)"><g clip-path="url(#clip2)"><path d="M102.394 46.5041 133.113 77.4357 139.086 71.4627 102.394 36.2647 64.8498 72.1027 70.8228 78.0757Z" stroke="#FFFFFF" stroke-width="2.13325" fill="#A50021" transform="matrix(1 0 0 1.00949 628.33 172.386)"/><path d="M170.657 123.513 153.592 123.513 153.592 106.447 170.657 106.447 170.657 123.513ZM170.657 149.112 153.592 149.112 153.592 132.046 170.657 132.046 170.657 149.112ZM145.059 123.513 127.993 123.513 127.993 106.447 145.059 106.447 145.059 123.513ZM145.059 149.112 127.993 149.112 127.993 132.046 145.059 132.046 145.059 149.112ZM117.327 123.513 87.4618 123.513 87.4618 114.98 117.327 114.98 117.327 123.513ZM102.394 82.9821C106.021 82.9821 108.794 85.7553 108.794 89.3817 108.794 93.0082 106.021 95.7814 102.394 95.7814 98.7679 95.7814 95.9947 93.0082 95.9947 89.3817 95.9947 85.7553 98.7679 82.9821 102.394 82.9821ZM76.7958 123.513 59.73 123.513 59.73 106.447 76.7958 106.447 76.7958 123.513ZM76.7958 149.112 59.73 149.112 59.73 132.046 76.7958 132.046 76.7958 149.112ZM51.1972 123.513 34.1315 123.513 34.1315 106.447 51.1972 106.447 51.1972 123.513ZM51.1972 149.112 34.1315 149.112 34.1315 132.046 51.1972 132.046 51.1972 149.112ZM127.993 95.7814 127.993 82.9821 102.394 57.3835 76.7958 82.9821 76.7958 95.7814 25.5986 95.7814 25.5986 168.311 87.4618 168.311 87.4618 144.845C87.4618 138.872 91.7283 132.046 102.394 132.046 113.06 132.046 117.327 138.872 117.327 144.845L117.327 168.311 179.19 168.311 179.19 95.7814 127.993 95.7814Z" stroke="#FFFFFF" stroke-width="2.13325" fill="#A50021" transform="matrix(1 0 0 1.00949 628.33 172.386)"/></g></g><path d="M644 262 671.571 234 788.429 234 816 262Z" stroke="#FFFFFF" stroke-width="2" stroke-miterlimit="8" fill="#3B3838" fill-rule="evenodd"/><path d="M652.5 270.5 808.9 270.5" stroke="#FFFFFF" stroke-width="3" stroke-miterlimit="8" fill="none" fill-rule="evenodd"/></g></svg>