<svg width="174" height="156" xmlns="http://www.w3.org/2000/svg" xmlns:xlink="http://www.w3.org/1999/xlink" overflow="hidden"><defs><clipPath id="clip0"><rect x="644" y="209" width="174" height="156"/></clipPath><clipPath id="clip1"><rect x="651" y="269" width="160" height="75"/></clipPath><clipPath id="clip2"><rect x="651" y="269" width="160" height="75"/></clipPath></defs><g clip-path="url(#clip0)" transform="translate(-644 -209)"><g clip-path="url(#clip1)"><g clip-path="url(#clip2)"><path d="M103.038 46.7966 133.95 77.9227 139.96 71.9122 103.038 36.4927 65.2576 72.5562 71.2682 78.5667Z" fill="#A50021" transform="matrix(1 0 0 1.00318 628.187 172.386)"/><path d="M171.731 124.29 154.558 124.29 154.558 107.117 171.731 107.117 171.731 124.29ZM171.731 150.05 154.558 150.05 154.558 132.877 171.731 132.877 171.731 150.05ZM145.971 124.29 128.798 124.29 128.798 107.117 145.971 107.117 145.971 124.29ZM145.971 150.05 128.798 150.05 128.798 132.877 145.971 132.877 145.971 150.05ZM118.065 124.29 88.0119 124.29 88.0119 115.703 118.065 115.703 118.065 124.29ZM103.038 83.504C106.688 83.504 109.478 86.2946 109.478 89.9439 109.478 93.5932 106.688 96.3838 103.038 96.3838 99.3891 96.3838 96.5984 93.5932 96.5984 89.9439 96.5984 86.2946 99.3891 83.504 103.038 83.504ZM77.2788 124.29 60.1057 124.29 60.1057 107.117 77.2788 107.117 77.2788 124.29ZM77.2788 150.05 60.1057 150.05 60.1057 132.877 77.2788 132.877 77.2788 150.05ZM51.5192 124.29 34.3461 124.29 34.3461 107.117 51.5192 107.117 51.5192 124.29ZM51.5192 150.05 34.3461 150.05 34.3461 132.877 51.5192 132.877 51.5192 150.05ZM128.798 96.3838 128.798 83.504 103.038 57.7444 77.2788 83.504 77.2788 96.3838 25.7596 96.3838 25.7596 169.369 88.0119 169.369 88.0119 145.756C88.0119 139.746 92.3052 132.877 103.038 132.877 113.772 132.877 118.065 139.746 118.065 145.756L118.065 169.369 180.317 169.369 180.317 96.3838 128.798 96.3838Z" fill="#A50021" transform="matrix(1 0 0 1.00318 628.187 172.386)"/></g></g><path d="M644 263 672.556 234 788.444 234 817 263Z" fill="#3B3838" fill-rule="evenodd"/></g></svg>