<svg id="圖層_1" data-name="圖層 1" xmlns="http://www.w3.org/2000/svg" viewBox="0 0 1439.09 1294.47">
	<g id="town">
		<path class="cls-1" d="M747.23,245.77l-4.65.57L733,239.06l-10.19-5.62-3.66,7.18,7.5,13.73-4.1,2.4-7-1.07-16.42,14.66-4.17-5.44-8.75,2.62-2.84,7.33,1.22,12.32-2.36,2.5-24.13.58-18.14-1.91-10.64.94-16.48,5-2.94,5.4L614,315.86l-1.82,5.85-9.38,15.63L592,336.79l-2.78,3.78-.68,13.4-6.38,19.82L572,376.16l-8.84-.88.06,8.12-9.88,1.53-.68,3.4-9.94,4.09-5.32.17-11.52-6.07,3.84-21.26,2.53-5.56-11.15.14-.57-18.67-9.66.1,9.41-11.68-5.52-.28-5.09-13.77,10.3-5.41,6.3,7.81,4.4,0,4.44-9L558.87,292l.07-4.38-6.18-11.22,13.16-5.3,7.51,1.07.89-14.63-4-6.91,8-5.88L566,241.43l-6.5,1,5-9.58v-8.42l9.44,2.36,3,6.42,6.29.32,4.88,4.12,5.31-7.81,9.41-2.22,8.83-9.07-7.26-9.35,10.58-1,4.67-4.32,1.67-7.13L612,192.54l2.29-8,4.11-5.59,9.71,11.62,5,.22,6-13.91-.37-8.53,6.54.08-.44,6.6-5.25,9.14.94,6.31,5.18,7.32,5.92.42,7.64-5.19,5.47,0,1.5,5.82,20.65.78,0,9.31,5.56.77,2.85-9.1,11,12.66,1.65-3.54,9.4.39-.51,11.57,28.28-4.6-1,6.25,4.92,9.48Z" transform="translate(-0.44 -0.18)" />
		<path class="cls-1" d="M618.44,179l-4.11,5.59-2.29,8,9.28,4.23-1.67,7.13L615,208.22l-10.58,1,7.26,9.35-8.83,9.07-9.41,2.22-5.31,7.81-4.88-4.12-6.29-.32-3-6.42-9.44-2.36v8.42l-5,9.58,6.5-1,12.3,3.31-8,5.88,4,6.91-.89,14.63-7.51-1.07-13.16,5.3,6.18,11.22-.07,4.38-23.75,16.93-4.44,9-4.4,0-6.3-7.81-10.3,5.41,5.09,13.77,5.52.28-9.41,11.68,9.66-.1.57,18.67,11.15-.14-2.53,5.56-3.84,21.26,11.52,6.07,5.32-.17.1,2.07-19.44,11.63-2.9-3L497.1,416.38,483,419.16,475,405.87l-4-1L464,409.21l-2.37-6.47,3.55-3.28-6.31-7.13-8.45-5.71L449.24,377l4.38-6-7.87-1.42-9.17-6-2.66,9-12.54,2.84,3.47-7.62-8.24.15.38,6.26L406.16,372l-6,9-4-5.44-7.31-.18-2.16-7.55-6.51-5.36,5.14-14.9,10.17,1,3.24-4.56,9.62-1.48,6.42-5.28,6.65-1,5.65-12.88-1.22-11.83,1.55-12.21,19-10.3,12.21-18.41,3.87-8.3,1.43-8.37,7-15.19,5.77-7.06,5.89-13.91,3.91-5.45,18.76.39,6.15-4.55L529.52,202l22.18-22.6,2.1-10.09L545,168.17l-6.75,1.49,10.41-17.93,6.51-4.45,6.14-.17,9.77,6.36,2.48,6.86,6.27,1.41,16.64-6.18,2.2-1.57,2.61-11.17,6.57-5.14,10.67,1.43,2.53,37.8Z" transform="translate(-0.44 -0.18)" />
		<path class="cls-1" d="M1072.94,51.63l4.89,4.26,0,5.91,4.28,3-3,6-27.42,12.08-3.38,2.59-3.27,15.86,2.12,8.63,7.21-3.67,2.62-4.82,7.25,1.35,6.47,7.36,15.41,4.24,8.19-2.93.8,4L1107,125.55l5,8.93,0,9.46-9.07,7.21-6.62-5.88-4.53,11.17,2.44,3.75.88,10.79,6,4.55,9.82-2.67,8.17,1,6.12,4.06,5.41.41,7.09,4.7,14.81,4.92,7.8,4,7.49,8.64,6.45,12-6.4,3.92-7.13,10.81-4.56,2.45-.89,7.49-9.79,8.54-9.37,4.55,1.66,26.22,4.46,11.64.22,12.91-4,2.15-5.24,9.69-10.43.26,1.91-7.13-6.07-4-8.79-.28-6.51,4.81-11-2.89,7.73-4.66.74-5.91-11.38-5.65-11.6-.68-4.18-3.66L1062,284.43l-10.78,13-9.66.46-9.63-11.51-7.41-.87-3.89,3.49-9.91-2.11-4.48-5.58-12.21-1-2.35-2.72-11.42,8-10.84-.14-8.15-6.78,3.55-7.32-3.56-5.39-12-8.66-1.55-10.11-8.93-1.85-11.55-14.83L916,226.51l-6.77-5.94L901.59,218l-3.17,1.71-6.32-6-2.45-12.57-7.08-5.69h-8.43L871.49,193l.64-7.73-3.91-6.62-6.3,4.21.83,10.55,3.14,6.32-5.53,2.78-3.92-4.05-5.2-15.84-10-.88.58,7.94L839.58,198l-6.48-2,.46-13.11,3-1.31,6.29-12.69-8.39,1.45L827.74,168l1.76-16.4-5.38-10.17-9.81.06-3.6-6,10.14-4.79,1.5-4.72,7.07-6.63L843,114.93l24.33-2.37,3.92-8.7-3.59-11.35-.1-11.33L854.23,74l2.45-12.16-4.32-4.55-5.74,4.17-6.06-5.55-12.51,0-9.17-7.23L818.29,43l5.08-4.9,3.2-8.07-.17-7.88,19.74-5.69,18.31-6.67,7.16-4.11L874.9,1l6.76,8.11,7.26-2.64L897,12.76l3,10.76,6.62-6.78,17.51,1.7,5.09-9.35,5.53-4.7,8.49-3,7.82.52,6.77,5.35,12.65,4.43,5.9,6.08,5.77.52L994.84,25l9.37,7.72,8.68.58,10.55,6.14,12.83,25.27,9.83-5.43,6.62-7.52,6.12.86,2.89-6.89,10,2.8Z" transform="translate(-0.44 -0.18)" />
		<path class="cls-1" d="M833.56,182.87l-8.18.22-4,4,.14,15.32-14-5.42-.38,5.86,8.49,10-2.67,4.72-14-2.52-8.48.06-.18,6.55,3.19,7.21-2.1,12.8-7.59-5.84-.33-7.64-10.46-3.49-4.78-6.48-5.94,4.41.74,4.68-4.7,11.61-11,6.85,1.8-13-4.92-9.48,1-6.25-28.28,4.6.51-11.57-9.4-.39-1.65,3.54-11-12.66-2.85,9.1-5.56-.77,0-9.31-20.65-.78-1.5-5.82-5.47,0-7.64,5.19-5.92-.42-5.18-7.32-.94-6.31,5.25-9.14.44-6.6-6.54-.08.37,8.53-6,13.91-5-.22L618.44,179l2.62-2.06-2.53-37.8-10.67-1.43-6.57,5.14L598.68,154l-2.2,1.57-.67-10.15-2.94-4.55-1.61-14.79,4-11.11L612,93.75l13.23.21,11.4-1.42,10,2.41,6.54-1.2-1.29-18.87,2.49-7.63,7.38-4.45,6.54-1L678.4,74l15.35-6.23,2,1.93,10.12-2.32,19.88-24.5.89-5.07,6-4.41,9.11-3.11,8.43.38,16-3.62,46.89-1.63,13.35-3.19.17,7.88-3.2,8.07L818.29,43l.59,5.62,9.17,7.23,12.51,0,6.06,5.55,5.74-4.17,4.32,4.55L854.23,74l13.36,7.15.1,11.33,3.59,11.35-3.92,8.7L843,114.93l-13.61,4.37-7.07,6.63-1.5,4.72-10.14,4.79,3.6,6,9.81-.06,5.38,10.17L827.74,168l6.74,2.35,8.39-1.45-6.29,12.69Z" transform="translate(-0.44 -0.18)" />
		<path class="cls-1" d="M603.23,521l-4.84,5.6,1.52,4.78-2.44,16.44,8.61,8.62-1.77,7.18-1.59,22-23.09,3.29-11.94,3.39-8.51,4.24-2.08-4.2-7.81,7.25-3.11,7.67-3.56,16.2,1.51,5.23-2.56,10.82-6.05,1.5,1.59,21.19,3.54,7.36-6.7,9.92-11.5,7-7.63,2-18,7.85-4.82.61-.94-16.06-9.31-1.28-9.12-7-10.44-10.45L451.92,649l-14.87-15.1-6.54-10-7.14-15.26,10.45-2.45L432,586.74,433.62,566l-6-4.51-13.48-5.59,1.16-14.63-24.16-7.42,5.26-8-1.34-7.25-4.39-2.83-5.89,1.44-1.07-9.51-3.91-6,1.25-2.8,17.76-2.12-.9-5.38,10.61-2.85,5.87,1.95,5.49-2.72,7.37-10.41,7.8-6.46.71-7.93,5.32-9.63,4.83-5,7.46,2.16,5.79,7L474.39,468,480.45,483,494,491.3l9.86,1.87,2.58,17.3,6.83,4.47,9.4,2.61,6.31,5.35,18.6-4.73,4.56-2.64,8.36,6.4,41.86-3.49Z" transform="translate(-0.44 -0.18)" />
		<path class="cls-1" d="M625.41,372.32l1.22,11-6.69,9.53,4.59,13.28L612.93,416l-6.53,8.5-6,4.2-2.09,10.83-5.39,13.92,11.22,7.1,6.81,8.45-6.53,7.12-.33,4.82-7.59,6,4.23,3.27-2,8.91,10.77,14.43.64,6.41-6.86,1.1-.91-2.56-41.86,3.49-8.36-6.4-4.56,2.64-18.6,4.73-6.31-5.35-9.4-2.61-6.83-4.47-2.58-17.3L494,491.3,480.45,483,474.39,468l-15.24-10.57-5.79-7-7.46-2.16-1.51-3.45,4.13-8.31,8-.75,6.06-3.95,9.25-9.27L464,409.21l6.93-4.35,4,1L483,419.16l14.07-2.78,23.39-13.28,2.9,3,19.44-11.63-.1-2.07,9.94-4.09.68-3.4,9.88-1.53-.06-8.12,8.84.88,10.19-2.37,7.59,4.13,10.49-.64L602,373.1l11.55,1,3.66-6.83,4-.67Z" transform="translate(-0.44 -0.18)" />
		<path class="cls-1" d="M909.42,415.91l11.38,8,8.66,7.71,2.89,6,13.77-1.53,3.41,3.95,5.38-1.75-1.54,14.38,6.78,6.33,3.19-6.69,5.9-2.93L972.6,453l7.11-2,13.12,8.08,10,.53,7.24,6.13,18.15,2.48,2.08,3.31-14,14.39-1,6.45-13.29,24.29-3.28,3.58-.24,8.67-3.84,2.89-3.06,10.58-4.83,4.67-15.9-15.18-9-2.75-7.85,4.31-16.55-6.27-14.68-.94-5.57-1.16-6.57,5.59-9.18-5.89-7.53-9.94-10.78-3.49-1,4.33L862.87,511l-14.27-.7-7.73,2.19L829.53,521l-17.61,16.29-9.57-10.49-6.51-9.34-5.68-1.06-3.47-14.44,1.94-10.05-20-2.84-.52,3.2-8,3.22-6.47-5.55L739.76,485l-2.29,8.86-5.61-2.68-7.88.36,3.59-14L720.11,475l0-4.48-16.53,2.69-.27-7.94-5.56-4.46-5.17,1.31-3.5-5.43-11.31,1.52-6-2.88-16.13,2.19-7.59,4.84-14.07,1-9.83,4L619.91,466l-9,3-6.81-8.45-11.22-7.1,5.39-13.92,2.09-10.83,6-4.2,6.53-8.5,11.6-9.79-4.59-13.28,6.69-9.53-1.22-11,13.51-3.23,10.32,3.05-.59,5.47L661.06,381l8.48-10.5,11.14.74,5,5.89,9-.55,3.6,5.92,3.63-11.11,5.53-.92,7.5,15,9,6.1,9.74-3.76,10,10.54,1.49,9.66-1.36,7.34,2.63,6.56,12.37,1.29,10,9.75-1,8.07,8.45-2.92.38-4.48,5-4.17,12.08-3.05,5.82,2.24,11.68,8.18,4.3-1.8,10.61,5.7L833.9,439l8.78,5.16,2,4.84,5.61,3.27,7.52.13,1.71-6.89,14.33-1.57,19.82-8.2,3.18-3,9.94-3.41Z" transform="translate(-0.44 -0.18)" />
		<path class="cls-1" d="M922.71,526.22l-9.85,8.09-.37,3.79-6.62,5.2-6.77,17-3.75,4.12-7,16.28-5.42-1.45L876.5,583l-3.2,7.82L859.91,587l-5.55,7.67-5.68-1.9-4.23,9.54,6.28,4-9.64,5.23-6.63,6.38-9.5-3.69-21.9,1-11.51-1.33-14.34,3.78L771.65,624l-4.76,1.8.38,5.67-10.68,8.58-5.26-2.34L746.48,647l-7.89,2.08-8.34-1-8.31-7.13L694.8,623.75l-22.89-19.17-26.25-10.22L641.59,589l-19.17-4.08-19.7.7,1.59-22,1.77-7.18-8.61-8.62,2.44-16.44-1.52-4.78,4.84-5.6,6.86-1.1-.64-6.41-10.77-14.43,2-8.91-4.23-3.27,7.59-6,.33-4.82,6.53-7.12,9-3,4.24,1.35,9.83-4,14.07-1,7.59-4.84,16.13-2.19,6,2.88,11.31-1.52,3.5,5.43,5.17-1.31,5.56,4.46.27,7.94,16.53-2.69,0,4.48,7.46,2.55-3.59,14,7.88-.36,5.61,2.68,2.29-8.86,13.84,4.94,6.47,5.55,8-3.22.52-3.2,20,2.84-1.94,10.05,3.47,14.44,5.68,1.06,6.51,9.34,9.57,10.49L829.53,521l11.34-8.47,7.73-2.19,14.27.7L882,515.66l1-4.33,10.78,3.49,7.53,9.94,9.18,5.89,6.57-5.59Z" transform="translate(-0.44 -0.18)" />
		<path class="cls-1" d="M986.68,547.05l-2.63,5.85-5.51,10-3.79,2.65-2.85,9.2-4.52,5.35L962.73,592l-8.07,10.66-2.86,13.78-9.38,3.91.08,6.55L937,636.13l-6.06,5.3,3.21,17-6.57,19.44-2.93,3.78,10.65,10.93,1.1,8.82-2.19,9.3,3.15,7.6-2.58,6-11.15,10.84.4,3.31-13,15.27-5.94,1.65-6.28,7.27-3.69.67-1.46-5,4.12-5.85-3.61-6.81-14,1.13-6.22-6.63-7.92-4.36-6.91.36-5.88,12.1-.17,3.84-18.61,7.61-11.11.2-5.1,8.11-16.24,2.1-18.24,4.26L780,773l-25.1-20.45-16.57-15-14.44-21.44-4.52-9.58-4.08-14.9-.15-10.64,12.07-11,4-17.77-1-4.14,8.34,1,7.89-2.08,4.85-9.24,5.26,2.34,10.68-8.58-.38-5.67,4.76-1.8,5.56-6.38,14.34-3.78,11.51,1.33,21.9-1,9.5,3.69,6.63-6.38,9.64-5.23-6.28-4,4.23-9.54,5.68,1.9,5.55-7.67,13.39,3.85,3.2-7.82,6.41-3.72,5.42,1.45,7-16.28,3.75-4.12,6.77-17,6.62-5.2.37-3.79,9.85-8.09,14.68.94,16.55,6.27,7.85-4.31,9,2.75Z" transform="translate(-0.44 -0.18)" />
		<path class="cls-1" d="M379.79,501.58l3.91,6,1.07,9.51,5.89-1.44,4.39,2.83,1.34,7.25-5.26,8,24.16,7.42-1.16,14.63,13.48,5.59,6,4.51L432,586.74l1.84,19.43-10.45,2.45,7.14,15.26-7.89,1.78-4.23-4.8-12.3-5.33-5.34,3-16.14,4.69-3.9,2.44,7,19.9-17.79,6.75,5.38,9.09-14.9,9.43-7.93.69-.66,7.93-3.08,2-11,.44L339,717.68l-7.48,1.14-8.58-3.5,1.2,14.1L311,731.27l-3.06-2.19L309.32,718,299,712.23,287,716l.52-10-7-1.62V686.75l14-1.54-2.83-15.83L296,650.63l5.88-7.6,1.76-12.21-12-4.55-1.21-12.62-6.88-4.28-11.3-2.57,1.59-9.65,5.35-13-1.7-7.1,2.73-3,10.07,1.64-5.72-11.86,2.14-6.44,9.53-2.12,19.58,10.46L326,563.85l4.79-5.69,2-15.31,6.34-9,3.83-16.43,5.45-14.21-2.3-10.8,17.61,6.74-.55,7.69,5.37,1.06,5.87-7.26Z" transform="translate(-0.44 -0.18)" />
		<path class="cls-1" d="M427.41,299.35l-1.55,12.21,1.22,11.83-5.65,12.88-6.65,1-6.42,5.28L398.74,344l-3.24,4.56-10.17-1-5.14,14.9,6.51,5.36,2.16,7.55,7.31.18,4,5.44,6-9L417,374.13l-.38-6.26,8.24-.15-3.47,7.62,12.54-2.84,2.66-9,9.17,6,7.87,1.42-4.38,6,1.18,9.61,8.45,5.71,6.31,7.13-3.55,3.28,2.37,6.47,7.81,13.34-9.25,9.27-6.06,3.95-8,.75-4.13,8.31,1.51,3.45-4.83,5-5.32,9.63-.71,7.93-7.8,6.46-7.37,10.41-5.49,2.72-5.87-1.95-10.61,2.85.9,5.38L381,498.78l-1.25,2.8-5.41-1-5.87,7.26-5.37-1.06.55-7.69-17.61-6.74-2.46-7.8L341.05,468,337,461.53l-6.12-3.48-4.12-13.37-12.31-11-10.37-2.28-12.41,4.86-17.36,4.18-9.74,4.33-13.09,8.4,5.25-14.85,1.9-10.48,5.58,0,4.32-4.55-.62-8.23L261,409.17l.31-8.47-13.51-7.12.71-7.34L259.5,375,270,370.89l10,4.89,5.23-11.25,5.1-6.53-5.72-18.6,1.06-16.75-11-11.24-2.76-17.07,6.13.19,4.45,9,6.5,6.84,11.23-4.57,5.82,9.44,9.62,8.14,8.48,10.1,3.3-4.91,6.41-3.71,11.2-1,8.45-2.52,6.89,2.06,1-6L356,314.13l1.77-4.67,7.05-.35-1.95-6.71,8,.73,3.31-6.93-6-5.84v-7.54l5.2-7.21,5.26,1.16,24.08,18.75,14.79,4.86Z" transform="translate(-0.44 -0.18)" />
		<path class="cls-1" d="M430.51,623.88l6.54,10L451.92,649l10.32,13.16,10.44,10.45,9.12,7,9.31,1.28.94,16.06-10.62,5.37-8.81,1.92-8,4.79-17.43,14.34L435.66,734l-14,9.09-6.31,2.72-10.74,7.68-1.35,2.9.28,16.31-3.81,2.54-7.33,12.62-24.67,25.88-13.13,13.62-12-1.89.08-5.17-8.51-7.78,4.75-6.23,1.86-12,1.18-19.8-5.57-1.9-3.44-7.91,14-20.12-5.59-16.48-9.83-9.32,7.48-1.14-1.24-35.77,11-.44,3.08-2,.66-7.93,7.93-.69,14.9-9.43-5.38-9.09,17.79-6.75-7-19.9,3.9-2.44,16.14-4.69,5.34-3,12.3,5.33,4.23,4.8Z" transform="translate(-0.44 -0.18)" />
		<path class="cls-1" d="M758.08,844.2l6.49,3.87-5,9.73,1.72,5.08,9.16,13.64,4-2.1,4.63,6.91,4.76.71,1.2,8,7.37,1.56-.2,11.33,7.14,5.35.65,15.91,3.75,11.05-6.57,4.56L792.84,957l4.35,13.57,8.87-2.13,1.72,4.83,8.61-.8,3.86-3.83,7,3.28-.71,10.64-4.69,8.26,13.64,8.38.3,3.15-14.29-2.47-5.33.77-3.52,8.8-13.35-3L778.93,1012l-6.93,4.65-9.29-7.63-7.69,1.84-10,9.22-2.82.48-2.25,11-5,7.41-13.78,9.55-5.88-2.83.81-7.78-12.44-2.67-3.66-6.08-1.66-7.94,1.66-4.86-10.16-19.21-9.48.5-12.12-3.8-8.76.35-5.77-5.74-7.8,3-13.83.57-2.57,2.6-7.74-.63-7.34-7.91-7.5-4.91L587.83,972l-2-5.92-.09-11.68,9.61-7.69,3.12-8.8-14.7-12-.83-7.94,2.79-5.3,8.17-6.42.12-3.64L574.38,883l-.35-2.22,6.8,3,5.64-2.63,9.12.44,4.53,5.68,6.66-1.1,8,1.67-4.2-11.35,5.76-4,11.72.21.72,11.28,5.66,4.07,7.26-6.72L659,877.94l15.2-8.74,6.33,4.51L691.65,871l6.13-7.81L710,853l-5-6.18,10.39-11.24-8.52-7.72-2.17-6.56,12.78-6.84L721,819l14.62,6.12,6,.57.73,8.28,4,7.36,3.53-10.92,5.36,3.22-2.12,5.12Z" transform="translate(-0.44 -0.18)" />
		<path class="cls-1" d="M700.14,757.63l5.27,11.5,1.91,7.7,14.3,19.81,3.92,16.72-8.14,1.1-12.78,6.84,2.17,6.56,8.52,7.72-10.39,11.24,5,6.18-12.18,10.14L691.65,871l-11.12,2.76-6.33-4.51L659,877.94l-17.32,3.37L634.42,888,628.76,884,628,872.68l-11.72-.21-5.76,4,4.2,11.35-8-1.67-6.66,1.1-4.53-5.68-9.12-.44-5.64,2.63-6.8-3-3.49-8.19-13.12.82L543.17,867l-8.51,1.33-2,4.38-6.29-.33-4.23-4.9-5.94.17-2-12.77-9.78-.94-1,3.84-13.3-2.43,2.83-3.14-.79-26,1.91-2.89,11.6,3.5-2-15.72,3.56-5.25-2.73-17.9,3.74-9.39-1.11-4.49-8.58-3.3,0-4.92,15.74-4.11.64-5,9.23-3.4,2.12,7,4.72-2.19,6.54,2.25,7.7-5.14,7.28-2.37,5.19,6.53,7.27-11,9.59-3.35,8.79,4.08,4,6.53,10.69-9.41,3.54,8.93,8.89-6.56,5.33,8.45,6,2.45,7.91-4.7,5.63-.76,11-6.7,32.36,8.48,3.42,2.23Z" transform="translate(-0.44 -0.18)" />
		<path class="cls-1" d="M524.22,753.3,515,756.7l-.64,5-15.74,4.11,0,4.92,8.58,3.3,1.11,4.49-3.74,9.39,2.73,17.9-3.56,5.25,2,15.72-11.6-3.5-1.91,2.89.79,26-2.83,3.14-7.32-1-8.46-7.64-10.28-2.12-11.86-4.64-2.37-7.35-6.57,4.4-8.7-1-6,1.94-.77,8.32-10.67,3.94-8.58-3.5-7.4,5.19-5.53-10.28,17.7-15.42-18.07-1.38-15.88-7.13-11.66-3.86,24.67-25.88,7.33-12.62,3.81-2.54-.28-16.31,1.35-2.9,10.74-7.68,6.31-2.72,14-9.09,11.52-10.68L464.61,709l8-4.79,8.81-1.92,10.62-5.37,4.82-.61,18-7.85,7.63-2,3.18,9.38,7.17-1,6.12,3.78-.69,5.71,2.42,8.29,4.1-1.86,3.64,9.38,6.57-3L550.69,732l-4.46,1.45-1.93,6.74L536,749.71Z" transform="translate(-0.44 -0.18)" />
		<path class="cls-1" d="M1144,735.37,1138.3,749l-9.39,9.63-1.61,6.2-4.89,6.88-4.65,14.13-5.85,3.72-3.6,6-8.81.61-7.69,5.64-10.57,4.75-5.1-3.86-18.6,4.17-7-2.83-3.57-7-8.3,2.93-8,17,5.26,2.48,2.44,5.23-4.12,8.07-.13,8.86-18.38-2.48-10.1,5-4.84-8.29-5.17-.07-2.32-10.89,2.11-2.76-7.28-10-6.31,1.75-3.05,9.3-5.45,4.85-9.1-3.33-9,8.49-7,1.65,5,7.95-2.05,13.39-3.53-.31-3.4,7.33-10.15,1.88-2.65-4-7.05-3-6.82,1.4-3.92,7.08-3.81-6.76L906.25,848l-19.16.57.28-4.73-3.7-10.46-5.2-6.82L873.15,814l-5.5-7.12,8.58-9.32,1.83-8.47,3.33-.18,4.14-12.75,9.75-7-.08-5.87,3.69-.67,6.28-7.27,5.94-1.65,13-15.27-.4-3.31,11.15-10.84,2.58-6-3.15-7.6,2.19-9.3-1.1-8.82-10.65-10.93,2.93-3.78,6.57-19.44-3.21-17,6.06-5.3,5.46-9.24-.08-6.55,9.38-3.91,2.86-13.78L962.73,592l4.65-11.86,4.52-5.35,2.85-9.2,3.79-2.65,5.51-10,9.34,7.57.9,6.71-4.85,9.93,11.71,15.66,5.36,4.85,8.75,15.74,4.81-2,4.87,12.48-2.29,10.63,5.36,4.9-4.12,8.7,1.35,7.74-10.19,16.91,4.48,5.14,6.56-2.09,10.49.13,3.61-6.29,8.63,4.32,3.3,7.84-4.48,9,5.45,8.54-4.57,4.57,7.27,13.13,4.66,1.1,10.7-2,9,6.68,4.42,7.56,7.83.81,3.67-11,5.19-7,8.12,5.94,11.52,1.07,10.77,9.88Z" transform="translate(-0.44 -0.18)" />
		<path class="cls-1" d="M1127.12,431.21l1.21,4.24,7,6.57,6.11,8.84,7.32-2,5.57,1.93,1.82,5,8.18.81,12.62,3.63,16.39,9.46,2.85,6.56,6,2.48,5.81,7.12,7.06,1.54,7.57-1.35,8.93-8.8,14,7.19,8.33,1.3,7.2,6.87-2.6,14.87,2.07,8.53,4.49,5.48-9.68,5.14-4.07,8.12.49,7.49-2.22,8.91-10.73,13.47-2.53,7.68,1.27,4.73-8.39,17.17-7.75,8.45-5.14,9.64-5,18.91-9.61,13.91-6.46,4.07-7.82,13.67-5.74,3.73,1.35,8.77,7.46,4.8.5,5.47,5.85,11.3-3.56,8.47,1.23,19.61-1.45,4.43-8.92,3.17-8.84-5.15-3.69,1.42-5.35,8.8-7.56-2-1.47-5.92-5.78-.8-7.44,6.47-12.32-5.31-10.77-9.88-11.52-1.07-8.12-5.94-5.19,7-3.67,11-7.83-.81-4.42-7.56-9-6.68-10.7,2-4.66-1.1-7.27-13.13,4.57-4.57-5.45-8.54,4.48-9-3.3-7.84-8.63-4.32-3.61,6.29-10.49-.13-6.56,2.09-4.48-5.14,10.19-16.91-1.35-7.74,4.12-8.7-5.36-4.9,2.29-10.63-4.87-12.48-4.81,2-8.75-15.74-5.36-4.85-11.71-15.66,4.85-9.93-.9-6.71-9.34-7.57,2.63-5.85,4.83-4.67,3.06-10.58,3.84-2.89.24-8.67,3.28-3.58,13.29-24.29,1-6.45,14-14.39,10.16,7.13,11.31-1.83,9.88-3.52,5.36,3.86,14.82-11.33,8-10.86,12.75-5.62,20-16.69Z" transform="translate(-0.44 -0.18)" />
		<path class="cls-1" d="M1432.64,468.89l4.24,3.11,2.12,13.31-5.54,6.39L1428,508.49l-6.7-.36-5.48,4.07-6.11,8.46-.73,5.57-4.46,5.46-5.15,15.8-5.08,5.11,5.6,15.09,2.8,3.06-6.82,6.63-3.2,13.69-14.18,1.25,2.8,9.46-9.28,6.58-4.35.88-4.32,8.51-4.56,3-10.7-.38-3.45,8.81-4,1.32-4.83,8.47,1.87,8.82-9.75,8.84-5.27,1.27-3.55,7.08-6.3,2.06L1305,682.73l-3.12,2.06-4.65,14-8.88,10-4.68,9.44,1,8.38L1283,740.56l-11.5,15.58-13.73,21.35-3.15,8.76-3.95,2.74,1.77,7.65-11.2,15.58-10,10.61-12,9.13-2.73,8.12L1205.21,853l-17.69,7.83-2.47,3.73-7.22,1.71-9.49,5.93-1,4.87L1150.69,884l-16.85,15.9.8,6.31-8.11,4.56-13,15.13-11.25,9.37-13.21,16.46-13.35,10.55-27.87,14.83-6.73,6.88-2.64,8.31-3.4,20.63-22.14,2.88-7-2.78-15.68.34-5-5.78-4.57-12-7-1.5-2.89,6.29-5.77-5-6.86-.76,1.75-16-3.6-11L945.34,967l-4-3.11-3.64-14.6,5-5.55-2.1-12.67L937,929.9l2.09-8.91-1.58-4.29,3.15-6.79-9.27.21-2.73-9.71.47-14.88-2.72-11.74,7.66-8.69,10.15-1.88,3.4-7.33,3.53.31,2.05-13.39-5-7.95,7-1.65,9-8.49,9.1,3.33,5.45-4.85,3.05-9.3,6.31-1.75,7.28,10-2.11,2.76,2.32,10.89,5.17.07,4.84,8.29,10.1-5,18.38,2.48.13-8.86,4.12-8.07-2.44-5.23-5.26-2.48,8-17L1047,797l3.57,7,7,2.83,18.6-4.17,5.1,3.86,10.57-4.75,7.69-5.64,8.81-.61,3.6-6,5.85-3.72,4.65-14.13,4.89-6.88,1.61-6.2,9.39-9.63,5.68-13.58,7.44-6.47,5.78.8,1.47,5.92,7.56,2,5.35-8.8,3.69-1.42,8.84,5.15,8.92-3.17,1.45-4.43-1.23-19.61,3.56-8.47-5.85-11.3-.5-5.47-7.46-4.8-1.35-8.77,5.74-3.73,7.82-13.67,6.46-4.07,9.61-13.91,5-18.91,5.14-9.64,7.75-8.45,8.39-17.17-1.27-4.73,2.53-7.68,10.73-13.47,2.22-8.91-.49-7.49,4.07-8.12,9.68-5.14-4.49-5.48-2.07-8.53,2.6-14.87,3.3-10.39,5.27-2.69,10.57-10,8.25-24.52,4-6.39,6-4.47,4.37,10.26,1.55,13.11,12.92,7.47,8.69,1.11,7.09,7.31,7.43-3.28,8.38,1.15,3.7-5.21,13.66-3.56,8.76-5.75,25.15,4.45,7.92,5,9.57-3.67,10.88,7.66Z" transform="translate(-0.44 -0.18)" />
		<path class="cls-1" d="M934.09,865.1l-7.66,8.69,2.72,11.74-.47,14.88,2.73,9.71,9.27-.21-3.15,6.79,1.58,4.29L937,929.9l3.64,1.19,2.1,12.67-5,5.55,3.64,14.6,4,3.11,11.06.64,3.6,11-1.75,16,6.86.76,5.77,5,2.89-6.29,7,1.5,4.57,12,5,5.78-2,5.46,4.37,7.85-5.34,5.79,4.51,11.59-3.39,2.55-9.92-3-4.29,10.33,2.86,15.24-4.69,7.71-7.23.86-9.81-5.45-5.81,5.25-1.06,8.17-8.88,19.92-2.55,9.25-4.48,6.74-5.28-.47L918.64,1107l-8.64-5.4-10-2.65-7.18,1.55-15.52-3.27-.28-5.47-13.2-4.83,2.89-20.13-.39-4.49,4.11-15.15-10.78-8.52-1.35-7.74-11.06-3,.13-5.62-8.18-16.43-3.42-3.57-.3-3.15-13.64-8.38,4.69-8.26.71-10.64-7-3.28-3.86,3.83-8.61.8-1.72-4.83-8.87,2.13L792.84,957l4.43-17.17,6.57-4.56-3.75-11.05-.65-15.91-7.14-5.35.2-11.33L785.13,890l-1.2-8-4.76-.71-4.63-6.91-4,2.1-9.16-13.64-1.72-5.08,5-9.73-6.49-3.87,2.72-2.65,11.27,0,10.31-4.59,3.53-11.27,10.75.89,5.19-5.6,13.41,13.65,11.35-8.67,17.56.71,5.23-2.19,11.41-9.81,6.84-7.71,5.5,7.12,5.32,12.53,5.2,6.82,3.7,10.46-.28,4.73,19.16-.57,3.59,11.79,3.81,6.76,3.92-7.08,6.82-1.4,7.05,3Z" transform="translate(-0.44 -0.18)" />
		<path class="cls-1" d="M433.77,1116.6l7.48-.35,2.48-3.24,12.29,2.28,1.51,4.19,23.8-3.91-.68-6.46,1.7-13.29-.75-12.57,2.53-14.62,9.61,3.8.3,2.9,10.07,4,3.09-3.29.9-26-3.5-7.4,6.57-2.88,37.72-11.39,2.32,7,11.88.11-1.72,16.94-2.16,33.44L556,1126.19l-1.75,33.49,6.69,4.86,5.22.62-3,8.06-7.27-2.45-7.74.65L546.45,1182l3.62,2.87-3.2,16.79-5.1,5.29-2.27,13.54-4.49,6.33,3.8,8.84,9.32,11.72,5.13,9.58-2.24,8.71,2.72,9.18L531.66,1262l-5.08.46-2.34,6.59,4.58,6.58-5.72,5.63-6.3-1L503,1270.91l-10.8-13.21-22.48-4.94-3.58-11.8.73-12.21-3-3.66-6.71-.13-11.66,13.58-5.3,3.86-11.68-1.63-16.85-11.72-7.18.6-7.27-3.24-12.3-9-8.7-4,4-5.4.52-11.13L390,1193l9.68-18.12-7.57-2.16-.7-3.6,7.5-13.91,31.42.07,2.42-2,0-36.46Z" transform="translate(-0.44 -0.18)" />
		<path class="cls-1" d="M614.4,986.12,613.11,1001l1.95,8.48,8,10.83,1.74,11.53-4.2,10.28-2.48,15.21-2.85,7.62,3.3,5.29,14-.33,13.53,10.81,2.69,5.72L647.1,1096l12.69,3.56L655,1113l-5.34,3.86,8.94,6,9.73,12.41,7.58,12.7,5.81,6.68,2.38,6.66-1.28,10.58,1.31,6.91L679,1189.58l-3.7,3.33.36,11.34-4.82,11.65.92,22.07,7.77,5.06,5.26,5.89-2.74,5.41-8.36.7,1.29,9-2.58,4.27-6-7.22L660.4,1271l-6.75-3.68-11.38-1.58-11.74.24-40.09-10.14-15.58-1-2.81,7.18,4,11.79-6.94,4-8.16.15-7.16-3.18-2.72-9.18,2.24-8.71-5.13-9.58-9.32-11.72-3.8-8.84,4.49-6.33,2.27-13.54,5.1-5.29,3.2-16.79-3.62-2.87,1.74-10.59,7.74-.65,7.27,2.45,3-8.06-5.22-.62-6.69-4.86,1.75-33.49,3.21-40.33,2.16-33.44,1.72-16.94,3.85-42.84,15.51,1.4,2.71-8.51,6.23,3.29,13.27-.24,2.24-7.37Z" transform="translate(-0.44 -0.18)" />
		<path class="cls-1" d="M745,1020.11v8.28l9.29,8.22-2,5.46,2.33,5.62,10.9,3.5,2.08,4.29-1.33,13,7.91-4.25,2.38-5.16,12.34,1.43,1.88,2.67-7.76,5.63.78,11L781.7,1087l3.62,15.83-1.77,6.69,2.9,6.22-4.16,2.45-8.44-4.92-5.86-6.77-8,.71-5.46-5.4-12.29,10.59,2.53,6.32-3.82,7-9,7.1,6.59,41.06-3.15,5.06,2.4,15.53,11.37,14-5.72,5.39-.77,12.36,6.14,4.12,1.7,9,8.71,14,5.48.76,8.53-5.33,4.09,4.69,6-10.76,3.39-1.61,3.21,4.74-9.47,7.84-6.15,1.55L774,1261l-4.21,2.24-10.67.85,4.44,5.14-1.5,4-12.71,9.36L741.46,1294l-5.83-3-9.19,2.47-30.1.26-3.32-3.41-8.47-19.15-4.54-4.85L670.57,1278l-5.43-.17L660.4,1271l5.94-9.93,6,7.22,2.58-4.27-1.29-9,8.36-.7,2.74-5.41-5.26-5.89-7.77-5.06-.92-22.07,4.82-11.65-.36-11.34,3.7-3.33,5.18-10.81-1.31-6.91,1.28-10.58-2.38-6.66-5.81-6.68-7.58-12.7-9.73-12.41-8.94-6L655,1113l4.78-13.43L647.1,1096l1.68-9.55-2.69-5.72-13.53-10.81-14,.33-3.3-5.29,2.85-7.62,2.48-15.21,4.2-10.28-1.74-11.53-8-10.83-1.95-8.48,1.29-14.87,7.34,7.91,7.74.63,2.57-2.6,13.83-.57,7.8-3,5.77,5.74,8.76-.35,12.12,3.8,9.48-.5L700,1016.42l-1.66,4.86,1.66,7.94,3.66,6.08,12.44,2.67-.81,7.78,5.88,2.83,13.78-9.55,5-7.41,2.25-11Z" transform="translate(-0.44 -0.18)" />
		<path class="cls-1" d="M835.79,1002.31l3.42,3.57,8.18,16.43-.13,5.62,11.06,3,1.35,7.74,10.78,8.52-4.11,15.15.39,4.49-2.89,20.13,13.2,4.83.28,5.47,15.52,3.27,7.18-1.55,10,2.65,8.64,5.4,8.71,14.17,5.28.47-5.31,8.25-.91,9.46-4.6,10-5.14,19-5.7,3.53-2.37,14.47-4.73,5.16-2.09,9.4-9.08,16.91-4.25,10.62-14.68,5.56-2.47,3.59-6.74-8.8-.23-4.73-11.83-3.29-1.26-5.77-9-3.19-8.57,1.1-8.06,4-5.05,5.7-10.89-6.06-3.41,5.65-6.1.62-2.45,9.45-4.25,0L786.8,1241l-3.39,1.61-6,10.76-4.09-4.69-8.53,5.33-5.48-.76-8.71-14-1.7-9-6.14-4.12.77-12.36,5.72-5.39-11.37-14-2.4-15.53,3.15-5.06L732,1132.82l9-7.1,3.82-7-2.53-6.32,12.29-10.59,5.46,5.4,8-.71,5.86,6.77,8.44,4.92,4.16-2.45-2.9-6.22,1.77-6.69L781.7,1087l2.08-7.18-.78-11,7.76-5.63-1.88-2.67-12.34-1.43-2.38,5.16-7.91,4.25,1.33-13-2.08-4.29-10.9-3.5-2.33-5.62,2-5.46-9.29-8.22v-8.28l10-9.22,7.69-1.84,9.29,7.63,6.93-4.65,20.37-5.63,13.35,3,3.52-8.8,5.33-.77Z" transform="translate(-0.44 -0.18)" />
		<path class="cls-1" d="M574,880.79l.35,2.22,19.67,19.56-.12,3.64-8.17,6.42-2.79,5.3.83,7.94,14.7,12-3.12,8.8-9.61,7.69.09,11.68,2,5.92,19.07,9.21-2.24,7.37-13.27.24-6.23-3.29L582.45,994l-15.51-1.4-3.85,42.84-11.88-.11-2.32-7-37.72,11.39-6.57,2.88-5.3-4.32-12.7-2.13.12-13-15.73,0-.64-5.32-9.57-2.76,3.86-11.75-2.41-9.77-6.69-5-9.75-17-6.26,2.87-11.77-2.67-10.45-9.22,12.52-4.37,10-9.16,14.57-34.31,9.46-8.91L476.08,898l6.1-.76,8.12-6.31L499,876.38l4.4-18.6,1-3.84,9.78.94,2,12.77,5.94-.17,4.23,4.9,6.29.33,2-4.38,8.51-1.33,14.25,6.42,13.12-.82Z" transform="translate(-0.44 -0.18)" />
		<path class="cls-1" d="M471,1023.19l-17.24-4.82-28.37-3.15-1.95,10.29-18.68-3-17.69-6.9-8.66-9.6-10.62-5.58-13,5.45-18.64-2.22-1.87-3.51,9.39-4.28,13.27-9.44L371,974.58l10-5.17,21.24-6.58,15-.27,10.45,9.22,11.77,2.67,6.26-2.87,9.75,17,6.69,5,2.41,9.77-3.86,11.75,9.57,2.76Z" transform="translate(-0.44 -0.18)" />
		<path class="cls-1" d="M314.28,253.6l13,7.36,6,6.1,5.56,10.67,5.59,15.45,6.26,5.65,12.25,3.57,1.95,6.71-7.05.35L356,314.13l5.35,3.29-1,6-6.89-2.06L345,323.88l-11.2,1-6.41,3.71-3.3,4.91-8.48-10.1L306,315.28l-5.82-9.44L289,310.41l-6.5-6.84-4.45-9-6.13-.19,2.76,17.07,11,11.24-1.06,16.75,5.72,18.6-5.1,6.53L280,375.78l-10-4.89L259.5,375l-10.95,11.22-.71,7.34,13.51,7.12-.31,8.47,6.87,5.86.62,8.23-4.32,4.55-5.58,0-1.9,10.48-5.25,14.85-4.93,2.93-11.83,2.69-12,.07-15.7-1.62-18.47,1.27-5.23,3.27-12.13.47-10.63-1.15-5.29-4.32L144,452l-2.54-3.66,3.18-9.93.56-8-5.26-.08-7.88-7.89,10.51-13.33,3.73-7.57L153,376.75l3.76-22.05,2.89-28.95.27-19.76L159,287.41l4-7.81,12.73-7.8,2.84-5.5,6-.9,6.16-4.7,5.47-8.88,4.07-12.74,2.44-16.34L197,199l6.86-10.85,9.31-9.6,32.24,25.91,9.89,4.05L275.41,223l6.86,6.29,0,13.16,3.61,3.37,9.81.55,2.88,6.32,11-.73Z" transform="translate(-0.44 -0.18)" />
		<path class="cls-1" d="M334.13,812.54l8.51,7.78-.08,5.17,12,1.89,13.13-13.62,11.66,3.86,15.88,7.13,18.07,1.38-17.7,15.42,5.53,10.28,7.4-5.19,8.58,3.5,10.67-3.94.77-8.32,6-1.94,8.7,1,6.57-4.4,2.37,7.35,11.86,4.64,10.28,2.12,8.46,7.64,7.32,1,13.3,2.43-4.4,18.6-8.73,14.54-8.12,6.31-6.1.76-12.23,7.82-9.46,8.91L439.82,949l-10,9.16-12.52,4.37-15,.27-21.24,6.58-10,5.17-14.15,11.84-13.27,9.44-9.39,4.28L320,1006.61l-8.76.25-8.34-2.27-7.53.4-33.08,14.59-5.25,5.14-10.68-5.08-53.72-46.58L154,946.57l-33.74-19.33-15.72-7.68-10.74-3.32L88,910.48l-5.72-1.85,3.42-6.19,13.2-14.65,2.8-6.29,10.22-13,29.82-27,5.46-6.08,2.24-6.69L164,813.07l6.48-4.94,23.9-7.24,34-1.48,52-6.44h7.94L300,798.4l11.43-2.94,2.9,13.91,16,6.35Z" transform="translate(-0.44 -0.18)" />
		<path class="cls-1" d="M432.34,1105.21l.15.94,1.28,10.45-1,.14,0,36.46-2.42,2-31.42-.07-7.5,13.91.7,3.6,7.57,2.16L390,1193l-9.25,3.94-.52,11.13-4,5.4-9.95,2.36-12.09,7.72-12.78,11.35L335,1230l-2.34-12,4.4-18.16.76-15.66-3.1-24.25-4-17.07-7.84-18.37-8.95-11.33-3.75-7.81-7.45,3.21-9.71-4.83,54.53-38.57,9.56-5.56,7.36-6.9,6.64-5.73L389.7,1050l.07,14.78,32.84.71,3.49,7.81Z" transform="translate(-0.44 -0.18)" />
		<path class="cls-1" d="M432.34,1105.21l-6.24-31.9-3.49-7.81-2-5.18,1.85-30.68.94-4.13,1.95-10.29,28.37,3.15,17.24,4.82,15.73,0-.12,13,12.7,2.13,5.3,4.32,3.5,7.4-.9,26-3.09,3.29-10.07-4-.3-2.9-9.61-3.8-2.53,14.62.75,12.57-1.7,13.29.68,6.46-23.8,3.91-1.51-4.19L443.73,1113l-2.48,3.24-7.48.35-1.28-10.45Z" transform="translate(-0.44 -0.18)" />
		<path class="cls-1" d="M364.47,1052.68l-7.36,6.9-9.56,5.56L293,1103.71l0-4.73,10.09-9.4-4.19-11-10.63-14.06-7.34-7.08-5.74-8.85L259,1034.74l1.68-6.5-3.72-3.52,5.25-5.14L295.32,1005l7.53-.4,8.73,5.77L339,1020.51l26.07,1.08-1.07,9.65,1.39,7.75Z" transform="translate(-0.44 -0.18)" />
		<path class="cls-1" d="M423.43,1025.51l-.94,4.13-1.85,30.68,2,5.18-32.84-.71L389.7,1050,371.11,1047l-6.64,5.73.95-13.69-1.39-7.75,1.07-9.65L339,1020.51l-27.45-10.15-8.73-5.77,8.34,2.27,8.76-.25,14.28-6.47,1.87,3.51,18.64,2.22,13-5.45L378.4,1006l8.66,9.6,17.69,6.9Z" transform="translate(-0.44 -0.18)" />
		<path class="cls-1" d="M730.25,648.05l1,4.14-4,17.77-12.07,11L708,688.25l-3.86,16.34-2.58,4.67-5.25,18,2.58,6.72.12,19.51,1.16,4.09-18,.41-3.42-2.23-32.36-8.48-11,6.7-5.63.76-7.91,4.7-6-2.45-5.33-8.45-8.89,6.56-3.54-8.93-10.69,9.41-4-6.53L574.63,745,565,748.37l-7.27,11-5.19-6.53-7.28,2.37-7.7,5.14-6.54-2.25-4.72,2.19-2.12-7L536,749.71l8.34-9.57,1.93-6.74,4.46-1.45L555,717.19l-6.57,3-3.64-9.38-4.1,1.86-2.42-8.29.69-5.71-6.12-3.78-7.17,1-3.18-9.38,11.5-7,6.7-9.92-3.54-7.36L535.52,641l6.05-1.5,2.56-10.82-1.51-5.23,3.56-16.2,3.11-7.67,7.81-7.25,2.08,4.2,8.51-4.24,11.94-3.39,23.09-3.29,19.7-.7L641.59,589l4.07,5.39,26.25,10.22,22.89,19.17,27.14,17.17Z" transform="translate(-0.44 -0.18)" />
		<path class="cls-1" d="M895.2,763.32l.08,5.87-9.75,7-4.14,12.75-3.33.18-1.83,8.47-8.58,9.32-6.84,7.71-11.41,9.81-5.23,2.19-17.56-.71-11.35,8.67-13.41-13.65-5.19,5.6-10.75-.89-3.53,11.27-10.31,4.59-11.27,0-2.72,2.65-5-5.44,2.12-5.12-5.36-3.22-3.53,10.92-4-7.36-.73-8.28-6-.57L721,819l-3.56-4.55,8.14-1.1-3.92-16.72-14.3-19.81-1.91-7.7-5.27-11.5L699,753.54,698.86,734l-2.58-6.72,5.25-18,2.58-4.67L708,688.25l7.15-7.31.15,10.64,4.08,14.9,4.52,9.58,14.44,21.44,16.57,15L780,773l3.89,1.4,18.24-4.26,16.24-2.1,5.1-8.11,11.11-.2,18.61-7.61.17-3.84,5.88-12.1,6.91-.36,7.92,4.36,6.22,6.63,14-1.13,3.61,6.81-4.12,5.85Z" transform="translate(-0.44 -0.18)" />
		<path class="cls-1" d="M699.08,270.34l3.67,14.2,5,4.66,11.48,5.17,4-.92L733.49,279l3.38-1.46,3.11-9.35,7,1.61,13.1,6.91-2.38,8.41,11.44,1.28,9.57-2.47,3.79,9.77,8,4.71,4.66-1.21,10.44,9.06L817,304l5.31,1.16,6.26,6.58,9.44,4.07,2.08,4.4,2,13.31L837,340.05l-5.57-.17.76,13.5,1.93,4.39,8.52,4.87-1.5,4.47,3.45,5,12.85-2.71,7.3,2.45,10.95-1.49,8.73,1.86-1,4.38,2.94,8,6.49,1.56,3.3,5.87,4.75-.18,7.09,4.56,3,8.05-1.48,11.37-2.6,13.34-9.94,3.41-3.18,3-19.82,8.2-14.33,1.57-1.71,6.89-7.52-.13L844.71,449l-2-4.84L833.9,439l-7.78,1.69L815.51,435l-4.3,1.8-11.68-8.18-5.82-2.24-12.08,3.05-5,4.17-.38,4.48L767.77,441l1-8.07-10-9.75-12.37-1.29-2.63-6.56,1.36-7.34-1.49-9.66-10-10.54-9.74,3.76-9-6.1-7.5-15-5.53.92-3.63,11.11-3.6-5.92-9,.55-5-5.89-11.14-.74L661.06,381l-12.41-3.35.59-5.47-10.32-3.05-13.51,3.23-4.12-5.68-4,.67-3.66,6.83-11.55-1-1.76,4.18-10.49.64-7.59-4.13L588.58,354l.68-13.4,2.78-3.78,10.73.55,9.38-15.63,1.82-5.85-4.12-16.23,2.94-5.4,16.48-5,10.64-.94,18.14,1.91,24.13-.58,2.36-2.5-1.22-12.32,2.84-7.33,8.75-2.62Z" transform="translate(-0.44 -0.18)" />
		<path class="cls-1" d="M1133.27,312.94l2.27,7.64-.68,7.15-3.9,4,2.77,14.4-4.11,5.21,13.15,14.23L1148,375.8l1.76,10.11,6.73,6.72-4.4,15.75-5.65,8.41-8.56,8.2-10.76,6.22-4.51,1.46-20,16.69L1089.81,455l-8,10.86L1067,477.17l-5.36-3.86-9.88,3.52-11.31,1.83-10.16-7.13-2.08-3.31L1010,465.74l-7.24-6.13-10-.53L979.71,451l-7.11,2-3.36-3.61-5.9,2.93L960.15,459l-6.78-6.33,1.54-14.38-5.38,1.75-3.41-3.95-13.77,1.53-2.89-6-8.66-7.71-11.38-8,1.48-11.37-3-8.05-7.09-4.56-4.75.18-3.3-5.87-6.49-1.56-2.94-8,1-4.38-8.73-1.86-10.95,1.49-7.3-2.45-12.85,2.71-3.45-5,1.5-4.47-8.52-4.87-1.93-4.39-.76-13.5,5.57.17,5.14-6.58-2-13.31-2.08-4.4-9.44-4.07-6.26-6.58L817,304l-11.41,2.27-10.44-9.06-4.66,1.21-8-4.71-3.79-9.77-9.57,2.47-11.44-1.28,2.38-8.41L747,269.76l-7-1.61-3.11,9.35L733.49,279l-10.23,14.49-4,.92-11.48-5.17-5-4.66-3.67-14.2,16.42-14.66,7,1.07,4.1-2.4-7.5-13.73,3.66-7.18L733,239.06l9.63,7.28,4.65-.57,11-6.85,4.7-11.61-.74-4.68,5.94-4.41,4.78,6.48,10.46,3.49.33,7.64,7.59,5.84,2.1-12.8-3.19-7.21.18-6.55,8.48-.06,14,2.52,2.67-4.72-8.49-10,.38-5.86,14,5.42-.14-15.32,4-4,8.18-.22L833.1,196l6.48,2,2.23-8.32-.58-7.94,10,.88,5.2,15.84,3.92,4.05,5.53-2.78-3.14-6.32-.83-10.55,6.3-4.21,3.91,6.62-.64,7.73,2.65,2.52h8.43l7.08,5.69,2.45,12.57,6.32,6,3.17-1.71,7.66,2.54,6.77,5.94,11.13,3.93,11.55,14.83,8.93,1.85,1.55,10.11,12,8.66,3.56,5.39-3.55,7.32,8.15,6.78,10.84.14,11.42-8,2.35,2.72,12.21,1,4.48,5.58,9.91,2.11,3.89-3.49,7.41.87,9.63,11.51,9.66-.46,10.78-13,11.71-1.29,4.18,3.66,11.6.68,11.38,5.65-.74,5.91-7.73,4.66,11,2.89,6.51-4.81,8.79.28,6.07,4-1.91,7.13Z" transform="translate(-0.44 -0.18)" />
		<path class="cls-1" d="M286.69,557.32l-2.14,6.44,5.72,11.86L280.2,574l-2.73,3,1.7,7.1-5.35,13-1.59,9.65,11.3,2.57,6.88,4.28,1.21,12.62,12,4.55L301.86,643l-5.88,7.6-4.35,18.75,2.83,15.83-14,1.54v17.64l7,1.62L287,716l12-3.78L309.32,718l-1.39,11.12,3.06,2.19,13.11-1.85-1.2-14.1,8.58,3.5,9.83,9.32,5.59,16.48-14,20.12,3.44,7.91,5.57,1.9-1.18,19.8-1.86,12-4.75,6.23-3.85,3.18-16-6.35-2.9-13.91L300,798.4,288.27,793h-7.94l-52,6.44-34,1.48-23.9,7.24L164,813.07l-14.54,15.62-2.24,6.69-5.46,6.08-29.82,27-10.22,13-2.8,6.29-13.2,14.65-3.42,6.19-10.77,2.14-18.4-22.58L39.92,864.75,27.36,850.53l-12.75.12-9.84,1.9L1,849.08l2.94-11.31-.52-6.56,9.16-31,3.14-17.81,4.93-18.64,8.63-19.85,7.19-11.48,4.26-9.63,8.55-8.66,10.23-7.92,2.09-13.68,6-11.69L74.88,631l4.31-17.11,6.92-18.09L100,564.52l5.84-.95,26.22-12.35,4.59,2.88,16.78-1,11.57,8,7.57.73,4.37,4.07,6.42-3.41,5.56,2.6,3.71-4.81,7.63-1.38,4.37,5.15,5-1.11,7.59,5.72,7.61,1.32,7.32-9.22,0-13.4-1.75-7.5,5.14-2.92,5.14,3.72,14.15-5.28,6-.36,1.93,10.55,5.77,11.51,7.85-4,9.78-1Z" transform="translate(-0.44 -0.18)" />
		<path class="cls-1" d="M251.48,453.16l13.09-8.4,9.74-4.33,17.36-4.18,12.41-4.86,10.37,2.28,12.31,11,4.12,13.37,6.12,3.48,4.05,6.43,2.57,16.62,2.46,7.8,2.3,10.8-5.45,14.21-3.83,16.43-6.34,9-2,15.31L326,563.85l-10.19,1.81L296.22,555.2l-9.53,2.12-.48-5.33-9.78,1-7.85,4-5.77-11.51L260.88,535l-6,.36-14.15,5.28-5.14-3.72-5.14,2.92,1.75,7.5,0,13.4L224.86,570l-7.61-1.32-7.59-5.72-5,1.11-4.37-5.15-7.63,1.38-3.71,4.81-5.56-2.6L177,565.88l-4.37-4.07-7.57-.73-11.57-8-16.78,1-4.59-2.88-26.22,12.35-5.84.95,4.86-15.39,13.72-26.42,5.91-21.05,4-30.57.32-10.3-2.55-8.73-1-14.79,1-6.1,5.84-8.74,7.88,7.89,5.26.08-.56,8-3.18,9.93L144,452l11.27,4.75,5.29,4.32,10.63,1.15,12.13-.47,5.23-3.27,18.47-1.27,15.7,1.62,12-.07,11.83-2.69Z" transform="translate(-0.44 -0.18)" />
	</g>
</svg>
