<svg id="word" data-name="word" xmlns="http://www.w3.org/2000/svg" viewBox="0 0 912.52 124.91"><defs><style>.cls-1{fill:#c30;}</style></defs><path class="cls-1" d="M60.43,18.09c-2.23.54-.8,5.09,1.7,5.45,2,.27,3.39,4.37,2.68,7.77-.36,2.23-9.11,5.08-13.75,4.55-5.18-.63-6.43.89-3.3,4.11,2.76,2.94,6.78,3.3,12.67,1.16l3.66-1.25v2.5c0,2.41-.53,2.76-6.69,5-5,1.87-7.59,2.32-10.18,1.87-2-.27-3.75-.18-4,.27s.81,2.23,2.41,4.1l2.86,3.31,5.62-1.43c3.13-.8,8.31-2.5,11.61-3.66a80.7,80.7,0,0,1,14.2-3c7.85-.8,11.87-2,11.87-3.48,0-.44-1.16-1.78-2.5-3.12-2.14-2.06-3.21-2.41-8-2.41-4.19,0-5.53-.36-5.53-1.25,0-1.34,4.37-3.22,7.32-3.22a2.6,2.6,0,0,0,2.23-1.43,5.15,5.15,0,0,1,2.86-2.23l2.32-.89-2.23-1.7a10.22,10.22,0,0,0-6.43-1.78c-4.2,0-4.2-.09-3.75-2.5.36-1.79-.09-3-1.79-4.82-2-2.23-2.76-2.41-8.3-2.32A75,75,0,0,0,60.43,18.09Z" transform="translate(-23.74 -17.54)"/><path class="cls-1" d="M82.39,52.2c-.53.44-4,1.42-7.94,2.32a88,88,0,0,0-13.21,4.1C55.08,61.3,55,61.3,51.15,59.87,49,59,46.51,58.62,45.43,59c-2.14.63-2.5,3-.62,3.66.62.27,1.87,3,2.77,6s2.05,6.79,2.68,8.4l1.25,2.76-6.43,2A41.84,41.84,0,0,0,37,85c-1.78,1.16-1.69,1.25.81,1.34,8.48.45,14.82-1,27.23-5.89A88.62,88.62,0,0,1,99.36,73.8c11.87.09,14,.89,7.76,3-6.51,2.23-6.07,3.57,1.08,2.85,5.26-.53,6-.35,7.85,1.52a27.78,27.78,0,0,0,4.47,3.57c2.32,1.43,2.5,1.43,3.39-.18,1.61-3.12,1-6.6-1.88-9.73-1.42-1.6-3.12-2.85-3.75-2.67a82.08,82.08,0,0,1-8.83-1A110.05,110.05,0,0,0,93,70.32c-6.25.18-8,0-6.34-.54,1.34-.53,2.41-1.34,2.41-1.78s1.16-1.61,2.59-2.41c2.77-1.61,4-5.54,2.68-8.13C92.84,54.7,83.91,50.77,82.39,52.2Zm.45,5.89c0,2.32-2.5,5-5.09,5.44-1.69.36-7,1.88-11.69,3.49C56.59,70.23,56,70.14,56.24,65c.18-2.14.53-2.76,1.51-2.41.72.27,3.4-.27,5.81-1.16s6.16-2.14,8.12-2.68C75.43,57.82,82.84,57.37,82.84,58.09ZM72.13,73.18C66.5,74.78,61,76.39,60,76.75c-1.61.53-2,.18-2.32-2.15-.36-2.49-.18-2.67,2.32-2.76A27.79,27.79,0,0,0,65,71a54.79,54.79,0,0,1,9.82-.71l7.58-.09Z" transform="translate(-23.74 -17.54)"/><path class="cls-1" d="M25.35,81.3c2,4.2,2,11.7.35,17-1.69,5.18-.71,8,3.22,9.29,3.3,1.07,3.93,1,4.28-1.07.18-.63.72-2.33,1.34-3.84C35.7,100,36,96.92,35.7,91a8.38,8.38,0,0,0-3-6.52c-1.52-1.51-3.22-2.76-3.75-2.76a7.61,7.61,0,0,1-3-2.06l-2.14-2Z" transform="translate(-23.74 -17.54)"/><path class="cls-1" d="M74.54,81.48C72,86.3,62.75,91.12,56,91.12c-5,0-4.82,1.07.53,3.93a11.88,11.88,0,0,0,7.15,1.7c1.69-.18,3.12-.18,3.12,0s-1.34,1.87-2.86,3.92c-3.3,4-9.19,7.86-12.14,7.86-2,0-2.68,2.14-1.07,3.12A11.89,11.89,0,0,1,53,115.23c1.79,3.75,5.18,4.37,6.07,1.07.27-1.25,2.77-3.31,6.7-5.72L72,106.92l.62,4c.72,4.64.54,4.82-4.91,6.87-5.8,2.24-8,3.93-8,6,0,2.59,2,2.94,5.89.89,6.07-3,7.23-3.13,7.68-.54.45,2.24-1.25,3.22-2.41,1.34a1.85,1.85,0,0,0-1.52-.89c-.53,0-.18.89.89,2.05s2,2.41,2,2.95c0,1.52-15.54,6.78-18.13,6.07-3.12-.71-3.21,1.25-.08,3.57,3.83,2.77,8.48,2.86,14,.18,7.41-3.66,15-4.64,22-2.86,5.27,1.34,5.72,1.34,7.59-.18,5.18-4-2.41-8.48-14.37-8.48H79.27v-3.39c0-2.41.45-3.66,1.7-4.28.89-.54,1.87-.72,2.14-.45s2.32-.36,4.64-1.43c3.3-1.52,3.93-2.14,3.13-3.12-1.7-2.06-7-4.11-9.29-3.49-1.69.36-2.32.09-2.77-1.34A7.77,7.77,0,0,0,76,107l-2.24-1.52,3.93-2c4-2.14,9.11-2.23,14.38-.18,1.78.72,2.76.63,3.75-.18,3.12-2.59-4.56-8-11.25-8-1.88,0-1.79-.27,1.69-3.84,2.06-2,3.75-4.38,3.75-5.18,0-1.69-4-4-8.48-4.82a15.33,15.33,0,0,1-4.64-1.52C76.15,79.16,75.43,79.69,74.54,81.48Z" transform="translate(-23.74 -17.54)"/><path class="cls-1" d="M216.63,18.54c-6.66,3.45-8.22,5.75-4.69,6.74a15.58,15.58,0,0,1,4.36,3c2.3,2.22,2.47,2.71,2,6.17-.74,4.6-1.48,5.34-8.22,8.14-3,1.15-7,3-9,3.86-6.5,3-11.84,4.77-14.56,4.77-1.48,0-2.71.33-2.71.74,0,1,10.52,5.92,13.57,6.42,1.89.24,3.94-.58,8.88-3.54,3.53-2.06,6.57-3.62,6.82-3.37.74.74-6.66,17.51-10,22.69-3.13,4.85-4.19,5.51-13.9,9.29C185.3,84.9,185,85,184,83.58a10,10,0,0,1-1.31-2.3c-1-2.72-1.48,1.48-1.56,13.15,0,9.54-.33,13.57-1.15,14.89A10,10,0,0,0,178.8,114a7.17,7.17,0,0,1-1.23,4.12c-1.07,1.06-1,1.64.82,5.18,2.63,4.85,6.5,9,9.46,10,1.81.57,2.63.41,4.36-1.07l2-1.73-.57-19.82c-.33-14.14-.82-20.14-1.56-21-.91-1.15-.58-1.39,2.05-1.89a47.76,47.76,0,0,0,8.72-2.87c3.53-1.49,5.59-2,5.67-1.4s.25,1.89.33,3,.49,3.7.82,5.76l.5,3.7-5.1,2c-4.85,1.81-5,2-3.87,3.7,1.57,2.38,4.11,2.55,8.64.66A77.13,77.13,0,0,1,218,99.45l4.27-1.32-.41,2.64c-1.31,7.23-1.48,7.4-9,9.86a83.79,83.79,0,0,0-9.95,4c-2.8,1.73-2.8,1.73-1.24,3.29,2.55,2.55,7.73,2.71,11.43.33,6.34-4,6.5-4,7.08,4.19.49,7.32,4.11,19.08,6.16,19.82,1.24.41,3.37-3.95,4.2-8.72a115.8,115.8,0,0,0,1.31-12.49c.33-4.77,1-9,1.56-9.3s4.12-.49,8.06-.33c9.87.5,11.1.17,11.1-2.79,0-1.32-.33-2.39-.65-2.39s-.91-.74-1.16-1.64c-.65-2.06-4.44-4.11-7.64-4.11-1.4,0-5.18,1.15-8.47,2.55-5.68,2.38-6,2.46-7.07,1.07a5.57,5.57,0,0,1-1.07-2.47,3.54,3.54,0,0,0-1.24-2c-2.71-2.22-1.23-2.72,15.63-5.35,12.25-1.89,13.24-2.22,12.91-4.6-.66-4.2-3.62-5.92-8.06-4.77-6.83,1.72-12.25,3.45-13,4.11a3.44,3.44,0,0,1-1.89.74c-.58,0,.49-1.4,2.38-3.13a34.72,34.72,0,0,0,4.11-3.86,83.23,83.23,0,0,1,6.25-7.65A11.15,11.15,0,0,0,246,70.92c.41-2.14.9-2.47,5.09-3.38,7.24-1.56,15.13-2.22,17.11-1.48,1.56.58,1.81,1.4,2.05,5.43.41,8.06-.9,24-2.63,33.14-1,4.77-1.73,9.29-1.73,10,0,1.65-.74,1.89-9.37,3.13-3.12.49-5.84,1.23-6,1.64s-2.06.58-4.11.33c-3.62-.41-3.79-.33-2.31.82a6.07,6.07,0,0,0,3,1.32c.82,0,3.2,1.64,5.42,3.7s4.53,3.7,5.27,3.7c1.39,0,5.75,3.86,7.07,6.17.82,1.39.9,1.39,9-2.22a8.87,8.87,0,0,0,3-3.38,109.93,109.93,0,0,0,6-19.07c.24-1.81,1.15-5.92,2-9s1.89-8,2.47-10.69,1.23-5.84,1.56-7a8.69,8.69,0,0,0,0-4.36c-.33-1.23-.33-2.22,0-2.22.9,0,2.47-7.4,1.64-7.89a2.59,2.59,0,0,1-.74-2c0-2.47-7.07-7.16-12.33-8.31-6.5-1.4-11.76-1.07-22.37,1.32-15.87,3.62-17.1,3.78-20.06,2.71-3.13-1.07-4.36-.49-2.8,1.4.58.74.91,1.4.74,1.56-.33.25-25.65,9.38-28.2,10.2-1.23.33-.91-.58,1.64-4.2,1.81-2.63,3.87-4.68,4.69-4.68s1.4-.33,1.4-.66c0-.66,9.95-15,13.4-19.32,1.56-2,3-2.55,10.28-3.87,9.54-1.89,15.13-2.05,19-.74,3.13,1.07,7.24-.16,6.17-1.89a4.51,4.51,0,0,1-.74-2.3c-.57-6.75-7.23-12-14.22-11.27a30.3,30.3,0,0,0-6.17,1.32c-1.32.49-2.47.9-2.55.9a7.68,7.68,0,0,1-.82-2.46c-.58-3.29-4-6.58-6.66-6.58a15.38,15.38,0,0,1-5.35-1.65C221.07,17.22,219.43,17.06,216.63,18.54Zm14.8,56.57a46.19,46.19,0,0,1-2.38,6.74c-1.32,3.29-2.64,6.75-3,7.73-.5,1.73-1.32,2.3-5.51,3.54-2.31.66-4.61-.74-3.62-2.3.25-.42-.33-1.32-1.23-2.06s-1.4-1.81-1.16-2.22,0-.82-.57-.82-1.73-.91-2.47-2l-1.48-2,5.59-2.06C230.94,74,231.43,73.88,231.43,75.11Z" transform="translate(-23.74 -17.54)"/><path class="cls-1" d="M377.25,20c-1.64.6-1.38,2.51.87,6.15,2,3.29,2.17,6.15,1.56,39.66-.09,2.51-.52,2.94-5,4.68-2.77,1.12-6.15,2.42-7.62,3a63.21,63.21,0,0,1-6.5,2.16,25.37,25.37,0,0,0-5.19,1.73,41.9,41.9,0,0,1-7.8,1.3c-3.55.35-7.36,1.13-8.4,1.82-2.6,1.65-2.16,4.5,1.21,7.1,2.77,2,3.38,2.17,12.65,1.91,5.37-.09,11.43-.18,13.59-.09a13.33,13.33,0,0,0,5.81-1c1.12-.52,2.25-.78,2.51-.52.95.95-3.38,19-6.07,25.37-1.9,4.42-4.33,7-9.17,9.61-2.17,1.13-4.51,2.43-5.2,2.86s-2.34,1.21-3.64,1.82c-6,2.86-2.25,5.46,6.93,4.85,13.77-.87,16.89-4.68,27-33.25,1.12-3,2.34-5.37,2.86-5.37s2.68,1.9,4.85,4.15a56.26,56.26,0,0,0,14,10.48c2.43,1.21,6.33,4.51,7.45,6.41.35.61,3.64,2.6,7.19,4.42A95,95,0,0,1,432,125.69a62.88,62.88,0,0,0,7.45,4.84c2.77,1.48,5.28,4.51,7,8.66,1.3,2.95,2.77.09,3.29-6.06.43-4.67.17-6.32-1.39-9.52a29.65,29.65,0,0,0-3.29-5.46c-.78-.86-1.21-1.73-.95-2,.69-.61-13.94-10.39-18.19-12.21-1.9-.78-5.63-2.08-8.22-2.86a91.55,91.55,0,0,1-9.27-3.55,43.55,43.55,0,0,0-5-2c-.26,0-3.29-1.39-6.76-3s-6.93-3-7.7-3c-1.13,0-1.56-.7-1.56-2.6,0-2.17.43-2.69,3.37-3.55,2.52-.78,3.73-.69,5.2,0,2.08,1.12,4.85-.17,11.6-5.37,3.73-2.94,9.27-4,12.3-2.34,1.82,1,2.43.78,5.54-1.64,2-1.56,3.55-3.47,3.55-4.16,0-2.86-3.81-8.57-7.62-11.78-3.55-2.77-4.67-3.2-8.66-3.2-4.93,0-11.51,2.34-19.22,6.93-5.28,3.11-5.37,3.11-4.42.6a42.91,42.91,0,0,0,1.39-7.79c.34-3.29,1.12-7.36,1.9-9,1.56-3.9,1-15.67-.95-20.44-1.47-3.46-4.76-5.36-7.71-4.59a8.33,8.33,0,0,1-3.55-.25A5,5,0,0,0,377.25,20Z" transform="translate(-23.74 -17.54)"/><path class="cls-1" d="M556.81,19c0,.62.27,1.16.63,1.16a20.4,20.4,0,0,1,3.84,3.12c3.21,3,7.05,4.11,8.21,2.32.27-.44-.36-2.23-1.34-3.93-1.7-2.85-2.23-3.12-6.61-3.48C558.24,18,556.81,18.27,556.81,19Z" transform="translate(-23.74 -17.54)"/><path class="cls-1" d="M531.37,23c-4.82,2-8.75,4-8.75,4.56,0,1.25,6.25,6.78,8.75,7.85,2.77,1.07,11.43,1,15.44-.09,2.59-.71,3.48-1.6,4.73-4.73.9-2.32,1.08-3.84.54-4a2.26,2.26,0,0,1-.89-2c0-2.14-5.27-5.36-8.57-5.27C541.19,19.34,536.1,21,531.37,23Z" transform="translate(-23.74 -17.54)"/><path class="cls-1" d="M579.4,20.68,575,22l2.24,2.32a12.77,12.77,0,0,0,5.26,2.86c2.59.53,3,1,3,3-.09,1.34-.18,4.38-.18,6.88l-.18,4.46h-5.35c-4.56,0-5.36.27-5.36,1.61,0,2,3,4.64,6.16,5.53,2.68.63,3.21,2.24,2,5.54-.71,2-1.6,2.41-5.35,3-2.86.35-4.56,1.07-4.56,1.78,0,1.52,5.9,6.7,7.68,6.7.8,0,1.25.62,1.07,1.51-.18,1.17-1.6,1.79-5.18,2.33a25.38,25.38,0,0,1-6,.26c-1.43-.62-1.51-4.28-.09-5.71.63-.62.72-1.07.27-1.07s-.36-.36.18-.72c.89-.53.71-1.51-.62-4.19-2.24-4.47-2.24-4.64.53-9.82,1.88-3.66,2.14-4.73,1.25-6.52-.71-1.61-.71-2.5,0-3.21.45-.45.89-.63.89-.18s1.07-.63,2.32-2.14c2.33-2.68,2.33-2.77.72-4.38-1.52-1.43-2.14-1.52-6.88-.36a47.33,47.33,0,0,0-7,2.06A13,13,0,0,1,557,34.61c-1.87.09-2.86.45-2.5,1.07,1.43,2.59,3.39,4.11,5.27,4.11,4.91,0,5.89,2.14,3.84,9l-1.07,3.4-4.11-1.61c-2.23-.89-4.82-1.43-5.72-1.16-1.33.27-1.24.71,1,3.57,5.62,7.32,5.62,7.32,3.12,12.5-1.25,2.59-3.12,5.36-4.28,6.07s-2,1.87-1.7,2.5-1.7,1.78-5.18,3c-3.12,1-7.14,2.49-8.93,3.3-3.12,1.34-3.3,1.34-3.12-.36.09-1,.71-1.78,1.34-1.78.89,0,1.07-.63.62-2.41-.26-1.34-.62-2.86-.71-3.4s1.25-.8,2.95-.71c5.08.18,11-1.52,13-3.93,1.61-1.87,1.79-2.59,1-4.82s-2.14-3.13-5.09-3.93c-.26-.09-1.16-.45-2.05-.89s-3.12-.27-5.09.27c-3.3.8-3.57.71-3.57-1.07a21.48,21.48,0,0,0-.54-3.93c-.53-2-.44-2.06,3.93-1.43,4.73.62,7.5-.54,8-3.22a2.76,2.76,0,0,1,1-1.6c.45-.09.54-1.16.36-2.32-.63-3.13-6-4.65-11.43-3.31-4.73,1.16-5.8.81-5.8-2.14a3.71,3.71,0,0,0-1.7-3.12c-1.52-.72-2-.36-3.57,3a38,38,0,0,0-2.77,8.66,89.17,89.17,0,0,1-2.68,10.8c-1,3.31-1.6,7-1.34,8.13a57.94,57.94,0,0,1,1.25,6.07c.09.53,2.5,3.57,5.54,6.78,1.07,1.16,2.23,1.79,2.68,1.52s.8.18.8.89c0,2-17.5,10.36-21.43,10.36-.35,0-.62-1.87-.62-4.29a135.34,135.34,0,0,0-1.07-15.35c-.09-.27-.63.18-1.25,1a12,12,0,0,1-3.75,2.68c-3.48,1.7-9.64,11-9.82,15-.27,3.48,1.16,8.3,2.14,7.68.45-.18,1.25.53,1.79,1.69,1.6,2.86,7.67,6.07,10.44,5.36,1.88-.45,2.14-1,1.7-2.95-.63-2.76.89-4.46,5.8-6.43,3-1.25,7-3.21,19.2-9.73,9.1-4.82,17.14-7.5,33.56-11.16C579.58,73,582.17,72.73,591.54,73c5.71.18,10.71.53,11.07,1,.89.89-1.34,2.5-8.93,6.52-5.18,2.76-5.89,3.39-4.55,4.1.89.54,3.39.63,5.71.36s7.5-1,11.61-1.52c7-.8,9.91-1.78,9.91-3.57,0-.36-1.79-2.14-4-4-3.12-2.5-6-3.74-12.14-5.35a67.27,67.27,0,0,0-11.43-2.14c-3.39,0-4.82-2.06-2.14-3,1-.45,1.16-1.79.71-6.52-.44-4.1-.26-7,.54-8.75a9.67,9.67,0,0,0,.89-3.39c-.27-1.34,3.48-15,4.38-15.8a15,15,0,0,0,1.6-2.5c1.52-2.77.18-5.09-4.46-7.32C585.92,19,585.2,18.9,579.4,20.68ZM569,70.23c0,.36-1.87.89-4.19,1.16s-5,.89-5.9,1.07c-1.33.45-1.16-.18.9-2.94L562.26,66l3.39,1.88C567.52,68.89,569,70,569,70.23Z" transform="translate(-23.74 -17.54)"/><path class="cls-1" d="M563.06,84.16c-2.32,1.25-6.87,3.84-10,5.71-5.71,3.39-9.46,4.38-10.09,2.59-.17-.62-.8-.54-1.78.18-2.68,2,.44,10,4.19,10.71a1.63,1.63,0,0,0,2.06-1.52,11.81,11.81,0,0,1,2.68-4.28c2.85-3,12.49-10.45,13.66-10.45,2.05,0-2.5,10-5.72,12.59l-1.87,1.52,2.85,4.64a26.22,26.22,0,0,1,2.68,4.91c-.18.09-2.14,1.25-4.46,2.5-9.2,5.27-19.46,17.32-19.46,22.86,0,2.32,5,6.34,7.85,6.34a80.65,80.65,0,0,0,9.55-1.88c3.93-1,8.49-2,10-2.14,5.72-.72,11-4.73,11-8.48a26.16,26.16,0,0,0-1.33-6.34,12.17,12.17,0,0,1-1-5c.63-1.52,4.82-1.43,9.38.18,7.23,2.5,11.43-2.24,6.07-6.88-3.84-3.21-7.95-4.37-14.91-4.19-6.16.18-7-.09-9.2-2.06-1.34-1.25-2.41-2.76-2.41-3.3,0-1.79,8-13.39,9.82-14.37s2.32-3.13.9-4C570.11,81.93,567.26,82,563.06,84.16Zm4,39.28c.27,2.5-.27,3.3-4.29,6.43-4.64,3.66-15.89,7.94-17.85,6.78-3-1.87,1.69-8.39,8.39-11.78,5.89-3,10.45-4.64,12.14-4.47C566.28,120.49,566.9,121.74,567.08,123.44Z" transform="translate(-23.74 -17.54)"/><path class="cls-1" d="M680.9,18.6c-.65.65-.57,1.79.16,4.22,2,6.5-.32,15.42-6.74,26.79-5.11,8.92-6.73,11.12-10.87,14.44-2.6,2-4.06,4-4.47,5.69a6,6,0,0,1-1.46,3.16c-.65.49-.65.81.17,1.14.48.16.81.65.56,1s0,2.6.49,5c1.38,6.42,4.47,8,8.12,4.22,2-2.19,6.33-4.78,6.9-4.14.16.17-.73,1.71-2,3.49A18.16,18.16,0,0,0,669,89.05a17.11,17.11,0,0,1-3,5c-1.38,1.55-2.11,3-1.7,3.25a6,6,0,0,1,1.3,3c.32,1.38,2.35,4.39,4.54,6.66s4,4.62,4,5.19c0,2.44-3.57,10.23-6.17,13.31-1.54,1.87-2.51,3.74-2.19,4.22a7.69,7.69,0,0,1,.41,3.41,13.54,13.54,0,0,0,1.7,5.68c1.46,2.52,2.52,3.33,4.38,3.49,2.76.25,5.77-1.78,6.25-4.38.33-1.54,4-7.47,5.2-8.44,1.13-.81,9.09-15,9.09-16.15a35.11,35.11,0,0,1,2.76-6.33c4.46-8.85,4.46-10.07.08-5-10.15,11.68-12.83,14.6-13.07,14.28-1.3-1.22,6.74-17.53,9.17-18.67,3.49-1.54,2.11-6.41-2.59-9.17-1.47-.81-1.47-1.05-.25-4.06.73-1.78,2.76-6.33,4.63-10.22,4.3-9,4.87-11.61,2.68-12.74s-9.09-2.68-12.1-2.6c-1.46,0-2.67-.33-2.67-.73s.4-.81,1-.81.65-.25.4-.49.17-1.54.9-2.68a42.94,42.94,0,0,0,3.81-7.38c0-.25.73-2.52,1.54-5.2,2.44-8.11,1.79-13.88-2.11-19.15C684.47,18.93,682,17.47,680.9,18.6Z" transform="translate(-23.74 -17.54)"/><path class="cls-1" d="M748.1,62.19a10.07,10.07,0,0,0-3.25,2.27C744,65.35,740.55,67,737,68s-9,3-12.17,4.22c-7.39,2.76-11.61,4.22-14.61,4.87l-2.44.57,2,1.54c1.14.81,4,2.68,6.33,4,4.87,2.84,6.9,2.68,8.61-.73,1.62-3.09,16-11.61,17.36-10.31.41.49-8.76,16.23-9.74,16.56a1.79,1.79,0,0,0-.65,1.46c0,.65-.32,1.13-.64,1.13s-1.3,1.3-2,2.84S727.32,97,726.84,97s-.74.32-.57.64-1.14,2.6-2.68,5c-2.76,4-5.68,5.76-9.82,5.76-2.27,0-2.36,4.54-.16,9.09,2.11,4.3,3.08,4.54,7.54,1.46a26.52,26.52,0,0,1,6.5-2.36c6.41-1.46,27.83-2.11,33.52-1,4.14.73,5,.65,6.16-.57,2.6-2.43,3.41-4.7,2.52-7.06a4.4,4.4,0,0,1-.41-2.84c.65-1.05-3.4-3.89-6.33-4.46a9.65,9.65,0,0,1-3.4-1.3c-1.06-.73-3.82-.49-15,1.54-4.71.89-8.68,1.46-8.85,1.3s.49-1.14,1.38-2.27,1.79-1.79,2.11-1.55.49.17.49-.32a11.44,11.44,0,0,1,2.44-3.57c3.32-3.9,3.16-3.65,8.27-10.88,4.87-6.9,8.12-10.63,9.66-11.12.49-.16,1.06-1.46,1.22-2.92.32-2.84-1.87-5.84-4.22-5.84a7.61,7.61,0,0,1-3-1C751.75,61.46,750.29,61.29,748.1,62.19Z" transform="translate(-23.74 -17.54)"/><path class="cls-1" d="M882.14,20.24c-2.06,2.32-2.77,4.46-1.25,3.57.8-.54,1.6,1.87,2.32,7.41a9.6,9.6,0,0,0,.8,3.39,4.3,4.3,0,0,1-.36,2.59c-.53,1.34-.53,2.14,0,2.14s.9.8.9,1.79A1.58,1.58,0,0,1,883,42.91a23.92,23.92,0,0,0-9.55,3c-1.61,1.16-1.43,1.34,1.51,3.21,2.5,1.52,3.93,1.88,6.43,1.34,3-.53,3.13-.45,3.13,1.79s-2.77,4.1-8.75,5.62c-2,.45-2.15.27-1.7-1.52a6.22,6.22,0,0,0-.27-3.66c-.71-1.34-9.19-7.94-10.17-7.94-.27,0,0,1.34.35,2.85a89.24,89.24,0,0,1,1.7,10.54c.8,6.69,1.25,7.85,3.57,10L872,70.5l-3.84,1.25a19.92,19.92,0,0,1-7,1c-3.13-.27-3.22-.18-3.57,3.3-.54,5.45,1.07,5.63,10.26,1.7,4.29-1.88,7.77-3.21,7.77-3a25.12,25.12,0,0,1-3.13,4c-5.89,6.88-7.85,18.12-3.83,21.52,2.41,2,4.46,1.6,5.62-1,.71-1.6,1.61-2,4.64-2h3.75l-.8,2.77a14.52,14.52,0,0,1-1.7,3.84c-.53.62-.71,1.43-.44,1.69s-.63.81-2,1.16a80.43,80.43,0,0,0-16.69,5.27c-8.13,3.48-9.56,3.75-9.56,1.7,0-.72-.35-1.07-.89-.81-1.25.81-1.16,6.07.18,7.41,2.23,2.24,5.45,1.52,17.5-3.92,5.71-2.59,6-2.68,4.28-.18-2.23,3.21-1.78,4.28,2,4.37a43.06,43.06,0,0,1,6.69.63l3.4.62-2.5,3.3c-3.4,4.47-10.45,9.65-14.82,11l-3.57,1.07,3.83,2c7.41,3.84,15.36,1.07,21.52-7.5a28.29,28.29,0,0,1,3.21-4c.18,0,3.4,2.59,7.24,5.81,9.9,8.39,18.92,10.71,18.92,4.91,0-3.22-2.85-9.82-5-11.7-1.87-1.52-12.05-6.16-13.57-6.16-1.87,0-1.87-1.6-.18-5,.9-2,1.88-4.19,2.15-5.09.71-2.32,7.94-2,20,.81,8.31,2,10.45,2.23,12.41,1.34s2.24-1.43,1.79-4.29a11.84,11.84,0,0,0-2.41-5.09c-1.7-1.78-2.86-1.87-16.79-1.87-11.87.09-15.08-.18-15.89-1.25-1.07-1.43-3-.63-3,1.34,0,.8-.89,1.25-2.59,1.25-2.05,0-2.68-.45-3-2.41a7.73,7.73,0,0,1-.09-3.13c.9-1.34,6.61-1.69,9.65-.62,2.76,1,3.39,1,5-.54,2.41-2.14,2.23-3.66-.54-6.25L904,87.64l2.59-1.34c3.93-2,10.26-9,9.91-10.89-.18-1-2.32-2.77-5.09-4.11-4.29-2.23-5.09-2.32-6.7-1.34a37.61,37.61,0,0,1-6.78,2.86c-2.68.89-5.45,1.78-6.07,2.05-.9.27-1.16-.44-.9-3,.27-3.31.45-3.48,4.29-4.11a43.79,43.79,0,0,1,10.27.09c5.44.71,6.42.62,7.94-.8,2.23-2.15,1.34-3.22-4.91-6.25-5.35-2.59-5.35-2.59-7.14-.81a6.07,6.07,0,0,1-3.39,1.7c-1,0-2.06.36-2.32.89-.72,1.16-4.91,1.16-4.91.09,0-2.5,1.25-3.66,4.1-3.66,2.41,0,3.22-.53,4.29-2.5.71-1.34,3.66-3.84,6.69-5.53,4.11-2.41,5.36-3.57,5.45-5.18,0-2.5-3.48-6.07-7.68-7.86-2.85-1.25-3.3-1.16-5.44.54a8.92,8.92,0,0,1-4.47,1.78c-2,0-2.14-.26-1.69-3.39.26-1.78.62-5.27.71-7.59s.45-4.46.89-4.73c1.07-.71.9-4.28-.35-5.53-.63-.63-2.86-1.08-5.09-1.08C884.9,17.91,883.65,18.45,882.14,20.24ZM893,46.48c-.27.45-.72.9-1,.9s-.36-.45-.36-.9a.92.92,0,0,1,1-.89C893.12,45.59,893.3,46,893,46.48ZM882.94,63c1.79,2.41-.09,4-7,6.16-1.61.45-1.79.18-2-3.22l-.27-3.83H878C880.35,62.11,882.58,62.46,882.94,63Zm-.18,8.66c1.07,7,1.25,6.61-3.21,9.1a46,46,0,0,1-4.47,2.33c-1.51,0,1.16-7,3.93-10.09C880.08,71.75,882.67,70.86,882.76,71.66Zm13.48,9.46c-2.68,3.75-4.28,4.91-4.73,3.57-.8-2,.71-4.64,3-5.26C898,78.44,898.12,78.53,896.24,81.12ZM882.76,87c0,2.59-.36,3.22-2.77,4-4.37,1.52-5.26,1.25-5.26-1.52,0-1.69.71-2.85,2.5-3.92C881.15,83.09,882.76,83.53,882.76,87Zm11.61,23.31a22.8,22.8,0,0,1-2.41,4.1c-1.43,2.23-2.86,3.39-3.57,3a12.92,12.92,0,0,0-3.58-.45h-2.23l2.59-2.77a16.72,16.72,0,0,1,4.29-3.48C891.51,109.87,894.37,109.6,894.37,110.32Z" transform="translate(-23.74 -17.54)"/><path class="cls-1" d="M837.23,31.75c-2.68,1-3.21,1.61-3.75,4.82a22.38,22.38,0,0,1-1.16,4.56c-.27.53.27.89,1.25.89,1.79,0,1.87.53,1.87,9.1v9.2L831.16,62c-2.32.89-5.36,2.14-6.88,2.76-5.08,2.15-9.46,3.31-11.15,2.86-1.43-.36-1.52-.18-.81,2a14.48,14.48,0,0,0,2.14,3.66,11,11,0,0,1,1.79,3.57c1.52,6.07,6.52,8,11.25,4.55,1.61-1.16,2.68-1.61,2.32-.89s-1.52,3.84-2.86,7A62.52,62.52,0,0,1,822,97a24.72,24.72,0,0,0-2.59,4.38,4.83,4.83,0,0,1-1.42,2c-1.61,1.61-1.08,5.09,1.6,10.8,2.5,5.27,5.27,5.9,9.11,1.88,1.52-1.7,3.57-4.11,4.37-5.27,1.52-2.23,1.61-2.14,1.08,3.48a30.42,30.42,0,0,1-.81,6.16c-1.07,1-7.68,1.61-8.48.81-1.43-1.43-2.05-.18-1.07,2.32.45,1.25,2.68,3.48,4.91,5.09s4.11,3,4.2,3.39c.44,4.37,2,6.43,4.91,6.43,1.6,0,2.58-1,4-3.75,1.61-3.13,1.88-5.18,1.79-11.88a137.43,137.43,0,0,0-1.16-14.46c-1-6.16-1-6.69,1-10.18,1.16-2,1.87-3.75,1.61-4s.8-1.7,2.14-3.13,2.32-3.12,2.05-3.57-.09-.8.36-.8,1.07-.72,1.34-1.61a23.51,23.51,0,0,1,2.41-3.75,15.57,15.57,0,0,0,2.32-6.7,26.39,26.39,0,0,1,2-7.14c1-2-.18-1.25-5.27,3.48L845.8,77,844.1,75c-1.69-2-1.6-2.14.45-2.94,7.23-3,7.59-3.22,7.68-6.34.09-2.5-.45-3.48-2.86-5.36a10.57,10.57,0,0,0-4.91-2.23c-1.78,0-1.87-.27-1.34-6.52A96.07,96.07,0,0,1,845.8,35.5c.45-1.87.18-2.86-1.07-3.75C842.77,30.23,841.43,30.23,837.23,31.75Z" transform="translate(-23.74 -17.54)"/></svg>